<?xml version="1.0" encoding="utf-8" standalone="no"?>
<!DOCTYPE svg PUBLIC "-//W3C//DTD SVG 1.1//EN"
  "http://www.w3.org/Graphics/SVG/1.1/DTD/svg11.dtd">
<svg xmlns:xlink="http://www.w3.org/1999/xlink" width="774.792pt" height="445.248pt" viewBox="0 0 774.792 445.248" xmlns="http://www.w3.org/2000/svg" version="1.1">
 <metadata>
  <rdf:RDF xmlns:dc="http://purl.org/dc/elements/1.1/" xmlns:cc="http://creativecommons.org/ns#" xmlns:rdf="http://www.w3.org/1999/02/22-rdf-syntax-ns#">
   <cc:Work>
    <dc:type rdf:resource="http://purl.org/dc/dcmitype/StillImage"/>
    <dc:date>2026-07-18T20:17:00.260256</dc:date>
    <dc:format>image/svg+xml</dc:format>
    <dc:creator>
     <cc:Agent>
      <dc:title>Matplotlib v3.10.8, https://matplotlib.org/</dc:title>
     </cc:Agent>
    </dc:creator>
   </cc:Work>
  </rdf:RDF>
 </metadata>
 <defs>
  <style type="text/css">*{stroke-linejoin: round; stroke-linecap: butt}</style>
 </defs>
 <g id="figure_1">
  <g id="patch_1">
   <path d="M 0 445.248
L 774.792 445.248
L 774.792 0
L 0 0
z
" style="fill: #ffffff"/>
  </g>
  <g id="axes_1">
   <g id="patch_2">
    <path d="M 26.57088 326.0736
L 189.14184 326.0736
L 189.14184 160.1856
L 26.57088 160.1856
z
" clip-path="url(#pc87fefbb7d)" style="fill: #eef2f4; stroke: #eef2f4; stroke-linejoin: miter"/>
   </g>
   <g id="patch_3">
    <path d="M 26.57088 176.7744
L 189.14184 176.7744
L 189.14184 160.1856
L 26.57088 160.1856
z
" clip-path="url(#pc87fefbb7d)" style="fill: #a63d40; stroke: #a63d40; stroke-linejoin: miter"/>
   </g>
   <g id="patch_4">
    <path d="M 211.82616 326.0736
L 374.39712 326.0736
L 374.39712 160.1856
L 211.82616 160.1856
z
" clip-path="url(#pc87fefbb7d)" style="fill: #eef2f4; stroke: #eef2f4; stroke-linejoin: miter"/>
   </g>
   <g id="patch_5">
    <path d="M 211.82616 176.7744
L 374.39712 176.7744
L 374.39712 160.1856
L 211.82616 160.1856
z
" clip-path="url(#pc87fefbb7d)" style="fill: #b07d12; stroke: #b07d12; stroke-linejoin: miter"/>
   </g>
   <g id="patch_6">
    <path d="M 397.08144 326.0736
L 559.6524 326.0736
L 559.6524 160.1856
L 397.08144 160.1856
z
" clip-path="url(#pc87fefbb7d)" style="fill: #eef2f4; stroke: #eef2f4; stroke-linejoin: miter"/>
   </g>
   <g id="patch_7">
    <path d="M 397.08144 176.7744
L 559.6524 176.7744
L 559.6524 160.1856
L 397.08144 160.1856
z
" clip-path="url(#pc87fefbb7d)" style="fill: #007db8; stroke: #007db8; stroke-linejoin: miter"/>
   </g>
   <g id="patch_8">
    <path d="M 582.33672 326.0736
L 744.90768 326.0736
L 744.90768 160.1856
L 582.33672 160.1856
z
" clip-path="url(#pc87fefbb7d)" style="fill: #eef2f4; stroke: #eef2f4; stroke-linejoin: miter"/>
   </g>
   <g id="patch_9">
    <path d="M 582.33672 176.7744
L 744.90768 176.7744
L 744.90768 160.1856
L 582.33672 160.1856
z
" clip-path="url(#pc87fefbb7d)" style="fill: #002569; stroke: #002569; stroke-linejoin: miter"/>
   </g>
   <g id="text_1">
    <!-- STEP 1 -->
    <g style="fill: #a63d40" transform="translate(40.181472 201.6576) scale(0.085 -0.085)">
     <defs>
      <path id="DejaVuSans-Bold-53" d="M 3834 4519
L 3834 3531
Q 3450 3703 3084 3790
Q 2719 3878 2394 3878
Q 1963 3878 1756 3759
Q 1550 3641 1550 3391
Q 1550 3203 1689 3098
Q 1828 2994 2194 2919
L 2706 2816
Q 3484 2659 3812 2340
Q 4141 2022 4141 1434
Q 4141 663 3683 286
Q 3225 -91 2284 -91
Q 1841 -91 1394 -6
Q 947 78 500 244
L 500 1259
Q 947 1022 1364 901
Q 1781 781 2169 781
Q 2563 781 2772 912
Q 2981 1044 2981 1288
Q 2981 1506 2839 1625
Q 2697 1744 2272 1838
L 1806 1941
Q 1106 2091 782 2419
Q 459 2747 459 3303
Q 459 4000 909 4375
Q 1359 4750 2203 4750
Q 2588 4750 2994 4692
Q 3400 4634 3834 4519
z
" transform="scale(0.015625)"/>
      <path id="DejaVuSans-Bold-54" d="M 31 4666
L 4331 4666
L 4331 3756
L 2784 3756
L 2784 0
L 1581 0
L 1581 3756
L 31 3756
L 31 4666
z
" transform="scale(0.015625)"/>
      <path id="DejaVuSans-Bold-45" d="M 588 4666
L 3834 4666
L 3834 3756
L 1791 3756
L 1791 2888
L 3713 2888
L 3713 1978
L 1791 1978
L 1791 909
L 3903 909
L 3903 0
L 588 0
L 588 4666
z
" transform="scale(0.015625)"/>
      <path id="DejaVuSans-Bold-50" d="M 588 4666
L 2584 4666
Q 3475 4666 3951 4270
Q 4428 3875 4428 3144
Q 4428 2409 3951 2014
Q 3475 1619 2584 1619
L 1791 1619
L 1791 0
L 588 0
L 588 4666
z
M 1791 3794
L 1791 2491
L 2456 2491
Q 2806 2491 2997 2661
Q 3188 2831 3188 3144
Q 3188 3456 2997 3625
Q 2806 3794 2456 3794
L 1791 3794
z
" transform="scale(0.015625)"/>
      <path id="DejaVuSans-Bold-20" transform="scale(0.015625)"/>
      <path id="DejaVuSans-Bold-31" d="M 750 831
L 1813 831
L 1813 3847
L 722 3622
L 722 4441
L 1806 4666
L 2950 4666
L 2950 831
L 4013 831
L 4013 0
L 750 0
L 750 831
z
" transform="scale(0.015625)"/>
     </defs>
     <use xlink:href="#DejaVuSans-Bold-53"/>
     <use xlink:href="#DejaVuSans-Bold-54" transform="translate(72.021484 0)"/>
     <use xlink:href="#DejaVuSans-Bold-45" transform="translate(140.234375 0)"/>
     <use xlink:href="#DejaVuSans-Bold-50" transform="translate(208.544922 0)"/>
     <use xlink:href="#DejaVuSans-Bold-20" transform="translate(281.835938 0)"/>
     <use xlink:href="#DejaVuSans-Bold-31" transform="translate(316.650391 0)"/>
    </g>
   </g>
   <g id="text_2">
    <!-- EM-DAT country profiles -->
    <g style="fill: #20262e" transform="translate(40.181472 229.3056) scale(0.11 -0.11)">
     <defs>
      <path id="DejaVuSans-Bold-4d" d="M 588 4666
L 2119 4666
L 3181 2169
L 4250 4666
L 5778 4666
L 5778 0
L 4641 0
L 4641 3413
L 3566 897
L 2803 897
L 1728 3413
L 1728 0
L 588 0
L 588 4666
z
" transform="scale(0.015625)"/>
      <path id="DejaVuSans-Bold-2d" d="M 347 2297
L 2309 2297
L 2309 1388
L 347 1388
L 347 2297
z
" transform="scale(0.015625)"/>
      <path id="DejaVuSans-Bold-44" d="M 1791 3756
L 1791 909
L 2222 909
Q 2959 909 3348 1275
Q 3738 1641 3738 2338
Q 3738 3031 3350 3393
Q 2963 3756 2222 3756
L 1791 3756
z
M 588 4666
L 1856 4666
Q 2919 4666 3439 4514
Q 3959 4363 4331 4000
Q 4659 3684 4818 3271
Q 4978 2859 4978 2338
Q 4978 1809 4818 1395
Q 4659 981 4331 666
Q 3956 303 3431 151
Q 2906 0 1856 0
L 588 0
L 588 4666
z
" transform="scale(0.015625)"/>
      <path id="DejaVuSans-Bold-41" d="M 3419 850
L 1538 850
L 1241 0
L 31 0
L 1759 4666
L 3194 4666
L 4922 0
L 3713 0
L 3419 850
z
M 1838 1716
L 3116 1716
L 2478 3572
L 1838 1716
z
" transform="scale(0.015625)"/>
      <path id="DejaVuSans-Bold-63" d="M 3366 3391
L 3366 2478
Q 3138 2634 2908 2709
Q 2678 2784 2431 2784
Q 1963 2784 1702 2511
Q 1441 2238 1441 1747
Q 1441 1256 1702 982
Q 1963 709 2431 709
Q 2694 709 2930 787
Q 3166 866 3366 1019
L 3366 103
Q 3103 6 2833 -42
Q 2563 -91 2291 -91
Q 1344 -91 809 395
Q 275 881 275 1747
Q 275 2613 809 3098
Q 1344 3584 2291 3584
Q 2566 3584 2833 3536
Q 3100 3488 3366 3391
z
" transform="scale(0.015625)"/>
      <path id="DejaVuSans-Bold-6f" d="M 2203 2784
Q 1831 2784 1636 2517
Q 1441 2250 1441 1747
Q 1441 1244 1636 976
Q 1831 709 2203 709
Q 2569 709 2762 976
Q 2956 1244 2956 1747
Q 2956 2250 2762 2517
Q 2569 2784 2203 2784
z
M 2203 3584
Q 3106 3584 3614 3096
Q 4122 2609 4122 1747
Q 4122 884 3614 396
Q 3106 -91 2203 -91
Q 1297 -91 786 396
Q 275 884 275 1747
Q 275 2609 786 3096
Q 1297 3584 2203 3584
z
" transform="scale(0.015625)"/>
      <path id="DejaVuSans-Bold-75" d="M 500 1363
L 500 3500
L 1625 3500
L 1625 3150
Q 1625 2866 1622 2436
Q 1619 2006 1619 1863
Q 1619 1441 1641 1255
Q 1663 1069 1716 984
Q 1784 875 1895 815
Q 2006 756 2150 756
Q 2500 756 2700 1025
Q 2900 1294 2900 1772
L 2900 3500
L 4019 3500
L 4019 0
L 2900 0
L 2900 506
Q 2647 200 2364 54
Q 2081 -91 1741 -91
Q 1134 -91 817 281
Q 500 653 500 1363
z
" transform="scale(0.015625)"/>
      <path id="DejaVuSans-Bold-6e" d="M 4056 2131
L 4056 0
L 2931 0
L 2931 347
L 2931 1631
Q 2931 2084 2911 2256
Q 2891 2428 2841 2509
Q 2775 2619 2662 2680
Q 2550 2741 2406 2741
Q 2056 2741 1856 2470
Q 1656 2200 1656 1722
L 1656 0
L 538 0
L 538 3500
L 1656 3500
L 1656 2988
Q 1909 3294 2193 3439
Q 2478 3584 2822 3584
Q 3428 3584 3742 3212
Q 4056 2841 4056 2131
z
" transform="scale(0.015625)"/>
      <path id="DejaVuSans-Bold-74" d="M 1759 4494
L 1759 3500
L 2913 3500
L 2913 2700
L 1759 2700
L 1759 1216
Q 1759 972 1856 886
Q 1953 800 2241 800
L 2816 800
L 2816 0
L 1856 0
Q 1194 0 917 276
Q 641 553 641 1216
L 641 2700
L 84 2700
L 84 3500
L 641 3500
L 641 4494
L 1759 4494
z
" transform="scale(0.015625)"/>
      <path id="DejaVuSans-Bold-72" d="M 3138 2547
Q 2991 2616 2845 2648
Q 2700 2681 2553 2681
Q 2122 2681 1889 2404
Q 1656 2128 1656 1613
L 1656 0
L 538 0
L 538 3500
L 1656 3500
L 1656 2925
Q 1872 3269 2151 3426
Q 2431 3584 2822 3584
Q 2878 3584 2943 3579
Q 3009 3575 3134 3559
L 3138 2547
z
" transform="scale(0.015625)"/>
      <path id="DejaVuSans-Bold-79" d="M 78 3500
L 1197 3500
L 2138 1125
L 2938 3500
L 4056 3500
L 2584 -331
Q 2363 -916 2067 -1148
Q 1772 -1381 1288 -1381
L 641 -1381
L 641 -647
L 991 -647
Q 1275 -647 1404 -556
Q 1534 -466 1606 -231
L 1638 -134
L 78 3500
z
" transform="scale(0.015625)"/>
      <path id="DejaVuSans-Bold-70" d="M 1656 506
L 1656 -1331
L 538 -1331
L 538 3500
L 1656 3500
L 1656 2988
Q 1888 3294 2169 3439
Q 2450 3584 2816 3584
Q 3463 3584 3878 3070
Q 4294 2556 4294 1747
Q 4294 938 3878 423
Q 3463 -91 2816 -91
Q 2450 -91 2169 54
Q 1888 200 1656 506
z
M 2400 2772
Q 2041 2772 1848 2508
Q 1656 2244 1656 1747
Q 1656 1250 1848 986
Q 2041 722 2400 722
Q 2759 722 2948 984
Q 3138 1247 3138 1747
Q 3138 2247 2948 2509
Q 2759 2772 2400 2772
z
" transform="scale(0.015625)"/>
      <path id="DejaVuSans-Bold-66" d="M 2841 4863
L 2841 4128
L 2222 4128
Q 1984 4128 1890 4042
Q 1797 3956 1797 3744
L 1797 3500
L 2753 3500
L 2753 2700
L 1797 2700
L 1797 0
L 678 0
L 678 2700
L 122 2700
L 122 3500
L 678 3500
L 678 3744
Q 678 4316 997 4589
Q 1316 4863 1984 4863
L 2841 4863
z
" transform="scale(0.015625)"/>
      <path id="DejaVuSans-Bold-69" d="M 538 3500
L 1656 3500
L 1656 0
L 538 0
L 538 3500
z
M 538 4863
L 1656 4863
L 1656 3950
L 538 3950
L 538 4863
z
" transform="scale(0.015625)"/>
      <path id="DejaVuSans-Bold-6c" d="M 538 4863
L 1656 4863
L 1656 0
L 538 0
L 538 4863
z
" transform="scale(0.015625)"/>
      <path id="DejaVuSans-Bold-65" d="M 4031 1759
L 4031 1441
L 1416 1441
Q 1456 1047 1700 850
Q 1944 653 2381 653
Q 2734 653 3104 758
Q 3475 863 3866 1075
L 3866 213
Q 3469 63 3072 -14
Q 2675 -91 2278 -91
Q 1328 -91 801 392
Q 275 875 275 1747
Q 275 2603 792 3093
Q 1309 3584 2216 3584
Q 3041 3584 3536 3087
Q 4031 2591 4031 1759
z
M 2881 2131
Q 2881 2450 2695 2645
Q 2509 2841 2209 2841
Q 1884 2841 1681 2658
Q 1478 2475 1428 2131
L 2881 2131
z
" transform="scale(0.015625)"/>
      <path id="DejaVuSans-Bold-73" d="M 3272 3391
L 3272 2541
Q 2913 2691 2578 2766
Q 2244 2841 1947 2841
Q 1628 2841 1473 2761
Q 1319 2681 1319 2516
Q 1319 2381 1436 2309
Q 1553 2238 1856 2203
L 2053 2175
Q 2913 2066 3209 1816
Q 3506 1566 3506 1031
Q 3506 472 3093 190
Q 2681 -91 1863 -91
Q 1516 -91 1145 -36
Q 775 19 384 128
L 384 978
Q 719 816 1070 734
Q 1422 653 1784 653
Q 2113 653 2278 743
Q 2444 834 2444 1013
Q 2444 1163 2330 1236
Q 2216 1309 1875 1350
L 1678 1375
Q 931 1469 631 1722
Q 331 1975 331 2491
Q 331 3047 712 3315
Q 1094 3584 1881 3584
Q 2191 3584 2531 3537
Q 2872 3491 3272 3391
z
" transform="scale(0.015625)"/>
     </defs>
     <use xlink:href="#DejaVuSans-Bold-45"/>
     <use xlink:href="#DejaVuSans-Bold-4d" transform="translate(68.310547 0)"/>
     <use xlink:href="#DejaVuSans-Bold-2d" transform="translate(167.822266 0)"/>
     <use xlink:href="#DejaVuSans-Bold-44" transform="translate(209.326172 0)"/>
     <use xlink:href="#DejaVuSans-Bold-41" transform="translate(292.333984 0)"/>
     <use xlink:href="#DejaVuSans-Bold-54" transform="translate(361.976562 0)"/>
     <use xlink:href="#DejaVuSans-Bold-20" transform="translate(430.189453 0)"/>
     <use xlink:href="#DejaVuSans-Bold-63" transform="translate(465.003906 0)"/>
     <use xlink:href="#DejaVuSans-Bold-6f" transform="translate(524.28125 0)"/>
     <use xlink:href="#DejaVuSans-Bold-75" transform="translate(592.982422 0)"/>
     <use xlink:href="#DejaVuSans-Bold-6e" transform="translate(664.173828 0)"/>
     <use xlink:href="#DejaVuSans-Bold-74" transform="translate(735.365234 0)"/>
     <use xlink:href="#DejaVuSans-Bold-72" transform="translate(783.167969 0)"/>
     <use xlink:href="#DejaVuSans-Bold-79" transform="translate(832.484375 0)"/>
     <use xlink:href="#DejaVuSans-Bold-20" transform="translate(897.669922 0)"/>
     <use xlink:href="#DejaVuSans-Bold-70" transform="translate(932.484375 0)"/>
     <use xlink:href="#DejaVuSans-Bold-72" transform="translate(1004.066406 0)"/>
     <use xlink:href="#DejaVuSans-Bold-6f" transform="translate(1053.382812 0)"/>
     <use xlink:href="#DejaVuSans-Bold-66" transform="translate(1122.083984 0)"/>
     <use xlink:href="#DejaVuSans-Bold-69" transform="translate(1165.589844 0)"/>
     <use xlink:href="#DejaVuSans-Bold-6c" transform="translate(1199.867188 0)"/>
     <use xlink:href="#DejaVuSans-Bold-65" transform="translate(1234.144531 0)"/>
     <use xlink:href="#DejaVuSans-Bold-73" transform="translate(1301.966797 0)"/>
    </g>
   </g>
   <g id="text_3">
    <!-- 1,767 aggregate rows -->
    <g style="fill: #a63d40" transform="translate(40.181472 270.7776) scale(0.14 -0.14)">
     <defs>
      <path id="DejaVuSans-Bold-2c" d="M 653 1209
L 1778 1209
L 1778 256
L 1006 -909
L 341 -909
L 653 256
L 653 1209
z
" transform="scale(0.015625)"/>
      <path id="DejaVuSans-Bold-37" d="M 428 4666
L 3944 4666
L 3944 3988
L 2125 0
L 953 0
L 2675 3781
L 428 3781
L 428 4666
z
" transform="scale(0.015625)"/>
      <path id="DejaVuSans-Bold-36" d="M 2316 2303
Q 2000 2303 1842 2098
Q 1684 1894 1684 1484
Q 1684 1075 1842 870
Q 2000 666 2316 666
Q 2634 666 2792 870
Q 2950 1075 2950 1484
Q 2950 1894 2792 2098
Q 2634 2303 2316 2303
z
M 3803 4544
L 3803 3681
Q 3506 3822 3243 3889
Q 2981 3956 2731 3956
Q 2194 3956 1894 3657
Q 1594 3359 1544 2772
Q 1750 2925 1990 3001
Q 2231 3078 2516 3078
Q 3231 3078 3670 2659
Q 4109 2241 4109 1563
Q 4109 813 3618 361
Q 3128 -91 2303 -91
Q 1394 -91 895 523
Q 397 1138 397 2266
Q 397 3422 980 4083
Q 1563 4744 2578 4744
Q 2900 4744 3203 4694
Q 3506 4644 3803 4544
z
" transform="scale(0.015625)"/>
      <path id="DejaVuSans-Bold-61" d="M 2106 1575
Q 1756 1575 1579 1456
Q 1403 1338 1403 1106
Q 1403 894 1545 773
Q 1688 653 1941 653
Q 2256 653 2472 879
Q 2688 1106 2688 1447
L 2688 1575
L 2106 1575
z
M 3816 1997
L 3816 0
L 2688 0
L 2688 519
Q 2463 200 2181 54
Q 1900 -91 1497 -91
Q 953 -91 614 226
Q 275 544 275 1050
Q 275 1666 698 1953
Q 1122 2241 2028 2241
L 2688 2241
L 2688 2328
Q 2688 2594 2478 2717
Q 2269 2841 1825 2841
Q 1466 2841 1156 2769
Q 847 2697 581 2553
L 581 3406
Q 941 3494 1303 3539
Q 1666 3584 2028 3584
Q 2975 3584 3395 3211
Q 3816 2838 3816 1997
z
" transform="scale(0.015625)"/>
      <path id="DejaVuSans-Bold-67" d="M 2919 594
Q 2688 288 2409 144
Q 2131 0 1766 0
Q 1125 0 706 504
Q 288 1009 288 1791
Q 288 2575 706 3076
Q 1125 3578 1766 3578
Q 2131 3578 2409 3434
Q 2688 3291 2919 2981
L 2919 3500
L 4044 3500
L 4044 353
Q 4044 -491 3511 -936
Q 2978 -1381 1966 -1381
Q 1638 -1381 1331 -1331
Q 1025 -1281 716 -1178
L 716 -306
Q 1009 -475 1290 -558
Q 1572 -641 1856 -641
Q 2406 -641 2662 -400
Q 2919 -159 2919 353
L 2919 594
z
M 2181 2772
Q 1834 2772 1640 2515
Q 1447 2259 1447 1791
Q 1447 1309 1634 1061
Q 1822 813 2181 813
Q 2531 813 2725 1069
Q 2919 1325 2919 1791
Q 2919 2259 2725 2515
Q 2531 2772 2181 2772
z
" transform="scale(0.015625)"/>
      <path id="DejaVuSans-Bold-77" d="M 225 3500
L 1313 3500
L 1900 1088
L 2491 3500
L 3425 3500
L 4013 1113
L 4603 3500
L 5691 3500
L 4769 0
L 3547 0
L 2956 2406
L 2369 0
L 1147 0
L 225 3500
z
" transform="scale(0.015625)"/>
     </defs>
     <use xlink:href="#DejaVuSans-Bold-31"/>
     <use xlink:href="#DejaVuSans-Bold-2c" transform="translate(69.580078 0)"/>
     <use xlink:href="#DejaVuSans-Bold-37" transform="translate(107.568359 0)"/>
     <use xlink:href="#DejaVuSans-Bold-36" transform="translate(177.148438 0)"/>
     <use xlink:href="#DejaVuSans-Bold-37" transform="translate(246.728516 0)"/>
     <use xlink:href="#DejaVuSans-Bold-20" transform="translate(316.308594 0)"/>
     <use xlink:href="#DejaVuSans-Bold-61" transform="translate(351.123047 0)"/>
     <use xlink:href="#DejaVuSans-Bold-67" transform="translate(418.603516 0)"/>
     <use xlink:href="#DejaVuSans-Bold-67" transform="translate(490.185547 0)"/>
     <use xlink:href="#DejaVuSans-Bold-72" transform="translate(561.767578 0)"/>
     <use xlink:href="#DejaVuSans-Bold-65" transform="translate(611.083984 0)"/>
     <use xlink:href="#DejaVuSans-Bold-67" transform="translate(678.90625 0)"/>
     <use xlink:href="#DejaVuSans-Bold-61" transform="translate(750.488281 0)"/>
     <use xlink:href="#DejaVuSans-Bold-74" transform="translate(817.96875 0)"/>
     <use xlink:href="#DejaVuSans-Bold-65" transform="translate(865.771484 0)"/>
     <use xlink:href="#DejaVuSans-Bold-20" transform="translate(933.59375 0)"/>
     <use xlink:href="#DejaVuSans-Bold-72" transform="translate(968.408203 0)"/>
     <use xlink:href="#DejaVuSans-Bold-6f" transform="translate(1017.724609 0)"/>
     <use xlink:href="#DejaVuSans-Bold-77" transform="translate(1086.425781 0)"/>
     <use xlink:href="#DejaVuSans-Bold-73" transform="translate(1178.808594 0)"/>
    </g>
   </g>
   <g id="text_4">
    <!-- No event ID, -->
    <g style="fill: #5c6670" transform="translate(40.181472 304.897586) scale(0.082 -0.082)">
     <defs>
      <path id="DejaVuSans-4e" d="M 628 4666
L 1478 4666
L 3547 763
L 3547 4666
L 4159 4666
L 4159 0
L 3309 0
L 1241 3903
L 1241 0
L 628 0
L 628 4666
z
" transform="scale(0.015625)"/>
      <path id="DejaVuSans-6f" d="M 1959 3097
Q 1497 3097 1228 2736
Q 959 2375 959 1747
Q 959 1119 1226 758
Q 1494 397 1959 397
Q 2419 397 2687 759
Q 2956 1122 2956 1747
Q 2956 2369 2687 2733
Q 2419 3097 1959 3097
z
M 1959 3584
Q 2709 3584 3137 3096
Q 3566 2609 3566 1747
Q 3566 888 3137 398
Q 2709 -91 1959 -91
Q 1206 -91 779 398
Q 353 888 353 1747
Q 353 2609 779 3096
Q 1206 3584 1959 3584
z
" transform="scale(0.015625)"/>
      <path id="DejaVuSans-20" transform="scale(0.015625)"/>
      <path id="DejaVuSans-65" d="M 3597 1894
L 3597 1613
L 953 1613
Q 991 1019 1311 708
Q 1631 397 2203 397
Q 2534 397 2845 478
Q 3156 559 3463 722
L 3463 178
Q 3153 47 2828 -22
Q 2503 -91 2169 -91
Q 1331 -91 842 396
Q 353 884 353 1716
Q 353 2575 817 3079
Q 1281 3584 2069 3584
Q 2775 3584 3186 3129
Q 3597 2675 3597 1894
z
M 3022 2063
Q 3016 2534 2758 2815
Q 2500 3097 2075 3097
Q 1594 3097 1305 2825
Q 1016 2553 972 2059
L 3022 2063
z
" transform="scale(0.015625)"/>
      <path id="DejaVuSans-76" d="M 191 3500
L 800 3500
L 1894 563
L 2988 3500
L 3597 3500
L 2284 0
L 1503 0
L 191 3500
z
" transform="scale(0.015625)"/>
      <path id="DejaVuSans-6e" d="M 3513 2113
L 3513 0
L 2938 0
L 2938 2094
Q 2938 2591 2744 2837
Q 2550 3084 2163 3084
Q 1697 3084 1428 2787
Q 1159 2491 1159 1978
L 1159 0
L 581 0
L 581 3500
L 1159 3500
L 1159 2956
Q 1366 3272 1645 3428
Q 1925 3584 2291 3584
Q 2894 3584 3203 3211
Q 3513 2838 3513 2113
z
" transform="scale(0.015625)"/>
      <path id="DejaVuSans-74" d="M 1172 4494
L 1172 3500
L 2356 3500
L 2356 3053
L 1172 3053
L 1172 1153
Q 1172 725 1289 603
Q 1406 481 1766 481
L 2356 481
L 2356 0
L 1766 0
Q 1100 0 847 248
Q 594 497 594 1153
L 594 3053
L 172 3053
L 172 3500
L 594 3500
L 594 4494
L 1172 4494
z
" transform="scale(0.015625)"/>
      <path id="DejaVuSans-49" d="M 628 4666
L 1259 4666
L 1259 0
L 628 0
L 628 4666
z
" transform="scale(0.015625)"/>
      <path id="DejaVuSans-44" d="M 1259 4147
L 1259 519
L 2022 519
Q 2988 519 3436 956
Q 3884 1394 3884 2338
Q 3884 3275 3436 3711
Q 2988 4147 2022 4147
L 1259 4147
z
M 628 4666
L 1925 4666
Q 3281 4666 3915 4102
Q 4550 3538 4550 2338
Q 4550 1131 3912 565
Q 3275 0 1925 0
L 628 0
L 628 4666
z
" transform="scale(0.015625)"/>
      <path id="DejaVuSans-2c" d="M 750 794
L 1409 794
L 1409 256
L 897 -744
L 494 -744
L 750 256
L 750 794
z
" transform="scale(0.015625)"/>
     </defs>
     <use xlink:href="#DejaVuSans-4e"/>
     <use xlink:href="#DejaVuSans-6f" transform="translate(74.804688 0)"/>
     <use xlink:href="#DejaVuSans-20" transform="translate(135.986328 0)"/>
     <use xlink:href="#DejaVuSans-65" transform="translate(167.773438 0)"/>
     <use xlink:href="#DejaVuSans-76" transform="translate(229.296875 0)"/>
     <use xlink:href="#DejaVuSans-65" transform="translate(288.476562 0)"/>
     <use xlink:href="#DejaVuSans-6e" transform="translate(350 0)"/>
     <use xlink:href="#DejaVuSans-74" transform="translate(413.378906 0)"/>
     <use xlink:href="#DejaVuSans-20" transform="translate(452.587891 0)"/>
     <use xlink:href="#DejaVuSans-49" transform="translate(484.375 0)"/>
     <use xlink:href="#DejaVuSans-44" transform="translate(513.867188 0)"/>
     <use xlink:href="#DejaVuSans-2c" transform="translate(590.869141 0)"/>
    </g>
    <!-- day/month, or geometry -->
    <g style="fill: #5c6670" transform="translate(40.181472 315.0144) scale(0.082 -0.082)">
     <defs>
      <path id="DejaVuSans-64" d="M 2906 2969
L 2906 4863
L 3481 4863
L 3481 0
L 2906 0
L 2906 525
Q 2725 213 2448 61
Q 2172 -91 1784 -91
Q 1150 -91 751 415
Q 353 922 353 1747
Q 353 2572 751 3078
Q 1150 3584 1784 3584
Q 2172 3584 2448 3432
Q 2725 3281 2906 2969
z
M 947 1747
Q 947 1113 1208 752
Q 1469 391 1925 391
Q 2381 391 2643 752
Q 2906 1113 2906 1747
Q 2906 2381 2643 2742
Q 2381 3103 1925 3103
Q 1469 3103 1208 2742
Q 947 2381 947 1747
z
" transform="scale(0.015625)"/>
      <path id="DejaVuSans-61" d="M 2194 1759
Q 1497 1759 1228 1600
Q 959 1441 959 1056
Q 959 750 1161 570
Q 1363 391 1709 391
Q 2188 391 2477 730
Q 2766 1069 2766 1631
L 2766 1759
L 2194 1759
z
M 3341 1997
L 3341 0
L 2766 0
L 2766 531
Q 2569 213 2275 61
Q 1981 -91 1556 -91
Q 1019 -91 701 211
Q 384 513 384 1019
Q 384 1609 779 1909
Q 1175 2209 1959 2209
L 2766 2209
L 2766 2266
Q 2766 2663 2505 2880
Q 2244 3097 1772 3097
Q 1472 3097 1187 3025
Q 903 2953 641 2809
L 641 3341
Q 956 3463 1253 3523
Q 1550 3584 1831 3584
Q 2591 3584 2966 3190
Q 3341 2797 3341 1997
z
" transform="scale(0.015625)"/>
      <path id="DejaVuSans-79" d="M 2059 -325
Q 1816 -950 1584 -1140
Q 1353 -1331 966 -1331
L 506 -1331
L 506 -850
L 844 -850
Q 1081 -850 1212 -737
Q 1344 -625 1503 -206
L 1606 56
L 191 3500
L 800 3500
L 1894 763
L 2988 3500
L 3597 3500
L 2059 -325
z
" transform="scale(0.015625)"/>
      <path id="DejaVuSans-2f" d="M 1625 4666
L 2156 4666
L 531 -594
L 0 -594
L 1625 4666
z
" transform="scale(0.015625)"/>
      <path id="DejaVuSans-6d" d="M 3328 2828
Q 3544 3216 3844 3400
Q 4144 3584 4550 3584
Q 5097 3584 5394 3201
Q 5691 2819 5691 2113
L 5691 0
L 5113 0
L 5113 2094
Q 5113 2597 4934 2840
Q 4756 3084 4391 3084
Q 3944 3084 3684 2787
Q 3425 2491 3425 1978
L 3425 0
L 2847 0
L 2847 2094
Q 2847 2600 2669 2842
Q 2491 3084 2119 3084
Q 1678 3084 1418 2786
Q 1159 2488 1159 1978
L 1159 0
L 581 0
L 581 3500
L 1159 3500
L 1159 2956
Q 1356 3278 1631 3431
Q 1906 3584 2284 3584
Q 2666 3584 2933 3390
Q 3200 3197 3328 2828
z
" transform="scale(0.015625)"/>
      <path id="DejaVuSans-68" d="M 3513 2113
L 3513 0
L 2938 0
L 2938 2094
Q 2938 2591 2744 2837
Q 2550 3084 2163 3084
Q 1697 3084 1428 2787
Q 1159 2491 1159 1978
L 1159 0
L 581 0
L 581 4863
L 1159 4863
L 1159 2956
Q 1366 3272 1645 3428
Q 1925 3584 2291 3584
Q 2894 3584 3203 3211
Q 3513 2838 3513 2113
z
" transform="scale(0.015625)"/>
      <path id="DejaVuSans-72" d="M 2631 2963
Q 2534 3019 2420 3045
Q 2306 3072 2169 3072
Q 1681 3072 1420 2755
Q 1159 2438 1159 1844
L 1159 0
L 581 0
L 581 3500
L 1159 3500
L 1159 2956
Q 1341 3275 1631 3429
Q 1922 3584 2338 3584
Q 2397 3584 2469 3576
Q 2541 3569 2628 3553
L 2631 2963
z
" transform="scale(0.015625)"/>
      <path id="DejaVuSans-67" d="M 2906 1791
Q 2906 2416 2648 2759
Q 2391 3103 1925 3103
Q 1463 3103 1205 2759
Q 947 2416 947 1791
Q 947 1169 1205 825
Q 1463 481 1925 481
Q 2391 481 2648 825
Q 2906 1169 2906 1791
z
M 3481 434
Q 3481 -459 3084 -895
Q 2688 -1331 1869 -1331
Q 1566 -1331 1297 -1286
Q 1028 -1241 775 -1147
L 775 -588
Q 1028 -725 1275 -790
Q 1522 -856 1778 -856
Q 2344 -856 2625 -561
Q 2906 -266 2906 331
L 2906 616
Q 2728 306 2450 153
Q 2172 0 1784 0
Q 1141 0 747 490
Q 353 981 353 1791
Q 353 2603 747 3093
Q 1141 3584 1784 3584
Q 2172 3584 2450 3431
Q 2728 3278 2906 2969
L 2906 3500
L 3481 3500
L 3481 434
z
" transform="scale(0.015625)"/>
     </defs>
     <use xlink:href="#DejaVuSans-64"/>
     <use xlink:href="#DejaVuSans-61" transform="translate(63.476562 0)"/>
     <use xlink:href="#DejaVuSans-79" transform="translate(124.755859 0)"/>
     <use xlink:href="#DejaVuSans-2f" transform="translate(183.935547 0)"/>
     <use xlink:href="#DejaVuSans-6d" transform="translate(217.626953 0)"/>
     <use xlink:href="#DejaVuSans-6f" transform="translate(315.039062 0)"/>
     <use xlink:href="#DejaVuSans-6e" transform="translate(376.220703 0)"/>
     <use xlink:href="#DejaVuSans-74" transform="translate(439.599609 0)"/>
     <use xlink:href="#DejaVuSans-68" transform="translate(478.808594 0)"/>
     <use xlink:href="#DejaVuSans-2c" transform="translate(542.1875 0)"/>
     <use xlink:href="#DejaVuSans-20" transform="translate(573.974609 0)"/>
     <use xlink:href="#DejaVuSans-6f" transform="translate(605.761719 0)"/>
     <use xlink:href="#DejaVuSans-72" transform="translate(666.943359 0)"/>
     <use xlink:href="#DejaVuSans-20" transform="translate(708.056641 0)"/>
     <use xlink:href="#DejaVuSans-67" transform="translate(739.84375 0)"/>
     <use xlink:href="#DejaVuSans-65" transform="translate(803.320312 0)"/>
     <use xlink:href="#DejaVuSans-6f" transform="translate(864.84375 0)"/>
     <use xlink:href="#DejaVuSans-6d" transform="translate(926.025391 0)"/>
     <use xlink:href="#DejaVuSans-65" transform="translate(1023.4375 0)"/>
     <use xlink:href="#DejaVuSans-74" transform="translate(1084.960938 0)"/>
     <use xlink:href="#DejaVuSans-72" transform="translate(1124.169922 0)"/>
     <use xlink:href="#DejaVuSans-79" transform="translate(1165.283203 0)"/>
    </g>
   </g>
   <g id="patch_10">
    <path d="M 191.900215 243.1296
Q 198.218171 243.1296 202.30006 243.1296
" style="fill: none; stroke: #d9dee2; stroke-width: 2; stroke-linecap: round"/>
    <path d="M 198.30006 241.1296
L 202.30006 243.1296
L 198.30006 245.1296
" style="fill: none; stroke: #d9dee2; stroke-width: 2; stroke-linecap: round"/>
   </g>
   <g id="text_5">
    <!-- STEP 2 -->
    <g style="fill: #b07d12" transform="translate(225.436752 201.6576) scale(0.085 -0.085)">
     <defs>
      <path id="DejaVuSans-Bold-32" d="M 1844 884
L 3897 884
L 3897 0
L 506 0
L 506 884
L 2209 2388
Q 2438 2594 2547 2791
Q 2656 2988 2656 3200
Q 2656 3528 2436 3728
Q 2216 3928 1850 3928
Q 1569 3928 1234 3808
Q 900 3688 519 3450
L 519 4475
Q 925 4609 1322 4679
Q 1719 4750 2100 4750
Q 2938 4750 3402 4381
Q 3866 4013 3866 3353
Q 3866 2972 3669 2642
Q 3472 2313 2841 1759
L 1844 884
z
" transform="scale(0.015625)"/>
     </defs>
     <use xlink:href="#DejaVuSans-Bold-53"/>
     <use xlink:href="#DejaVuSans-Bold-54" transform="translate(72.021484 0)"/>
     <use xlink:href="#DejaVuSans-Bold-45" transform="translate(140.234375 0)"/>
     <use xlink:href="#DejaVuSans-Bold-50" transform="translate(208.544922 0)"/>
     <use xlink:href="#DejaVuSans-Bold-20" transform="translate(281.835938 0)"/>
     <use xlink:href="#DejaVuSans-Bold-32" transform="translate(316.650391 0)"/>
    </g>
   </g>
   <g id="text_6">
    <!-- GDIS event geography -->
    <g style="fill: #20262e" transform="translate(225.436752 229.3056) scale(0.11 -0.11)">
     <defs>
      <path id="DejaVuSans-Bold-47" d="M 4781 347
Q 4331 128 3847 18
Q 3363 -91 2847 -91
Q 1681 -91 1000 561
Q 319 1213 319 2328
Q 319 3456 1012 4103
Q 1706 4750 2913 4750
Q 3378 4750 3804 4662
Q 4231 4575 4609 4403
L 4609 3438
Q 4219 3659 3833 3768
Q 3447 3878 3059 3878
Q 2341 3878 1952 3476
Q 1563 3075 1563 2328
Q 1563 1588 1938 1184
Q 2313 781 3003 781
Q 3191 781 3352 804
Q 3513 828 3641 878
L 3641 1784
L 2906 1784
L 2906 2591
L 4781 2591
L 4781 347
z
" transform="scale(0.015625)"/>
      <path id="DejaVuSans-Bold-49" d="M 588 4666
L 1791 4666
L 1791 0
L 588 0
L 588 4666
z
" transform="scale(0.015625)"/>
      <path id="DejaVuSans-Bold-76" d="M 97 3500
L 1216 3500
L 2088 1081
L 2956 3500
L 4078 3500
L 2700 0
L 1472 0
L 97 3500
z
" transform="scale(0.015625)"/>
      <path id="DejaVuSans-Bold-68" d="M 4056 2131
L 4056 0
L 2931 0
L 2931 347
L 2931 1625
Q 2931 2084 2911 2256
Q 2891 2428 2841 2509
Q 2775 2619 2662 2680
Q 2550 2741 2406 2741
Q 2056 2741 1856 2470
Q 1656 2200 1656 1722
L 1656 0
L 538 0
L 538 4863
L 1656 4863
L 1656 2988
Q 1909 3294 2193 3439
Q 2478 3584 2822 3584
Q 3428 3584 3742 3212
Q 4056 2841 4056 2131
z
" transform="scale(0.015625)"/>
     </defs>
     <use xlink:href="#DejaVuSans-Bold-47"/>
     <use xlink:href="#DejaVuSans-Bold-44" transform="translate(82.080078 0)"/>
     <use xlink:href="#DejaVuSans-Bold-49" transform="translate(165.087891 0)"/>
     <use xlink:href="#DejaVuSans-Bold-53" transform="translate(202.294922 0)"/>
     <use xlink:href="#DejaVuSans-Bold-20" transform="translate(274.316406 0)"/>
     <use xlink:href="#DejaVuSans-Bold-65" transform="translate(309.130859 0)"/>
     <use xlink:href="#DejaVuSans-Bold-76" transform="translate(376.953125 0)"/>
     <use xlink:href="#DejaVuSans-Bold-65" transform="translate(442.138672 0)"/>
     <use xlink:href="#DejaVuSans-Bold-6e" transform="translate(509.960938 0)"/>
     <use xlink:href="#DejaVuSans-Bold-74" transform="translate(581.152344 0)"/>
     <use xlink:href="#DejaVuSans-Bold-20" transform="translate(628.955078 0)"/>
     <use xlink:href="#DejaVuSans-Bold-67" transform="translate(663.769531 0)"/>
     <use xlink:href="#DejaVuSans-Bold-65" transform="translate(735.351562 0)"/>
     <use xlink:href="#DejaVuSans-Bold-6f" transform="translate(803.173828 0)"/>
     <use xlink:href="#DejaVuSans-Bold-67" transform="translate(871.875 0)"/>
     <use xlink:href="#DejaVuSans-Bold-72" transform="translate(943.457031 0)"/>
     <use xlink:href="#DejaVuSans-Bold-61" transform="translate(992.773438 0)"/>
     <use xlink:href="#DejaVuSans-Bold-70" transform="translate(1060.253906 0)"/>
     <use xlink:href="#DejaVuSans-Bold-68" transform="translate(1131.835938 0)"/>
     <use xlink:href="#DejaVuSans-Bold-79" transform="translate(1203.027344 0)"/>
    </g>
   </g>
   <g id="text_7">
    <!-- 609 event IDs -->
    <g style="fill: #b07d12" transform="translate(225.436752 270.7776) scale(0.14 -0.14)">
     <defs>
      <path id="DejaVuSans-Bold-30" d="M 2944 2338
Q 2944 3213 2780 3570
Q 2616 3928 2228 3928
Q 1841 3928 1675 3570
Q 1509 3213 1509 2338
Q 1509 1453 1675 1090
Q 1841 728 2228 728
Q 2613 728 2778 1090
Q 2944 1453 2944 2338
z
M 4147 2328
Q 4147 1169 3647 539
Q 3147 -91 2228 -91
Q 1306 -91 806 539
Q 306 1169 306 2328
Q 306 3491 806 4120
Q 1306 4750 2228 4750
Q 3147 4750 3647 4120
Q 4147 3491 4147 2328
z
" transform="scale(0.015625)"/>
      <path id="DejaVuSans-Bold-39" d="M 641 103
L 641 966
Q 928 831 1190 764
Q 1453 697 1709 697
Q 2247 697 2547 995
Q 2847 1294 2900 1881
Q 2688 1725 2447 1647
Q 2206 1569 1925 1569
Q 1209 1569 770 1986
Q 331 2403 331 3084
Q 331 3838 820 4291
Q 1309 4744 2131 4744
Q 3044 4744 3544 4128
Q 4044 3513 4044 2388
Q 4044 1231 3459 570
Q 2875 -91 1856 -91
Q 1528 -91 1228 -42
Q 928 6 641 103
z
M 2125 2350
Q 2441 2350 2600 2554
Q 2759 2759 2759 3169
Q 2759 3575 2600 3781
Q 2441 3988 2125 3988
Q 1809 3988 1650 3781
Q 1491 3575 1491 3169
Q 1491 2759 1650 2554
Q 1809 2350 2125 2350
z
" transform="scale(0.015625)"/>
     </defs>
     <use xlink:href="#DejaVuSans-Bold-36"/>
     <use xlink:href="#DejaVuSans-Bold-30" transform="translate(69.580078 0)"/>
     <use xlink:href="#DejaVuSans-Bold-39" transform="translate(139.160156 0)"/>
     <use xlink:href="#DejaVuSans-Bold-20" transform="translate(208.740234 0)"/>
     <use xlink:href="#DejaVuSans-Bold-65" transform="translate(243.554688 0)"/>
     <use xlink:href="#DejaVuSans-Bold-76" transform="translate(311.376953 0)"/>
     <use xlink:href="#DejaVuSans-Bold-65" transform="translate(376.5625 0)"/>
     <use xlink:href="#DejaVuSans-Bold-6e" transform="translate(444.384766 0)"/>
     <use xlink:href="#DejaVuSans-Bold-74" transform="translate(515.576172 0)"/>
     <use xlink:href="#DejaVuSans-Bold-20" transform="translate(563.378906 0)"/>
     <use xlink:href="#DejaVuSans-Bold-49" transform="translate(598.193359 0)"/>
     <use xlink:href="#DejaVuSans-Bold-44" transform="translate(635.400391 0)"/>
     <use xlink:href="#DejaVuSans-Bold-73" transform="translate(718.408203 0)"/>
    </g>
   </g>
   <g id="text_8">
    <!-- 27 economies overlap VIIRS -->
    <g style="fill: #5c6670" transform="translate(225.436752 304.897586) scale(0.082 -0.082)">
     <defs>
      <path id="DejaVuSans-32" d="M 1228 531
L 3431 531
L 3431 0
L 469 0
L 469 531
Q 828 903 1448 1529
Q 2069 2156 2228 2338
Q 2531 2678 2651 2914
Q 2772 3150 2772 3378
Q 2772 3750 2511 3984
Q 2250 4219 1831 4219
Q 1534 4219 1204 4116
Q 875 4013 500 3803
L 500 4441
Q 881 4594 1212 4672
Q 1544 4750 1819 4750
Q 2544 4750 2975 4387
Q 3406 4025 3406 3419
Q 3406 3131 3298 2873
Q 3191 2616 2906 2266
Q 2828 2175 2409 1742
Q 1991 1309 1228 531
z
" transform="scale(0.015625)"/>
      <path id="DejaVuSans-37" d="M 525 4666
L 3525 4666
L 3525 4397
L 1831 0
L 1172 0
L 2766 4134
L 525 4134
L 525 4666
z
" transform="scale(0.015625)"/>
      <path id="DejaVuSans-63" d="M 3122 3366
L 3122 2828
Q 2878 2963 2633 3030
Q 2388 3097 2138 3097
Q 1578 3097 1268 2742
Q 959 2388 959 1747
Q 959 1106 1268 751
Q 1578 397 2138 397
Q 2388 397 2633 464
Q 2878 531 3122 666
L 3122 134
Q 2881 22 2623 -34
Q 2366 -91 2075 -91
Q 1284 -91 818 406
Q 353 903 353 1747
Q 353 2603 823 3093
Q 1294 3584 2113 3584
Q 2378 3584 2631 3529
Q 2884 3475 3122 3366
z
" transform="scale(0.015625)"/>
      <path id="DejaVuSans-69" d="M 603 3500
L 1178 3500
L 1178 0
L 603 0
L 603 3500
z
M 603 4863
L 1178 4863
L 1178 4134
L 603 4134
L 603 4863
z
" transform="scale(0.015625)"/>
      <path id="DejaVuSans-73" d="M 2834 3397
L 2834 2853
Q 2591 2978 2328 3040
Q 2066 3103 1784 3103
Q 1356 3103 1142 2972
Q 928 2841 928 2578
Q 928 2378 1081 2264
Q 1234 2150 1697 2047
L 1894 2003
Q 2506 1872 2764 1633
Q 3022 1394 3022 966
Q 3022 478 2636 193
Q 2250 -91 1575 -91
Q 1294 -91 989 -36
Q 684 19 347 128
L 347 722
Q 666 556 975 473
Q 1284 391 1588 391
Q 1994 391 2212 530
Q 2431 669 2431 922
Q 2431 1156 2273 1281
Q 2116 1406 1581 1522
L 1381 1569
Q 847 1681 609 1914
Q 372 2147 372 2553
Q 372 3047 722 3315
Q 1072 3584 1716 3584
Q 2034 3584 2315 3537
Q 2597 3491 2834 3397
z
" transform="scale(0.015625)"/>
      <path id="DejaVuSans-6c" d="M 603 4863
L 1178 4863
L 1178 0
L 603 0
L 603 4863
z
" transform="scale(0.015625)"/>
      <path id="DejaVuSans-70" d="M 1159 525
L 1159 -1331
L 581 -1331
L 581 3500
L 1159 3500
L 1159 2969
Q 1341 3281 1617 3432
Q 1894 3584 2278 3584
Q 2916 3584 3314 3078
Q 3713 2572 3713 1747
Q 3713 922 3314 415
Q 2916 -91 2278 -91
Q 1894 -91 1617 61
Q 1341 213 1159 525
z
M 3116 1747
Q 3116 2381 2855 2742
Q 2594 3103 2138 3103
Q 1681 3103 1420 2742
Q 1159 2381 1159 1747
Q 1159 1113 1420 752
Q 1681 391 2138 391
Q 2594 391 2855 752
Q 3116 1113 3116 1747
z
" transform="scale(0.015625)"/>
      <path id="DejaVuSans-56" d="M 1831 0
L 50 4666
L 709 4666
L 2188 738
L 3669 4666
L 4325 4666
L 2547 0
L 1831 0
z
" transform="scale(0.015625)"/>
      <path id="DejaVuSans-52" d="M 2841 2188
Q 3044 2119 3236 1894
Q 3428 1669 3622 1275
L 4263 0
L 3584 0
L 2988 1197
Q 2756 1666 2539 1819
Q 2322 1972 1947 1972
L 1259 1972
L 1259 0
L 628 0
L 628 4666
L 2053 4666
Q 2853 4666 3247 4331
Q 3641 3997 3641 3322
Q 3641 2881 3436 2590
Q 3231 2300 2841 2188
z
M 1259 4147
L 1259 2491
L 2053 2491
Q 2509 2491 2742 2702
Q 2975 2913 2975 3322
Q 2975 3731 2742 3939
Q 2509 4147 2053 4147
L 1259 4147
z
" transform="scale(0.015625)"/>
      <path id="DejaVuSans-53" d="M 3425 4513
L 3425 3897
Q 3066 4069 2747 4153
Q 2428 4238 2131 4238
Q 1616 4238 1336 4038
Q 1056 3838 1056 3469
Q 1056 3159 1242 3001
Q 1428 2844 1947 2747
L 2328 2669
Q 3034 2534 3370 2195
Q 3706 1856 3706 1288
Q 3706 609 3251 259
Q 2797 -91 1919 -91
Q 1588 -91 1214 -16
Q 841 59 441 206
L 441 856
Q 825 641 1194 531
Q 1563 422 1919 422
Q 2459 422 2753 634
Q 3047 847 3047 1241
Q 3047 1584 2836 1778
Q 2625 1972 2144 2069
L 1759 2144
Q 1053 2284 737 2584
Q 422 2884 422 3419
Q 422 4038 858 4394
Q 1294 4750 2059 4750
Q 2388 4750 2728 4690
Q 3069 4631 3425 4513
z
" transform="scale(0.015625)"/>
     </defs>
     <use xlink:href="#DejaVuSans-32"/>
     <use xlink:href="#DejaVuSans-37" transform="translate(63.623047 0)"/>
     <use xlink:href="#DejaVuSans-20" transform="translate(127.246094 0)"/>
     <use xlink:href="#DejaVuSans-65" transform="translate(159.033203 0)"/>
     <use xlink:href="#DejaVuSans-63" transform="translate(220.556641 0)"/>
     <use xlink:href="#DejaVuSans-6f" transform="translate(275.537109 0)"/>
     <use xlink:href="#DejaVuSans-6e" transform="translate(336.71875 0)"/>
     <use xlink:href="#DejaVuSans-6f" transform="translate(400.097656 0)"/>
     <use xlink:href="#DejaVuSans-6d" transform="translate(461.279297 0)"/>
     <use xlink:href="#DejaVuSans-69" transform="translate(558.691406 0)"/>
     <use xlink:href="#DejaVuSans-65" transform="translate(586.474609 0)"/>
     <use xlink:href="#DejaVuSans-73" transform="translate(647.998047 0)"/>
     <use xlink:href="#DejaVuSans-20" transform="translate(700.097656 0)"/>
     <use xlink:href="#DejaVuSans-6f" transform="translate(731.884766 0)"/>
     <use xlink:href="#DejaVuSans-76" transform="translate(793.066406 0)"/>
     <use xlink:href="#DejaVuSans-65" transform="translate(852.246094 0)"/>
     <use xlink:href="#DejaVuSans-72" transform="translate(913.769531 0)"/>
     <use xlink:href="#DejaVuSans-6c" transform="translate(954.882812 0)"/>
     <use xlink:href="#DejaVuSans-61" transform="translate(982.666016 0)"/>
     <use xlink:href="#DejaVuSans-70" transform="translate(1043.945312 0)"/>
     <use xlink:href="#DejaVuSans-20" transform="translate(1107.421875 0)"/>
     <use xlink:href="#DejaVuSans-56" transform="translate(1139.208984 0)"/>
     <use xlink:href="#DejaVuSans-49" transform="translate(1207.617188 0)"/>
     <use xlink:href="#DejaVuSans-49" transform="translate(1237.109375 0)"/>
     <use xlink:href="#DejaVuSans-52" transform="translate(1266.601562 0)"/>
     <use xlink:href="#DejaVuSans-53" transform="translate(1336.083984 0)"/>
    </g>
    <!-- in 2012–2018 -->
    <g style="fill: #5c6670" transform="translate(225.436752 315.0144) scale(0.082 -0.082)">
     <defs>
      <path id="DejaVuSans-30" d="M 2034 4250
Q 1547 4250 1301 3770
Q 1056 3291 1056 2328
Q 1056 1369 1301 889
Q 1547 409 2034 409
Q 2525 409 2770 889
Q 3016 1369 3016 2328
Q 3016 3291 2770 3770
Q 2525 4250 2034 4250
z
M 2034 4750
Q 2819 4750 3233 4129
Q 3647 3509 3647 2328
Q 3647 1150 3233 529
Q 2819 -91 2034 -91
Q 1250 -91 836 529
Q 422 1150 422 2328
Q 422 3509 836 4129
Q 1250 4750 2034 4750
z
" transform="scale(0.015625)"/>
      <path id="DejaVuSans-31" d="M 794 531
L 1825 531
L 1825 4091
L 703 3866
L 703 4441
L 1819 4666
L 2450 4666
L 2450 531
L 3481 531
L 3481 0
L 794 0
L 794 531
z
" transform="scale(0.015625)"/>
      <path id="DejaVuSans-2013" d="M 313 1978
L 2888 1978
L 2888 1528
L 313 1528
L 313 1978
z
" transform="scale(0.015625)"/>
      <path id="DejaVuSans-38" d="M 2034 2216
Q 1584 2216 1326 1975
Q 1069 1734 1069 1313
Q 1069 891 1326 650
Q 1584 409 2034 409
Q 2484 409 2743 651
Q 3003 894 3003 1313
Q 3003 1734 2745 1975
Q 2488 2216 2034 2216
z
M 1403 2484
Q 997 2584 770 2862
Q 544 3141 544 3541
Q 544 4100 942 4425
Q 1341 4750 2034 4750
Q 2731 4750 3128 4425
Q 3525 4100 3525 3541
Q 3525 3141 3298 2862
Q 3072 2584 2669 2484
Q 3125 2378 3379 2068
Q 3634 1759 3634 1313
Q 3634 634 3220 271
Q 2806 -91 2034 -91
Q 1263 -91 848 271
Q 434 634 434 1313
Q 434 1759 690 2068
Q 947 2378 1403 2484
z
M 1172 3481
Q 1172 3119 1398 2916
Q 1625 2713 2034 2713
Q 2441 2713 2670 2916
Q 2900 3119 2900 3481
Q 2900 3844 2670 4047
Q 2441 4250 2034 4250
Q 1625 4250 1398 4047
Q 1172 3844 1172 3481
z
" transform="scale(0.015625)"/>
     </defs>
     <use xlink:href="#DejaVuSans-69"/>
     <use xlink:href="#DejaVuSans-6e" transform="translate(27.783203 0)"/>
     <use xlink:href="#DejaVuSans-20" transform="translate(91.162109 0)"/>
     <use xlink:href="#DejaVuSans-32" transform="translate(122.949219 0)"/>
     <use xlink:href="#DejaVuSans-30" transform="translate(186.572266 0)"/>
     <use xlink:href="#DejaVuSans-31" transform="translate(250.195312 0)"/>
     <use xlink:href="#DejaVuSans-32" transform="translate(313.818359 0)"/>
     <use xlink:href="#DejaVuSans-2013" transform="translate(377.441406 0)"/>
     <use xlink:href="#DejaVuSans-32" transform="translate(427.441406 0)"/>
     <use xlink:href="#DejaVuSans-30" transform="translate(491.064453 0)"/>
     <use xlink:href="#DejaVuSans-31" transform="translate(554.6875 0)"/>
     <use xlink:href="#DejaVuSans-38" transform="translate(618.310547 0)"/>
    </g>
   </g>
   <g id="patch_11">
    <path d="M 377.155495 243.1296
Q 383.473451 243.1296 387.55534 243.1296
" style="fill: none; stroke: #d9dee2; stroke-width: 2; stroke-linecap: round"/>
    <path d="M 383.55534 241.1296
L 387.55534 243.1296
L 383.55534 245.1296
" style="fill: none; stroke: #d9dee2; stroke-width: 2; stroke-linecap: round"/>
   </g>
   <g id="text_9">
    <!-- STEP 3 -->
    <g style="fill: #007db8" transform="translate(410.692032 201.6576) scale(0.085 -0.085)">
     <defs>
      <path id="DejaVuSans-Bold-33" d="M 2981 2516
Q 3453 2394 3698 2092
Q 3944 1791 3944 1325
Q 3944 631 3412 270
Q 2881 -91 1863 -91
Q 1503 -91 1142 -33
Q 781 25 428 141
L 428 1069
Q 766 900 1098 814
Q 1431 728 1753 728
Q 2231 728 2486 893
Q 2741 1059 2741 1369
Q 2741 1688 2480 1852
Q 2219 2016 1709 2016
L 1228 2016
L 1228 2791
L 1734 2791
Q 2188 2791 2409 2933
Q 2631 3075 2631 3366
Q 2631 3634 2415 3781
Q 2200 3928 1806 3928
Q 1516 3928 1219 3862
Q 922 3797 628 3669
L 628 4550
Q 984 4650 1334 4700
Q 1684 4750 2022 4750
Q 2931 4750 3382 4451
Q 3834 4153 3834 3553
Q 3834 3144 3618 2883
Q 3403 2622 2981 2516
z
" transform="scale(0.015625)"/>
     </defs>
     <use xlink:href="#DejaVuSans-Bold-53"/>
     <use xlink:href="#DejaVuSans-Bold-54" transform="translate(72.021484 0)"/>
     <use xlink:href="#DejaVuSans-Bold-45" transform="translate(140.234375 0)"/>
     <use xlink:href="#DejaVuSans-Bold-50" transform="translate(208.544922 0)"/>
     <use xlink:href="#DejaVuSans-Bold-20" transform="translate(281.835938 0)"/>
     <use xlink:href="#DejaVuSans-Bold-33" transform="translate(316.650391 0)"/>
    </g>
   </g>
   <g id="text_10">
    <!-- Light Every Night pilot -->
    <g style="fill: #20262e" transform="translate(410.692032 229.3056) scale(0.11 -0.11)">
     <defs>
      <path id="DejaVuSans-Bold-4c" d="M 588 4666
L 1791 4666
L 1791 909
L 3903 909
L 3903 0
L 588 0
L 588 4666
z
" transform="scale(0.015625)"/>
      <path id="DejaVuSans-Bold-4e" d="M 588 4666
L 1931 4666
L 3628 1466
L 3628 4666
L 4769 4666
L 4769 0
L 3425 0
L 1728 3200
L 1728 0
L 588 0
L 588 4666
z
" transform="scale(0.015625)"/>
     </defs>
     <use xlink:href="#DejaVuSans-Bold-4c"/>
     <use xlink:href="#DejaVuSans-Bold-69" transform="translate(63.720703 0)"/>
     <use xlink:href="#DejaVuSans-Bold-67" transform="translate(97.998047 0)"/>
     <use xlink:href="#DejaVuSans-Bold-68" transform="translate(169.580078 0)"/>
     <use xlink:href="#DejaVuSans-Bold-74" transform="translate(240.771484 0)"/>
     <use xlink:href="#DejaVuSans-Bold-20" transform="translate(288.574219 0)"/>
     <use xlink:href="#DejaVuSans-Bold-45" transform="translate(323.388672 0)"/>
     <use xlink:href="#DejaVuSans-Bold-76" transform="translate(391.699219 0)"/>
     <use xlink:href="#DejaVuSans-Bold-65" transform="translate(456.884766 0)"/>
     <use xlink:href="#DejaVuSans-Bold-72" transform="translate(524.707031 0)"/>
     <use xlink:href="#DejaVuSans-Bold-79" transform="translate(574.023438 0)"/>
     <use xlink:href="#DejaVuSans-Bold-20" transform="translate(639.208984 0)"/>
     <use xlink:href="#DejaVuSans-Bold-4e" transform="translate(674.023438 0)"/>
     <use xlink:href="#DejaVuSans-Bold-69" transform="translate(757.714844 0)"/>
     <use xlink:href="#DejaVuSans-Bold-67" transform="translate(791.992188 0)"/>
     <use xlink:href="#DejaVuSans-Bold-68" transform="translate(863.574219 0)"/>
     <use xlink:href="#DejaVuSans-Bold-74" transform="translate(934.765625 0)"/>
     <use xlink:href="#DejaVuSans-Bold-20" transform="translate(982.568359 0)"/>
     <use xlink:href="#DejaVuSans-Bold-70" transform="translate(1017.382812 0)"/>
     <use xlink:href="#DejaVuSans-Bold-69" transform="translate(1088.964844 0)"/>
     <use xlink:href="#DejaVuSans-Bold-6c" transform="translate(1123.242188 0)"/>
     <use xlink:href="#DejaVuSans-Bold-6f" transform="translate(1157.519531 0)"/>
     <use xlink:href="#DejaVuSans-Bold-74" transform="translate(1226.220703 0)"/>
    </g>
   </g>
   <g id="text_11">
    <!-- 108 scheduled orbits -->
    <g style="fill: #007db8" transform="translate(410.692032 270.7776) scale(0.14 -0.14)">
     <defs>
      <path id="DejaVuSans-Bold-38" d="M 2228 2088
Q 1891 2088 1709 1903
Q 1528 1719 1528 1375
Q 1528 1031 1709 848
Q 1891 666 2228 666
Q 2563 666 2741 848
Q 2919 1031 2919 1375
Q 2919 1722 2741 1905
Q 2563 2088 2228 2088
z
M 1350 2484
Q 925 2613 709 2878
Q 494 3144 494 3541
Q 494 4131 934 4440
Q 1375 4750 2228 4750
Q 3075 4750 3515 4442
Q 3956 4134 3956 3541
Q 3956 3144 3739 2878
Q 3522 2613 3097 2484
Q 3572 2353 3814 2058
Q 4056 1763 4056 1313
Q 4056 619 3595 264
Q 3134 -91 2228 -91
Q 1319 -91 855 264
Q 391 619 391 1313
Q 391 1763 633 2058
Q 875 2353 1350 2484
z
M 1631 3419
Q 1631 3141 1786 2991
Q 1941 2841 2228 2841
Q 2509 2841 2662 2991
Q 2816 3141 2816 3419
Q 2816 3697 2662 3845
Q 2509 3994 2228 3994
Q 1941 3994 1786 3844
Q 1631 3694 1631 3419
z
" transform="scale(0.015625)"/>
      <path id="DejaVuSans-Bold-64" d="M 2919 2988
L 2919 4863
L 4044 4863
L 4044 0
L 2919 0
L 2919 506
Q 2688 197 2409 53
Q 2131 -91 1766 -91
Q 1119 -91 703 423
Q 288 938 288 1747
Q 288 2556 703 3070
Q 1119 3584 1766 3584
Q 2128 3584 2408 3439
Q 2688 3294 2919 2988
z
M 2181 722
Q 2541 722 2730 984
Q 2919 1247 2919 1747
Q 2919 2247 2730 2509
Q 2541 2772 2181 2772
Q 1825 2772 1636 2509
Q 1447 2247 1447 1747
Q 1447 1247 1636 984
Q 1825 722 2181 722
z
" transform="scale(0.015625)"/>
      <path id="DejaVuSans-Bold-62" d="M 2400 722
Q 2759 722 2948 984
Q 3138 1247 3138 1747
Q 3138 2247 2948 2509
Q 2759 2772 2400 2772
Q 2041 2772 1848 2508
Q 1656 2244 1656 1747
Q 1656 1250 1848 986
Q 2041 722 2400 722
z
M 1656 2988
Q 1888 3294 2169 3439
Q 2450 3584 2816 3584
Q 3463 3584 3878 3070
Q 4294 2556 4294 1747
Q 4294 938 3878 423
Q 3463 -91 2816 -91
Q 2450 -91 2169 54
Q 1888 200 1656 506
L 1656 0
L 538 0
L 538 4863
L 1656 4863
L 1656 2988
z
" transform="scale(0.015625)"/>
     </defs>
     <use xlink:href="#DejaVuSans-Bold-31"/>
     <use xlink:href="#DejaVuSans-Bold-30" transform="translate(69.580078 0)"/>
     <use xlink:href="#DejaVuSans-Bold-38" transform="translate(139.160156 0)"/>
     <use xlink:href="#DejaVuSans-Bold-20" transform="translate(208.740234 0)"/>
     <use xlink:href="#DejaVuSans-Bold-73" transform="translate(243.554688 0)"/>
     <use xlink:href="#DejaVuSans-Bold-63" transform="translate(303.076172 0)"/>
     <use xlink:href="#DejaVuSans-Bold-68" transform="translate(362.353516 0)"/>
     <use xlink:href="#DejaVuSans-Bold-65" transform="translate(433.544922 0)"/>
     <use xlink:href="#DejaVuSans-Bold-64" transform="translate(501.367188 0)"/>
     <use xlink:href="#DejaVuSans-Bold-75" transform="translate(572.949219 0)"/>
     <use xlink:href="#DejaVuSans-Bold-6c" transform="translate(644.140625 0)"/>
     <use xlink:href="#DejaVuSans-Bold-65" transform="translate(678.417969 0)"/>
     <use xlink:href="#DejaVuSans-Bold-64" transform="translate(746.240234 0)"/>
     <use xlink:href="#DejaVuSans-Bold-20" transform="translate(817.822266 0)"/>
     <use xlink:href="#DejaVuSans-Bold-6f" transform="translate(852.636719 0)"/>
     <use xlink:href="#DejaVuSans-Bold-72" transform="translate(921.337891 0)"/>
     <use xlink:href="#DejaVuSans-Bold-62" transform="translate(970.654297 0)"/>
     <use xlink:href="#DejaVuSans-Bold-69" transform="translate(1042.236328 0)"/>
     <use xlink:href="#DejaVuSans-Bold-74" transform="translate(1076.513672 0)"/>
     <use xlink:href="#DejaVuSans-Bold-73" transform="translate(1124.316406 0)"/>
    </g>
   </g>
   <g id="text_12">
    <!-- Public COG windows + flags -->
    <g style="fill: #5c6670" transform="translate(410.692032 304.897586) scale(0.082 -0.082)">
     <defs>
      <path id="DejaVuSans-50" d="M 1259 4147
L 1259 2394
L 2053 2394
Q 2494 2394 2734 2622
Q 2975 2850 2975 3272
Q 2975 3691 2734 3919
Q 2494 4147 2053 4147
L 1259 4147
z
M 628 4666
L 2053 4666
Q 2838 4666 3239 4311
Q 3641 3956 3641 3272
Q 3641 2581 3239 2228
Q 2838 1875 2053 1875
L 1259 1875
L 1259 0
L 628 0
L 628 4666
z
" transform="scale(0.015625)"/>
      <path id="DejaVuSans-75" d="M 544 1381
L 544 3500
L 1119 3500
L 1119 1403
Q 1119 906 1312 657
Q 1506 409 1894 409
Q 2359 409 2629 706
Q 2900 1003 2900 1516
L 2900 3500
L 3475 3500
L 3475 0
L 2900 0
L 2900 538
Q 2691 219 2414 64
Q 2138 -91 1772 -91
Q 1169 -91 856 284
Q 544 659 544 1381
z
M 1991 3584
L 1991 3584
z
" transform="scale(0.015625)"/>
      <path id="DejaVuSans-62" d="M 3116 1747
Q 3116 2381 2855 2742
Q 2594 3103 2138 3103
Q 1681 3103 1420 2742
Q 1159 2381 1159 1747
Q 1159 1113 1420 752
Q 1681 391 2138 391
Q 2594 391 2855 752
Q 3116 1113 3116 1747
z
M 1159 2969
Q 1341 3281 1617 3432
Q 1894 3584 2278 3584
Q 2916 3584 3314 3078
Q 3713 2572 3713 1747
Q 3713 922 3314 415
Q 2916 -91 2278 -91
Q 1894 -91 1617 61
Q 1341 213 1159 525
L 1159 0
L 581 0
L 581 4863
L 1159 4863
L 1159 2969
z
" transform="scale(0.015625)"/>
      <path id="DejaVuSans-43" d="M 4122 4306
L 4122 3641
Q 3803 3938 3442 4084
Q 3081 4231 2675 4231
Q 1875 4231 1450 3742
Q 1025 3253 1025 2328
Q 1025 1406 1450 917
Q 1875 428 2675 428
Q 3081 428 3442 575
Q 3803 722 4122 1019
L 4122 359
Q 3791 134 3420 21
Q 3050 -91 2638 -91
Q 1578 -91 968 557
Q 359 1206 359 2328
Q 359 3453 968 4101
Q 1578 4750 2638 4750
Q 3056 4750 3426 4639
Q 3797 4528 4122 4306
z
" transform="scale(0.015625)"/>
      <path id="DejaVuSans-4f" d="M 2522 4238
Q 1834 4238 1429 3725
Q 1025 3213 1025 2328
Q 1025 1447 1429 934
Q 1834 422 2522 422
Q 3209 422 3611 934
Q 4013 1447 4013 2328
Q 4013 3213 3611 3725
Q 3209 4238 2522 4238
z
M 2522 4750
Q 3503 4750 4090 4092
Q 4678 3434 4678 2328
Q 4678 1225 4090 567
Q 3503 -91 2522 -91
Q 1538 -91 948 565
Q 359 1222 359 2328
Q 359 3434 948 4092
Q 1538 4750 2522 4750
z
" transform="scale(0.015625)"/>
      <path id="DejaVuSans-47" d="M 3809 666
L 3809 1919
L 2778 1919
L 2778 2438
L 4434 2438
L 4434 434
Q 4069 175 3628 42
Q 3188 -91 2688 -91
Q 1594 -91 976 548
Q 359 1188 359 2328
Q 359 3472 976 4111
Q 1594 4750 2688 4750
Q 3144 4750 3555 4637
Q 3966 4525 4313 4306
L 4313 3634
Q 3963 3931 3569 4081
Q 3175 4231 2741 4231
Q 1884 4231 1454 3753
Q 1025 3275 1025 2328
Q 1025 1384 1454 906
Q 1884 428 2741 428
Q 3075 428 3337 486
Q 3600 544 3809 666
z
" transform="scale(0.015625)"/>
      <path id="DejaVuSans-77" d="M 269 3500
L 844 3500
L 1563 769
L 2278 3500
L 2956 3500
L 3675 769
L 4391 3500
L 4966 3500
L 4050 0
L 3372 0
L 2619 2869
L 1863 0
L 1184 0
L 269 3500
z
" transform="scale(0.015625)"/>
      <path id="DejaVuSans-2b" d="M 2944 4013
L 2944 2272
L 4684 2272
L 4684 1741
L 2944 1741
L 2944 0
L 2419 0
L 2419 1741
L 678 1741
L 678 2272
L 2419 2272
L 2419 4013
L 2944 4013
z
" transform="scale(0.015625)"/>
      <path id="DejaVuSans-66" d="M 2375 4863
L 2375 4384
L 1825 4384
Q 1516 4384 1395 4259
Q 1275 4134 1275 3809
L 1275 3500
L 2222 3500
L 2222 3053
L 1275 3053
L 1275 0
L 697 0
L 697 3053
L 147 3053
L 147 3500
L 697 3500
L 697 3744
Q 697 4328 969 4595
Q 1241 4863 1831 4863
L 2375 4863
z
" transform="scale(0.015625)"/>
     </defs>
     <use xlink:href="#DejaVuSans-50"/>
     <use xlink:href="#DejaVuSans-75" transform="translate(58.552734 0)"/>
     <use xlink:href="#DejaVuSans-62" transform="translate(121.931641 0)"/>
     <use xlink:href="#DejaVuSans-6c" transform="translate(185.408203 0)"/>
     <use xlink:href="#DejaVuSans-69" transform="translate(213.191406 0)"/>
     <use xlink:href="#DejaVuSans-63" transform="translate(240.974609 0)"/>
     <use xlink:href="#DejaVuSans-20" transform="translate(295.955078 0)"/>
     <use xlink:href="#DejaVuSans-43" transform="translate(327.742188 0)"/>
     <use xlink:href="#DejaVuSans-4f" transform="translate(397.566406 0)"/>
     <use xlink:href="#DejaVuSans-47" transform="translate(476.277344 0)"/>
     <use xlink:href="#DejaVuSans-20" transform="translate(553.767578 0)"/>
     <use xlink:href="#DejaVuSans-77" transform="translate(585.554688 0)"/>
     <use xlink:href="#DejaVuSans-69" transform="translate(667.341797 0)"/>
     <use xlink:href="#DejaVuSans-6e" transform="translate(695.125 0)"/>
     <use xlink:href="#DejaVuSans-64" transform="translate(758.503906 0)"/>
     <use xlink:href="#DejaVuSans-6f" transform="translate(821.980469 0)"/>
     <use xlink:href="#DejaVuSans-77" transform="translate(883.162109 0)"/>
     <use xlink:href="#DejaVuSans-73" transform="translate(964.949219 0)"/>
     <use xlink:href="#DejaVuSans-20" transform="translate(1017.048828 0)"/>
     <use xlink:href="#DejaVuSans-2b" transform="translate(1048.835938 0)"/>
     <use xlink:href="#DejaVuSans-20" transform="translate(1132.625 0)"/>
     <use xlink:href="#DejaVuSans-66" transform="translate(1164.412109 0)"/>
     <use xlink:href="#DejaVuSans-6c" transform="translate(1199.617188 0)"/>
     <use xlink:href="#DejaVuSans-61" transform="translate(1227.400391 0)"/>
     <use xlink:href="#DejaVuSans-67" transform="translate(1288.679688 0)"/>
     <use xlink:href="#DejaVuSans-73" transform="translate(1352.15625 0)"/>
    </g>
    <!-- without credentials -->
    <g style="fill: #5c6670" transform="translate(410.692032 315.0144) scale(0.082 -0.082)">
     <use xlink:href="#DejaVuSans-77"/>
     <use xlink:href="#DejaVuSans-69" transform="translate(81.787109 0)"/>
     <use xlink:href="#DejaVuSans-74" transform="translate(109.570312 0)"/>
     <use xlink:href="#DejaVuSans-68" transform="translate(148.779297 0)"/>
     <use xlink:href="#DejaVuSans-6f" transform="translate(212.158203 0)"/>
     <use xlink:href="#DejaVuSans-75" transform="translate(273.339844 0)"/>
     <use xlink:href="#DejaVuSans-74" transform="translate(336.71875 0)"/>
     <use xlink:href="#DejaVuSans-20" transform="translate(375.927734 0)"/>
     <use xlink:href="#DejaVuSans-63" transform="translate(407.714844 0)"/>
     <use xlink:href="#DejaVuSans-72" transform="translate(462.695312 0)"/>
     <use xlink:href="#DejaVuSans-65" transform="translate(501.558594 0)"/>
     <use xlink:href="#DejaVuSans-64" transform="translate(563.082031 0)"/>
     <use xlink:href="#DejaVuSans-65" transform="translate(626.558594 0)"/>
     <use xlink:href="#DejaVuSans-6e" transform="translate(688.082031 0)"/>
     <use xlink:href="#DejaVuSans-74" transform="translate(751.460938 0)"/>
     <use xlink:href="#DejaVuSans-69" transform="translate(790.669922 0)"/>
     <use xlink:href="#DejaVuSans-61" transform="translate(818.453125 0)"/>
     <use xlink:href="#DejaVuSans-6c" transform="translate(879.732422 0)"/>
     <use xlink:href="#DejaVuSans-73" transform="translate(907.515625 0)"/>
    </g>
   </g>
   <g id="patch_12">
    <path d="M 562.410775 243.1296
Q 568.728731 243.1296 572.81062 243.1296
" style="fill: none; stroke: #d9dee2; stroke-width: 2; stroke-linecap: round"/>
    <path d="M 568.81062 241.1296
L 572.81062 243.1296
L 568.81062 245.1296
" style="fill: none; stroke: #d9dee2; stroke-width: 2; stroke-linecap: round"/>
   </g>
   <g id="text_13">
    <!-- STEP 4 -->
    <g style="fill: #002569" transform="translate(595.947312 201.6576) scale(0.085 -0.085)">
     <defs>
      <path id="DejaVuSans-Bold-34" d="M 2356 3675
L 1038 1722
L 2356 1722
L 2356 3675
z
M 2156 4666
L 3494 4666
L 3494 1722
L 4159 1722
L 4159 850
L 3494 850
L 3494 0
L 2356 0
L 2356 850
L 288 850
L 288 1881
L 2156 4666
z
" transform="scale(0.015625)"/>
     </defs>
     <use xlink:href="#DejaVuSans-Bold-53"/>
     <use xlink:href="#DejaVuSans-Bold-54" transform="translate(72.021484 0)"/>
     <use xlink:href="#DejaVuSans-Bold-45" transform="translate(140.234375 0)"/>
     <use xlink:href="#DejaVuSans-Bold-50" transform="translate(208.544922 0)"/>
     <use xlink:href="#DejaVuSans-Bold-20" transform="translate(281.835938 0)"/>
     <use xlink:href="#DejaVuSans-Bold-34" transform="translate(316.650391 0)"/>
    </g>
   </g>
   <g id="text_14">
    <!-- Recovery construct -->
    <g style="fill: #20262e" transform="translate(595.947312 229.3056) scale(0.11 -0.11)">
     <defs>
      <path id="DejaVuSans-Bold-52" d="M 2297 2597
Q 2675 2597 2839 2737
Q 3003 2878 3003 3200
Q 3003 3519 2839 3656
Q 2675 3794 2297 3794
L 1791 3794
L 1791 2597
L 2297 2597
z
M 1791 1766
L 1791 0
L 588 0
L 588 4666
L 2425 4666
Q 3347 4666 3776 4356
Q 4206 4047 4206 3378
Q 4206 2916 3982 2619
Q 3759 2322 3309 2181
Q 3556 2125 3751 1926
Q 3947 1728 4147 1325
L 4800 0
L 3519 0
L 2950 1159
Q 2778 1509 2601 1637
Q 2425 1766 2131 1766
L 1791 1766
z
" transform="scale(0.015625)"/>
     </defs>
     <use xlink:href="#DejaVuSans-Bold-52"/>
     <use xlink:href="#DejaVuSans-Bold-65" transform="translate(77.001953 0)"/>
     <use xlink:href="#DejaVuSans-Bold-63" transform="translate(144.824219 0)"/>
     <use xlink:href="#DejaVuSans-Bold-6f" transform="translate(204.101562 0)"/>
     <use xlink:href="#DejaVuSans-Bold-76" transform="translate(272.802734 0)"/>
     <use xlink:href="#DejaVuSans-Bold-65" transform="translate(337.988281 0)"/>
     <use xlink:href="#DejaVuSans-Bold-72" transform="translate(405.810547 0)"/>
     <use xlink:href="#DejaVuSans-Bold-79" transform="translate(455.126953 0)"/>
     <use xlink:href="#DejaVuSans-Bold-20" transform="translate(520.3125 0)"/>
     <use xlink:href="#DejaVuSans-Bold-63" transform="translate(555.126953 0)"/>
     <use xlink:href="#DejaVuSans-Bold-6f" transform="translate(614.404297 0)"/>
     <use xlink:href="#DejaVuSans-Bold-6e" transform="translate(683.105469 0)"/>
     <use xlink:href="#DejaVuSans-Bold-73" transform="translate(754.296875 0)"/>
     <use xlink:href="#DejaVuSans-Bold-74" transform="translate(813.818359 0)"/>
     <use xlink:href="#DejaVuSans-Bold-72" transform="translate(861.621094 0)"/>
     <use xlink:href="#DejaVuSans-Bold-75" transform="translate(910.9375 0)"/>
     <use xlink:href="#DejaVuSans-Bold-63" transform="translate(982.128906 0)"/>
     <use xlink:href="#DejaVuSans-Bold-74" transform="translate(1041.40625 0)"/>
    </g>
   </g>
   <g id="text_15">
    <!-- Not validated -->
    <g style="fill: #002569" transform="translate(595.947312 270.7776) scale(0.14 -0.14)">
     <use xlink:href="#DejaVuSans-Bold-4e"/>
     <use xlink:href="#DejaVuSans-Bold-6f" transform="translate(83.691406 0)"/>
     <use xlink:href="#DejaVuSans-Bold-74" transform="translate(152.392578 0)"/>
     <use xlink:href="#DejaVuSans-Bold-20" transform="translate(200.195312 0)"/>
     <use xlink:href="#DejaVuSans-Bold-76" transform="translate(235.009766 0)"/>
     <use xlink:href="#DejaVuSans-Bold-61" transform="translate(300.195312 0)"/>
     <use xlink:href="#DejaVuSans-Bold-6c" transform="translate(367.675781 0)"/>
     <use xlink:href="#DejaVuSans-Bold-69" transform="translate(401.953125 0)"/>
     <use xlink:href="#DejaVuSans-Bold-64" transform="translate(436.230469 0)"/>
     <use xlink:href="#DejaVuSans-Bold-61" transform="translate(507.8125 0)"/>
     <use xlink:href="#DejaVuSans-Bold-74" transform="translate(575.292969 0)"/>
     <use xlink:href="#DejaVuSans-Bold-65" transform="translate(623.095703 0)"/>
     <use xlink:href="#DejaVuSans-Bold-64" transform="translate(690.917969 0)"/>
    </g>
   </g>
   <g id="text_16">
    <!-- 0 of 7 centroids stable -->
    <g style="fill: #5c6670" transform="translate(595.947312 304.897586) scale(0.082 -0.082)">
     <use xlink:href="#DejaVuSans-30"/>
     <use xlink:href="#DejaVuSans-20" transform="translate(63.623047 0)"/>
     <use xlink:href="#DejaVuSans-6f" transform="translate(95.410156 0)"/>
     <use xlink:href="#DejaVuSans-66" transform="translate(156.591797 0)"/>
     <use xlink:href="#DejaVuSans-20" transform="translate(191.796875 0)"/>
     <use xlink:href="#DejaVuSans-37" transform="translate(223.583984 0)"/>
     <use xlink:href="#DejaVuSans-20" transform="translate(287.207031 0)"/>
     <use xlink:href="#DejaVuSans-63" transform="translate(318.994141 0)"/>
     <use xlink:href="#DejaVuSans-65" transform="translate(373.974609 0)"/>
     <use xlink:href="#DejaVuSans-6e" transform="translate(435.498047 0)"/>
     <use xlink:href="#DejaVuSans-74" transform="translate(498.876953 0)"/>
     <use xlink:href="#DejaVuSans-72" transform="translate(538.085938 0)"/>
     <use xlink:href="#DejaVuSans-6f" transform="translate(576.949219 0)"/>
     <use xlink:href="#DejaVuSans-69" transform="translate(638.130859 0)"/>
     <use xlink:href="#DejaVuSans-64" transform="translate(665.914062 0)"/>
     <use xlink:href="#DejaVuSans-73" transform="translate(729.390625 0)"/>
     <use xlink:href="#DejaVuSans-20" transform="translate(781.490234 0)"/>
     <use xlink:href="#DejaVuSans-73" transform="translate(813.277344 0)"/>
     <use xlink:href="#DejaVuSans-74" transform="translate(865.376953 0)"/>
     <use xlink:href="#DejaVuSans-61" transform="translate(904.585938 0)"/>
     <use xlink:href="#DejaVuSans-62" transform="translate(965.865234 0)"/>
     <use xlink:href="#DejaVuSans-6c" transform="translate(1029.341797 0)"/>
     <use xlink:href="#DejaVuSans-65" transform="translate(1057.125 0)"/>
    </g>
    <!-- across all variants -->
    <g style="fill: #5c6670" transform="translate(595.947312 315.0144) scale(0.082 -0.082)">
     <use xlink:href="#DejaVuSans-61"/>
     <use xlink:href="#DejaVuSans-63" transform="translate(61.279297 0)"/>
     <use xlink:href="#DejaVuSans-72" transform="translate(116.259766 0)"/>
     <use xlink:href="#DejaVuSans-6f" transform="translate(155.123047 0)"/>
     <use xlink:href="#DejaVuSans-73" transform="translate(216.304688 0)"/>
     <use xlink:href="#DejaVuSans-73" transform="translate(268.404297 0)"/>
     <use xlink:href="#DejaVuSans-20" transform="translate(320.503906 0)"/>
     <use xlink:href="#DejaVuSans-61" transform="translate(352.291016 0)"/>
     <use xlink:href="#DejaVuSans-6c" transform="translate(413.570312 0)"/>
     <use xlink:href="#DejaVuSans-6c" transform="translate(441.353516 0)"/>
     <use xlink:href="#DejaVuSans-20" transform="translate(469.136719 0)"/>
     <use xlink:href="#DejaVuSans-76" transform="translate(500.923828 0)"/>
     <use xlink:href="#DejaVuSans-61" transform="translate(560.103516 0)"/>
     <use xlink:href="#DejaVuSans-72" transform="translate(621.382812 0)"/>
     <use xlink:href="#DejaVuSans-69" transform="translate(662.496094 0)"/>
     <use xlink:href="#DejaVuSans-61" transform="translate(690.279297 0)"/>
     <use xlink:href="#DejaVuSans-6e" transform="translate(751.558594 0)"/>
     <use xlink:href="#DejaVuSans-74" transform="translate(814.9375 0)"/>
     <use xlink:href="#DejaVuSans-73" transform="translate(854.146484 0)"/>
    </g>
   </g>
  </g>
  <g id="text_17">
   <!-- The data bridge is open; the measurement bridge is not -->
   <g style="fill: #20262e" transform="translate(7.2 20.877187) scale(0.18 -0.18)">
    <defs>
     <path id="DejaVuSans-Bold-3b" d="M 716 1209
L 1844 1209
L 1844 256
L 1069 -909
L 403 -909
L 716 256
L 716 1209
z
M 716 3500
L 1844 3500
L 1844 2291
L 716 2291
L 716 3500
z
" transform="scale(0.015625)"/>
     <path id="DejaVuSans-Bold-6d" d="M 3781 2919
Q 3994 3244 4286 3414
Q 4578 3584 4928 3584
Q 5531 3584 5847 3212
Q 6163 2841 6163 2131
L 6163 0
L 5038 0
L 5038 1825
Q 5041 1866 5042 1909
Q 5044 1953 5044 2034
Q 5044 2406 4934 2573
Q 4825 2741 4581 2741
Q 4263 2741 4089 2478
Q 3916 2216 3909 1719
L 3909 0
L 2784 0
L 2784 1825
Q 2784 2406 2684 2573
Q 2584 2741 2328 2741
Q 2006 2741 1831 2477
Q 1656 2213 1656 1722
L 1656 0
L 531 0
L 531 3500
L 1656 3500
L 1656 2988
Q 1863 3284 2130 3434
Q 2397 3584 2719 3584
Q 3081 3584 3359 3409
Q 3638 3234 3781 2919
z
" transform="scale(0.015625)"/>
    </defs>
    <use xlink:href="#DejaVuSans-Bold-54"/>
    <use xlink:href="#DejaVuSans-Bold-68" transform="translate(68.212891 0)"/>
    <use xlink:href="#DejaVuSans-Bold-65" transform="translate(139.404297 0)"/>
    <use xlink:href="#DejaVuSans-Bold-20" transform="translate(207.226562 0)"/>
    <use xlink:href="#DejaVuSans-Bold-64" transform="translate(242.041016 0)"/>
    <use xlink:href="#DejaVuSans-Bold-61" transform="translate(313.623047 0)"/>
    <use xlink:href="#DejaVuSans-Bold-74" transform="translate(381.103516 0)"/>
    <use xlink:href="#DejaVuSans-Bold-61" transform="translate(428.90625 0)"/>
    <use xlink:href="#DejaVuSans-Bold-20" transform="translate(496.386719 0)"/>
    <use xlink:href="#DejaVuSans-Bold-62" transform="translate(531.201172 0)"/>
    <use xlink:href="#DejaVuSans-Bold-72" transform="translate(602.783203 0)"/>
    <use xlink:href="#DejaVuSans-Bold-69" transform="translate(652.099609 0)"/>
    <use xlink:href="#DejaVuSans-Bold-64" transform="translate(686.376953 0)"/>
    <use xlink:href="#DejaVuSans-Bold-67" transform="translate(757.958984 0)"/>
    <use xlink:href="#DejaVuSans-Bold-65" transform="translate(829.541016 0)"/>
    <use xlink:href="#DejaVuSans-Bold-20" transform="translate(897.363281 0)"/>
    <use xlink:href="#DejaVuSans-Bold-69" transform="translate(932.177734 0)"/>
    <use xlink:href="#DejaVuSans-Bold-73" transform="translate(966.455078 0)"/>
    <use xlink:href="#DejaVuSans-Bold-20" transform="translate(1025.976562 0)"/>
    <use xlink:href="#DejaVuSans-Bold-6f" transform="translate(1060.791016 0)"/>
    <use xlink:href="#DejaVuSans-Bold-70" transform="translate(1129.492188 0)"/>
    <use xlink:href="#DejaVuSans-Bold-65" transform="translate(1201.074219 0)"/>
    <use xlink:href="#DejaVuSans-Bold-6e" transform="translate(1268.896484 0)"/>
    <use xlink:href="#DejaVuSans-Bold-3b" transform="translate(1340.087891 0)"/>
    <use xlink:href="#DejaVuSans-Bold-20" transform="translate(1380.078125 0)"/>
    <use xlink:href="#DejaVuSans-Bold-74" transform="translate(1414.892578 0)"/>
    <use xlink:href="#DejaVuSans-Bold-68" transform="translate(1462.695312 0)"/>
    <use xlink:href="#DejaVuSans-Bold-65" transform="translate(1533.886719 0)"/>
    <use xlink:href="#DejaVuSans-Bold-20" transform="translate(1601.708984 0)"/>
    <use xlink:href="#DejaVuSans-Bold-6d" transform="translate(1636.523438 0)"/>
    <use xlink:href="#DejaVuSans-Bold-65" transform="translate(1740.722656 0)"/>
    <use xlink:href="#DejaVuSans-Bold-61" transform="translate(1808.544922 0)"/>
    <use xlink:href="#DejaVuSans-Bold-73" transform="translate(1876.025391 0)"/>
    <use xlink:href="#DejaVuSans-Bold-75" transform="translate(1935.546875 0)"/>
    <use xlink:href="#DejaVuSans-Bold-72" transform="translate(2006.738281 0)"/>
    <use xlink:href="#DejaVuSans-Bold-65" transform="translate(2056.054688 0)"/>
    <use xlink:href="#DejaVuSans-Bold-6d" transform="translate(2123.876953 0)"/>
    <use xlink:href="#DejaVuSans-Bold-65" transform="translate(2228.076172 0)"/>
    <use xlink:href="#DejaVuSans-Bold-6e" transform="translate(2295.898438 0)"/>
    <use xlink:href="#DejaVuSans-Bold-74" transform="translate(2367.089844 0)"/>
    <use xlink:href="#DejaVuSans-Bold-20" transform="translate(2414.892578 0)"/>
    <use xlink:href="#DejaVuSans-Bold-62" transform="translate(2449.707031 0)"/>
    <use xlink:href="#DejaVuSans-Bold-72" transform="translate(2521.289062 0)"/>
    <use xlink:href="#DejaVuSans-Bold-69" transform="translate(2570.605469 0)"/>
    <use xlink:href="#DejaVuSans-Bold-64" transform="translate(2604.882812 0)"/>
    <use xlink:href="#DejaVuSans-Bold-67" transform="translate(2676.464844 0)"/>
    <use xlink:href="#DejaVuSans-Bold-65" transform="translate(2748.046875 0)"/>
    <use xlink:href="#DejaVuSans-Bold-20" transform="translate(2815.869141 0)"/>
    <use xlink:href="#DejaVuSans-Bold-69" transform="translate(2850.683594 0)"/>
    <use xlink:href="#DejaVuSans-Bold-73" transform="translate(2884.960938 0)"/>
    <use xlink:href="#DejaVuSans-Bold-20" transform="translate(2944.482422 0)"/>
    <use xlink:href="#DejaVuSans-Bold-6e" transform="translate(2979.296875 0)"/>
    <use xlink:href="#DejaVuSans-Bold-6f" transform="translate(3050.488281 0)"/>
    <use xlink:href="#DejaVuSans-Bold-74" transform="translate(3119.189453 0)"/>
   </g>
  </g>
  <g id="text_18">
   <!-- Access was solved without credentials. Event timing, footprint meaning, clear-sky coverage, and result stability remain the binding constraints. -->
   <g style="fill: #5c6670" transform="translate(7.2 55.584) scale(0.102 -0.102)">
    <defs>
     <path id="DejaVuSans-41" d="M 2188 4044
L 1331 1722
L 3047 1722
L 2188 4044
z
M 1831 4666
L 2547 4666
L 4325 0
L 3669 0
L 3244 1197
L 1141 1197
L 716 0
L 50 0
L 1831 4666
z
" transform="scale(0.015625)"/>
     <path id="DejaVuSans-2e" d="M 684 794
L 1344 794
L 1344 0
L 684 0
L 684 794
z
" transform="scale(0.015625)"/>
     <path id="DejaVuSans-45" d="M 628 4666
L 3578 4666
L 3578 4134
L 1259 4134
L 1259 2753
L 3481 2753
L 3481 2222
L 1259 2222
L 1259 531
L 3634 531
L 3634 0
L 628 0
L 628 4666
z
" transform="scale(0.015625)"/>
     <path id="DejaVuSans-2d" d="M 313 2009
L 1997 2009
L 1997 1497
L 313 1497
L 313 2009
z
" transform="scale(0.015625)"/>
     <path id="DejaVuSans-6b" d="M 581 4863
L 1159 4863
L 1159 1991
L 2875 3500
L 3609 3500
L 1753 1863
L 3688 0
L 2938 0
L 1159 1709
L 1159 0
L 581 0
L 581 4863
z
" transform="scale(0.015625)"/>
    </defs>
    <use xlink:href="#DejaVuSans-41"/>
    <use xlink:href="#DejaVuSans-63" transform="translate(66.658203 0)"/>
    <use xlink:href="#DejaVuSans-63" transform="translate(121.638672 0)"/>
    <use xlink:href="#DejaVuSans-65" transform="translate(176.619141 0)"/>
    <use xlink:href="#DejaVuSans-73" transform="translate(238.142578 0)"/>
    <use xlink:href="#DejaVuSans-73" transform="translate(290.242188 0)"/>
    <use xlink:href="#DejaVuSans-20" transform="translate(342.341797 0)"/>
    <use xlink:href="#DejaVuSans-77" transform="translate(374.128906 0)"/>
    <use xlink:href="#DejaVuSans-61" transform="translate(455.916016 0)"/>
    <use xlink:href="#DejaVuSans-73" transform="translate(517.195312 0)"/>
    <use xlink:href="#DejaVuSans-20" transform="translate(569.294922 0)"/>
    <use xlink:href="#DejaVuSans-73" transform="translate(601.082031 0)"/>
    <use xlink:href="#DejaVuSans-6f" transform="translate(653.181641 0)"/>
    <use xlink:href="#DejaVuSans-6c" transform="translate(714.363281 0)"/>
    <use xlink:href="#DejaVuSans-76" transform="translate(742.146484 0)"/>
    <use xlink:href="#DejaVuSans-65" transform="translate(801.326172 0)"/>
    <use xlink:href="#DejaVuSans-64" transform="translate(862.849609 0)"/>
    <use xlink:href="#DejaVuSans-20" transform="translate(926.326172 0)"/>
    <use xlink:href="#DejaVuSans-77" transform="translate(958.113281 0)"/>
    <use xlink:href="#DejaVuSans-69" transform="translate(1039.900391 0)"/>
    <use xlink:href="#DejaVuSans-74" transform="translate(1067.683594 0)"/>
    <use xlink:href="#DejaVuSans-68" transform="translate(1106.892578 0)"/>
    <use xlink:href="#DejaVuSans-6f" transform="translate(1170.271484 0)"/>
    <use xlink:href="#DejaVuSans-75" transform="translate(1231.453125 0)"/>
    <use xlink:href="#DejaVuSans-74" transform="translate(1294.832031 0)"/>
    <use xlink:href="#DejaVuSans-20" transform="translate(1334.041016 0)"/>
    <use xlink:href="#DejaVuSans-63" transform="translate(1365.828125 0)"/>
    <use xlink:href="#DejaVuSans-72" transform="translate(1420.808594 0)"/>
    <use xlink:href="#DejaVuSans-65" transform="translate(1459.671875 0)"/>
    <use xlink:href="#DejaVuSans-64" transform="translate(1521.195312 0)"/>
    <use xlink:href="#DejaVuSans-65" transform="translate(1584.671875 0)"/>
    <use xlink:href="#DejaVuSans-6e" transform="translate(1646.195312 0)"/>
    <use xlink:href="#DejaVuSans-74" transform="translate(1709.574219 0)"/>
    <use xlink:href="#DejaVuSans-69" transform="translate(1748.783203 0)"/>
    <use xlink:href="#DejaVuSans-61" transform="translate(1776.566406 0)"/>
    <use xlink:href="#DejaVuSans-6c" transform="translate(1837.845703 0)"/>
    <use xlink:href="#DejaVuSans-73" transform="translate(1865.628906 0)"/>
    <use xlink:href="#DejaVuSans-2e" transform="translate(1917.728516 0)"/>
    <use xlink:href="#DejaVuSans-20" transform="translate(1949.515625 0)"/>
    <use xlink:href="#DejaVuSans-45" transform="translate(1981.302734 0)"/>
    <use xlink:href="#DejaVuSans-76" transform="translate(2044.486328 0)"/>
    <use xlink:href="#DejaVuSans-65" transform="translate(2103.666016 0)"/>
    <use xlink:href="#DejaVuSans-6e" transform="translate(2165.189453 0)"/>
    <use xlink:href="#DejaVuSans-74" transform="translate(2228.568359 0)"/>
    <use xlink:href="#DejaVuSans-20" transform="translate(2267.777344 0)"/>
    <use xlink:href="#DejaVuSans-74" transform="translate(2299.564453 0)"/>
    <use xlink:href="#DejaVuSans-69" transform="translate(2338.773438 0)"/>
    <use xlink:href="#DejaVuSans-6d" transform="translate(2366.556641 0)"/>
    <use xlink:href="#DejaVuSans-69" transform="translate(2463.96875 0)"/>
    <use xlink:href="#DejaVuSans-6e" transform="translate(2491.751953 0)"/>
    <use xlink:href="#DejaVuSans-67" transform="translate(2555.130859 0)"/>
    <use xlink:href="#DejaVuSans-2c" transform="translate(2618.607422 0)"/>
    <use xlink:href="#DejaVuSans-20" transform="translate(2650.394531 0)"/>
    <use xlink:href="#DejaVuSans-66" transform="translate(2682.181641 0)"/>
    <use xlink:href="#DejaVuSans-6f" transform="translate(2717.386719 0)"/>
    <use xlink:href="#DejaVuSans-6f" transform="translate(2778.568359 0)"/>
    <use xlink:href="#DejaVuSans-74" transform="translate(2839.75 0)"/>
    <use xlink:href="#DejaVuSans-70" transform="translate(2878.958984 0)"/>
    <use xlink:href="#DejaVuSans-72" transform="translate(2942.435547 0)"/>
    <use xlink:href="#DejaVuSans-69" transform="translate(2983.548828 0)"/>
    <use xlink:href="#DejaVuSans-6e" transform="translate(3011.332031 0)"/>
    <use xlink:href="#DejaVuSans-74" transform="translate(3074.710938 0)"/>
    <use xlink:href="#DejaVuSans-20" transform="translate(3113.919922 0)"/>
    <use xlink:href="#DejaVuSans-6d" transform="translate(3145.707031 0)"/>
    <use xlink:href="#DejaVuSans-65" transform="translate(3243.119141 0)"/>
    <use xlink:href="#DejaVuSans-61" transform="translate(3304.642578 0)"/>
    <use xlink:href="#DejaVuSans-6e" transform="translate(3365.921875 0)"/>
    <use xlink:href="#DejaVuSans-69" transform="translate(3429.300781 0)"/>
    <use xlink:href="#DejaVuSans-6e" transform="translate(3457.083984 0)"/>
    <use xlink:href="#DejaVuSans-67" transform="translate(3520.462891 0)"/>
    <use xlink:href="#DejaVuSans-2c" transform="translate(3583.939453 0)"/>
    <use xlink:href="#DejaVuSans-20" transform="translate(3615.726562 0)"/>
    <use xlink:href="#DejaVuSans-63" transform="translate(3647.513672 0)"/>
    <use xlink:href="#DejaVuSans-6c" transform="translate(3702.494141 0)"/>
    <use xlink:href="#DejaVuSans-65" transform="translate(3730.277344 0)"/>
    <use xlink:href="#DejaVuSans-61" transform="translate(3791.800781 0)"/>
    <use xlink:href="#DejaVuSans-72" transform="translate(3853.080078 0)"/>
    <use xlink:href="#DejaVuSans-2d" transform="translate(3887.818359 0)"/>
    <use xlink:href="#DejaVuSans-73" transform="translate(3923.902344 0)"/>
    <use xlink:href="#DejaVuSans-6b" transform="translate(3976.001953 0)"/>
    <use xlink:href="#DejaVuSans-79" transform="translate(4030.287109 0)"/>
    <use xlink:href="#DejaVuSans-20" transform="translate(4089.466797 0)"/>
    <use xlink:href="#DejaVuSans-63" transform="translate(4121.253906 0)"/>
    <use xlink:href="#DejaVuSans-6f" transform="translate(4176.234375 0)"/>
    <use xlink:href="#DejaVuSans-76" transform="translate(4237.416016 0)"/>
    <use xlink:href="#DejaVuSans-65" transform="translate(4296.595703 0)"/>
    <use xlink:href="#DejaVuSans-72" transform="translate(4358.119141 0)"/>
    <use xlink:href="#DejaVuSans-61" transform="translate(4399.232422 0)"/>
    <use xlink:href="#DejaVuSans-67" transform="translate(4460.511719 0)"/>
    <use xlink:href="#DejaVuSans-65" transform="translate(4523.988281 0)"/>
    <use xlink:href="#DejaVuSans-2c" transform="translate(4585.511719 0)"/>
    <use xlink:href="#DejaVuSans-20" transform="translate(4617.298828 0)"/>
    <use xlink:href="#DejaVuSans-61" transform="translate(4649.085938 0)"/>
    <use xlink:href="#DejaVuSans-6e" transform="translate(4710.365234 0)"/>
    <use xlink:href="#DejaVuSans-64" transform="translate(4773.744141 0)"/>
    <use xlink:href="#DejaVuSans-20" transform="translate(4837.220703 0)"/>
    <use xlink:href="#DejaVuSans-72" transform="translate(4869.007812 0)"/>
    <use xlink:href="#DejaVuSans-65" transform="translate(4907.871094 0)"/>
    <use xlink:href="#DejaVuSans-73" transform="translate(4969.394531 0)"/>
    <use xlink:href="#DejaVuSans-75" transform="translate(5021.494141 0)"/>
    <use xlink:href="#DejaVuSans-6c" transform="translate(5084.873047 0)"/>
    <use xlink:href="#DejaVuSans-74" transform="translate(5112.65625 0)"/>
    <use xlink:href="#DejaVuSans-20" transform="translate(5151.865234 0)"/>
    <use xlink:href="#DejaVuSans-73" transform="translate(5183.652344 0)"/>
    <use xlink:href="#DejaVuSans-74" transform="translate(5235.751953 0)"/>
    <use xlink:href="#DejaVuSans-61" transform="translate(5274.960938 0)"/>
    <use xlink:href="#DejaVuSans-62" transform="translate(5336.240234 0)"/>
    <use xlink:href="#DejaVuSans-69" transform="translate(5399.716797 0)"/>
    <use xlink:href="#DejaVuSans-6c" transform="translate(5427.5 0)"/>
    <use xlink:href="#DejaVuSans-69" transform="translate(5455.283203 0)"/>
    <use xlink:href="#DejaVuSans-74" transform="translate(5483.066406 0)"/>
    <use xlink:href="#DejaVuSans-79" transform="translate(5522.275391 0)"/>
    <use xlink:href="#DejaVuSans-20" transform="translate(5581.455078 0)"/>
    <use xlink:href="#DejaVuSans-72" transform="translate(5613.242188 0)"/>
    <use xlink:href="#DejaVuSans-65" transform="translate(5652.105469 0)"/>
    <use xlink:href="#DejaVuSans-6d" transform="translate(5713.628906 0)"/>
    <use xlink:href="#DejaVuSans-61" transform="translate(5811.041016 0)"/>
    <use xlink:href="#DejaVuSans-69" transform="translate(5872.320312 0)"/>
    <use xlink:href="#DejaVuSans-6e" transform="translate(5900.103516 0)"/>
    <use xlink:href="#DejaVuSans-20" transform="translate(5963.482422 0)"/>
    <use xlink:href="#DejaVuSans-74" transform="translate(5995.269531 0)"/>
    <use xlink:href="#DejaVuSans-68" transform="translate(6034.478516 0)"/>
    <use xlink:href="#DejaVuSans-65" transform="translate(6097.857422 0)"/>
    <use xlink:href="#DejaVuSans-20" transform="translate(6159.380859 0)"/>
    <use xlink:href="#DejaVuSans-62" transform="translate(6191.167969 0)"/>
    <use xlink:href="#DejaVuSans-69" transform="translate(6254.644531 0)"/>
    <use xlink:href="#DejaVuSans-6e" transform="translate(6282.427734 0)"/>
    <use xlink:href="#DejaVuSans-64" transform="translate(6345.806641 0)"/>
    <use xlink:href="#DejaVuSans-69" transform="translate(6409.283203 0)"/>
    <use xlink:href="#DejaVuSans-6e" transform="translate(6437.066406 0)"/>
    <use xlink:href="#DejaVuSans-67" transform="translate(6500.445312 0)"/>
    <use xlink:href="#DejaVuSans-20" transform="translate(6563.921875 0)"/>
    <use xlink:href="#DejaVuSans-63" transform="translate(6595.708984 0)"/>
    <use xlink:href="#DejaVuSans-6f" transform="translate(6650.689453 0)"/>
    <use xlink:href="#DejaVuSans-6e" transform="translate(6711.871094 0)"/>
    <use xlink:href="#DejaVuSans-73" transform="translate(6775.25 0)"/>
    <use xlink:href="#DejaVuSans-74" transform="translate(6827.349609 0)"/>
    <use xlink:href="#DejaVuSans-72" transform="translate(6866.558594 0)"/>
    <use xlink:href="#DejaVuSans-61" transform="translate(6907.671875 0)"/>
    <use xlink:href="#DejaVuSans-69" transform="translate(6968.951172 0)"/>
    <use xlink:href="#DejaVuSans-6e" transform="translate(6996.734375 0)"/>
    <use xlink:href="#DejaVuSans-74" transform="translate(7060.113281 0)"/>
    <use xlink:href="#DejaVuSans-73" transform="translate(7099.322266 0)"/>
    <use xlink:href="#DejaVuSans-2e" transform="translate(7151.421875 0)"/>
   </g>
  </g>
  <g id="text_19">
   <!-- Sources: disaster-recovery-lag-recovery-source-readiness.json and disaster-recovery-haiyan-construct-validation.json; GDIS and World Bank Light Every Night. attestation_chain: ai-first. -->
   <g style="fill: #5c6670" transform="translate(7.2 436.397531) scale(0.07 -0.07)">
    <defs>
     <path id="DejaVuSans-3a" d="M 750 794
L 1409 794
L 1409 0
L 750 0
L 750 794
z
M 750 3309
L 1409 3309
L 1409 2516
L 750 2516
L 750 3309
z
" transform="scale(0.015625)"/>
     <path id="DejaVuSans-6a" d="M 603 3500
L 1178 3500
L 1178 -63
Q 1178 -731 923 -1031
Q 669 -1331 103 -1331
L -116 -1331
L -116 -844
L 38 -844
Q 366 -844 484 -692
Q 603 -541 603 -63
L 603 3500
z
M 603 4863
L 1178 4863
L 1178 4134
L 603 4134
L 603 4863
z
" transform="scale(0.015625)"/>
     <path id="DejaVuSans-3b" d="M 750 3309
L 1409 3309
L 1409 2516
L 750 2516
L 750 3309
z
M 750 794
L 1409 794
L 1409 256
L 897 -744
L 494 -744
L 750 256
L 750 794
z
" transform="scale(0.015625)"/>
     <path id="DejaVuSans-57" d="M 213 4666
L 850 4666
L 1831 722
L 2809 4666
L 3519 4666
L 4500 722
L 5478 4666
L 6119 4666
L 4947 0
L 4153 0
L 3169 4050
L 2175 0
L 1381 0
L 213 4666
z
" transform="scale(0.015625)"/>
     <path id="DejaVuSans-42" d="M 1259 2228
L 1259 519
L 2272 519
Q 2781 519 3026 730
Q 3272 941 3272 1375
Q 3272 1813 3026 2020
Q 2781 2228 2272 2228
L 1259 2228
z
M 1259 4147
L 1259 2741
L 2194 2741
Q 2656 2741 2882 2914
Q 3109 3088 3109 3444
Q 3109 3797 2882 3972
Q 2656 4147 2194 4147
L 1259 4147
z
M 628 4666
L 2241 4666
Q 2963 4666 3353 4366
Q 3744 4066 3744 3513
Q 3744 3084 3544 2831
Q 3344 2578 2956 2516
Q 3422 2416 3680 2098
Q 3938 1781 3938 1306
Q 3938 681 3513 340
Q 3088 0 2303 0
L 628 0
L 628 4666
z
" transform="scale(0.015625)"/>
     <path id="DejaVuSans-4c" d="M 628 4666
L 1259 4666
L 1259 531
L 3531 531
L 3531 0
L 628 0
L 628 4666
z
" transform="scale(0.015625)"/>
     <path id="DejaVuSans-5f" d="M 3263 -1063
L 3263 -1509
L -63 -1509
L -63 -1063
L 3263 -1063
z
" transform="scale(0.015625)"/>
    </defs>
    <use xlink:href="#DejaVuSans-53"/>
    <use xlink:href="#DejaVuSans-6f" transform="translate(63.476562 0)"/>
    <use xlink:href="#DejaVuSans-75" transform="translate(124.658203 0)"/>
    <use xlink:href="#DejaVuSans-72" transform="translate(188.037109 0)"/>
    <use xlink:href="#DejaVuSans-63" transform="translate(226.900391 0)"/>
    <use xlink:href="#DejaVuSans-65" transform="translate(281.880859 0)"/>
    <use xlink:href="#DejaVuSans-73" transform="translate(343.404297 0)"/>
    <use xlink:href="#DejaVuSans-3a" transform="translate(395.503906 0)"/>
    <use xlink:href="#DejaVuSans-20" transform="translate(429.195312 0)"/>
    <use xlink:href="#DejaVuSans-64" transform="translate(460.982422 0)"/>
    <use xlink:href="#DejaVuSans-69" transform="translate(524.458984 0)"/>
    <use xlink:href="#DejaVuSans-73" transform="translate(552.242188 0)"/>
    <use xlink:href="#DejaVuSans-61" transform="translate(604.341797 0)"/>
    <use xlink:href="#DejaVuSans-73" transform="translate(665.621094 0)"/>
    <use xlink:href="#DejaVuSans-74" transform="translate(717.720703 0)"/>
    <use xlink:href="#DejaVuSans-65" transform="translate(756.929688 0)"/>
    <use xlink:href="#DejaVuSans-72" transform="translate(818.453125 0)"/>
    <use xlink:href="#DejaVuSans-2d" transform="translate(853.191406 0)"/>
    <use xlink:href="#DejaVuSans-72" transform="translate(889.275391 0)"/>
    <use xlink:href="#DejaVuSans-65" transform="translate(928.138672 0)"/>
    <use xlink:href="#DejaVuSans-63" transform="translate(989.662109 0)"/>
    <use xlink:href="#DejaVuSans-6f" transform="translate(1044.642578 0)"/>
    <use xlink:href="#DejaVuSans-76" transform="translate(1105.824219 0)"/>
    <use xlink:href="#DejaVuSans-65" transform="translate(1165.003906 0)"/>
    <use xlink:href="#DejaVuSans-72" transform="translate(1226.527344 0)"/>
    <use xlink:href="#DejaVuSans-79" transform="translate(1267.640625 0)"/>
    <use xlink:href="#DejaVuSans-2d" transform="translate(1325.070312 0)"/>
    <use xlink:href="#DejaVuSans-6c" transform="translate(1361.154297 0)"/>
    <use xlink:href="#DejaVuSans-61" transform="translate(1388.9375 0)"/>
    <use xlink:href="#DejaVuSans-67" transform="translate(1450.216797 0)"/>
    <use xlink:href="#DejaVuSans-2d" transform="translate(1513.693359 0)"/>
    <use xlink:href="#DejaVuSans-72" transform="translate(1549.777344 0)"/>
    <use xlink:href="#DejaVuSans-65" transform="translate(1588.640625 0)"/>
    <use xlink:href="#DejaVuSans-63" transform="translate(1650.164062 0)"/>
    <use xlink:href="#DejaVuSans-6f" transform="translate(1705.144531 0)"/>
    <use xlink:href="#DejaVuSans-76" transform="translate(1766.326172 0)"/>
    <use xlink:href="#DejaVuSans-65" transform="translate(1825.505859 0)"/>
    <use xlink:href="#DejaVuSans-72" transform="translate(1887.029297 0)"/>
    <use xlink:href="#DejaVuSans-79" transform="translate(1928.142578 0)"/>
    <use xlink:href="#DejaVuSans-2d" transform="translate(1985.572266 0)"/>
    <use xlink:href="#DejaVuSans-73" transform="translate(2021.65625 0)"/>
    <use xlink:href="#DejaVuSans-6f" transform="translate(2073.755859 0)"/>
    <use xlink:href="#DejaVuSans-75" transform="translate(2134.9375 0)"/>
    <use xlink:href="#DejaVuSans-72" transform="translate(2198.316406 0)"/>
    <use xlink:href="#DejaVuSans-63" transform="translate(2237.179688 0)"/>
    <use xlink:href="#DejaVuSans-65" transform="translate(2292.160156 0)"/>
    <use xlink:href="#DejaVuSans-2d" transform="translate(2353.683594 0)"/>
    <use xlink:href="#DejaVuSans-72" transform="translate(2389.767578 0)"/>
    <use xlink:href="#DejaVuSans-65" transform="translate(2428.630859 0)"/>
    <use xlink:href="#DejaVuSans-61" transform="translate(2490.154297 0)"/>
    <use xlink:href="#DejaVuSans-64" transform="translate(2551.433594 0)"/>
    <use xlink:href="#DejaVuSans-69" transform="translate(2614.910156 0)"/>
    <use xlink:href="#DejaVuSans-6e" transform="translate(2642.693359 0)"/>
    <use xlink:href="#DejaVuSans-65" transform="translate(2706.072266 0)"/>
    <use xlink:href="#DejaVuSans-73" transform="translate(2767.595703 0)"/>
    <use xlink:href="#DejaVuSans-73" transform="translate(2819.695312 0)"/>
    <use xlink:href="#DejaVuSans-2e" transform="translate(2871.794922 0)"/>
    <use xlink:href="#DejaVuSans-6a" transform="translate(2903.582031 0)"/>
    <use xlink:href="#DejaVuSans-73" transform="translate(2931.365234 0)"/>
    <use xlink:href="#DejaVuSans-6f" transform="translate(2983.464844 0)"/>
    <use xlink:href="#DejaVuSans-6e" transform="translate(3044.646484 0)"/>
    <use xlink:href="#DejaVuSans-20" transform="translate(3108.025391 0)"/>
    <use xlink:href="#DejaVuSans-61" transform="translate(3139.8125 0)"/>
    <use xlink:href="#DejaVuSans-6e" transform="translate(3201.091797 0)"/>
    <use xlink:href="#DejaVuSans-64" transform="translate(3264.470703 0)"/>
    <use xlink:href="#DejaVuSans-20" transform="translate(3327.947266 0)"/>
    <use xlink:href="#DejaVuSans-64" transform="translate(3359.734375 0)"/>
    <use xlink:href="#DejaVuSans-69" transform="translate(3423.210938 0)"/>
    <use xlink:href="#DejaVuSans-73" transform="translate(3450.994141 0)"/>
    <use xlink:href="#DejaVuSans-61" transform="translate(3503.09375 0)"/>
    <use xlink:href="#DejaVuSans-73" transform="translate(3564.373047 0)"/>
    <use xlink:href="#DejaVuSans-74" transform="translate(3616.472656 0)"/>
    <use xlink:href="#DejaVuSans-65" transform="translate(3655.681641 0)"/>
    <use xlink:href="#DejaVuSans-72" transform="translate(3717.205078 0)"/>
    <use xlink:href="#DejaVuSans-2d" transform="translate(3751.943359 0)"/>
    <use xlink:href="#DejaVuSans-72" transform="translate(3788.027344 0)"/>
    <use xlink:href="#DejaVuSans-65" transform="translate(3826.890625 0)"/>
    <use xlink:href="#DejaVuSans-63" transform="translate(3888.414062 0)"/>
    <use xlink:href="#DejaVuSans-6f" transform="translate(3943.394531 0)"/>
    <use xlink:href="#DejaVuSans-76" transform="translate(4004.576172 0)"/>
    <use xlink:href="#DejaVuSans-65" transform="translate(4063.755859 0)"/>
    <use xlink:href="#DejaVuSans-72" transform="translate(4125.279297 0)"/>
    <use xlink:href="#DejaVuSans-79" transform="translate(4166.392578 0)"/>
    <use xlink:href="#DejaVuSans-2d" transform="translate(4223.822266 0)"/>
    <use xlink:href="#DejaVuSans-68" transform="translate(4259.90625 0)"/>
    <use xlink:href="#DejaVuSans-61" transform="translate(4323.285156 0)"/>
    <use xlink:href="#DejaVuSans-69" transform="translate(4384.564453 0)"/>
    <use xlink:href="#DejaVuSans-79" transform="translate(4412.347656 0)"/>
    <use xlink:href="#DejaVuSans-61" transform="translate(4471.527344 0)"/>
    <use xlink:href="#DejaVuSans-6e" transform="translate(4532.806641 0)"/>
    <use xlink:href="#DejaVuSans-2d" transform="translate(4596.185547 0)"/>
    <use xlink:href="#DejaVuSans-63" transform="translate(4632.269531 0)"/>
    <use xlink:href="#DejaVuSans-6f" transform="translate(4687.25 0)"/>
    <use xlink:href="#DejaVuSans-6e" transform="translate(4748.431641 0)"/>
    <use xlink:href="#DejaVuSans-73" transform="translate(4811.810547 0)"/>
    <use xlink:href="#DejaVuSans-74" transform="translate(4863.910156 0)"/>
    <use xlink:href="#DejaVuSans-72" transform="translate(4903.119141 0)"/>
    <use xlink:href="#DejaVuSans-75" transform="translate(4944.232422 0)"/>
    <use xlink:href="#DejaVuSans-63" transform="translate(5007.611328 0)"/>
    <use xlink:href="#DejaVuSans-74" transform="translate(5062.591797 0)"/>
    <use xlink:href="#DejaVuSans-2d" transform="translate(5101.800781 0)"/>
    <use xlink:href="#DejaVuSans-76" transform="translate(5135.259766 0)"/>
    <use xlink:href="#DejaVuSans-61" transform="translate(5194.439453 0)"/>
    <use xlink:href="#DejaVuSans-6c" transform="translate(5255.71875 0)"/>
    <use xlink:href="#DejaVuSans-69" transform="translate(5283.501953 0)"/>
    <use xlink:href="#DejaVuSans-64" transform="translate(5311.285156 0)"/>
    <use xlink:href="#DejaVuSans-61" transform="translate(5374.761719 0)"/>
    <use xlink:href="#DejaVuSans-74" transform="translate(5436.041016 0)"/>
    <use xlink:href="#DejaVuSans-69" transform="translate(5475.25 0)"/>
    <use xlink:href="#DejaVuSans-6f" transform="translate(5503.033203 0)"/>
    <use xlink:href="#DejaVuSans-6e" transform="translate(5564.214844 0)"/>
    <use xlink:href="#DejaVuSans-2e" transform="translate(5627.59375 0)"/>
    <use xlink:href="#DejaVuSans-6a" transform="translate(5659.380859 0)"/>
    <use xlink:href="#DejaVuSans-73" transform="translate(5687.164062 0)"/>
    <use xlink:href="#DejaVuSans-6f" transform="translate(5739.263672 0)"/>
    <use xlink:href="#DejaVuSans-6e" transform="translate(5800.445312 0)"/>
    <use xlink:href="#DejaVuSans-3b" transform="translate(5863.824219 0)"/>
    <use xlink:href="#DejaVuSans-20" transform="translate(5897.515625 0)"/>
    <use xlink:href="#DejaVuSans-47" transform="translate(5929.302734 0)"/>
    <use xlink:href="#DejaVuSans-44" transform="translate(6006.792969 0)"/>
    <use xlink:href="#DejaVuSans-49" transform="translate(6083.794922 0)"/>
    <use xlink:href="#DejaVuSans-53" transform="translate(6113.287109 0)"/>
    <use xlink:href="#DejaVuSans-20" transform="translate(6176.763672 0)"/>
    <use xlink:href="#DejaVuSans-61" transform="translate(6208.550781 0)"/>
    <use xlink:href="#DejaVuSans-6e" transform="translate(6269.830078 0)"/>
    <use xlink:href="#DejaVuSans-64" transform="translate(6333.208984 0)"/>
    <use xlink:href="#DejaVuSans-20" transform="translate(6396.685547 0)"/>
    <use xlink:href="#DejaVuSans-57" transform="translate(6428.472656 0)"/>
    <use xlink:href="#DejaVuSans-6f" transform="translate(6521.474609 0)"/>
    <use xlink:href="#DejaVuSans-72" transform="translate(6582.65625 0)"/>
    <use xlink:href="#DejaVuSans-6c" transform="translate(6623.769531 0)"/>
    <use xlink:href="#DejaVuSans-64" transform="translate(6651.552734 0)"/>
    <use xlink:href="#DejaVuSans-20" transform="translate(6715.029297 0)"/>
    <use xlink:href="#DejaVuSans-42" transform="translate(6746.816406 0)"/>
    <use xlink:href="#DejaVuSans-61" transform="translate(6815.419922 0)"/>
    <use xlink:href="#DejaVuSans-6e" transform="translate(6876.699219 0)"/>
    <use xlink:href="#DejaVuSans-6b" transform="translate(6940.078125 0)"/>
    <use xlink:href="#DejaVuSans-20" transform="translate(6997.988281 0)"/>
    <use xlink:href="#DejaVuSans-4c" transform="translate(7029.775391 0)"/>
    <use xlink:href="#DejaVuSans-69" transform="translate(7085.488281 0)"/>
    <use xlink:href="#DejaVuSans-67" transform="translate(7113.271484 0)"/>
    <use xlink:href="#DejaVuSans-68" transform="translate(7176.748047 0)"/>
    <use xlink:href="#DejaVuSans-74" transform="translate(7240.126953 0)"/>
    <use xlink:href="#DejaVuSans-20" transform="translate(7279.335938 0)"/>
    <use xlink:href="#DejaVuSans-45" transform="translate(7311.123047 0)"/>
    <use xlink:href="#DejaVuSans-76" transform="translate(7374.306641 0)"/>
    <use xlink:href="#DejaVuSans-65" transform="translate(7433.486328 0)"/>
    <use xlink:href="#DejaVuSans-72" transform="translate(7495.009766 0)"/>
    <use xlink:href="#DejaVuSans-79" transform="translate(7536.123047 0)"/>
    <use xlink:href="#DejaVuSans-20" transform="translate(7595.302734 0)"/>
    <use xlink:href="#DejaVuSans-4e" transform="translate(7627.089844 0)"/>
    <use xlink:href="#DejaVuSans-69" transform="translate(7701.894531 0)"/>
    <use xlink:href="#DejaVuSans-67" transform="translate(7729.677734 0)"/>
    <use xlink:href="#DejaVuSans-68" transform="translate(7793.154297 0)"/>
    <use xlink:href="#DejaVuSans-74" transform="translate(7856.533203 0)"/>
    <use xlink:href="#DejaVuSans-2e" transform="translate(7895.742188 0)"/>
    <use xlink:href="#DejaVuSans-20" transform="translate(7927.529297 0)"/>
    <use xlink:href="#DejaVuSans-61" transform="translate(7959.316406 0)"/>
    <use xlink:href="#DejaVuSans-74" transform="translate(8020.595703 0)"/>
    <use xlink:href="#DejaVuSans-74" transform="translate(8059.804688 0)"/>
    <use xlink:href="#DejaVuSans-65" transform="translate(8099.013672 0)"/>
    <use xlink:href="#DejaVuSans-73" transform="translate(8160.537109 0)"/>
    <use xlink:href="#DejaVuSans-74" transform="translate(8212.636719 0)"/>
    <use xlink:href="#DejaVuSans-61" transform="translate(8251.845703 0)"/>
    <use xlink:href="#DejaVuSans-74" transform="translate(8313.125 0)"/>
    <use xlink:href="#DejaVuSans-69" transform="translate(8352.333984 0)"/>
    <use xlink:href="#DejaVuSans-6f" transform="translate(8380.117188 0)"/>
    <use xlink:href="#DejaVuSans-6e" transform="translate(8441.298828 0)"/>
    <use xlink:href="#DejaVuSans-5f" transform="translate(8504.677734 0)"/>
    <use xlink:href="#DejaVuSans-63" transform="translate(8554.677734 0)"/>
    <use xlink:href="#DejaVuSans-68" transform="translate(8609.658203 0)"/>
    <use xlink:href="#DejaVuSans-61" transform="translate(8673.037109 0)"/>
    <use xlink:href="#DejaVuSans-69" transform="translate(8734.316406 0)"/>
    <use xlink:href="#DejaVuSans-6e" transform="translate(8762.099609 0)"/>
    <use xlink:href="#DejaVuSans-3a" transform="translate(8825.478516 0)"/>
    <use xlink:href="#DejaVuSans-20" transform="translate(8859.169922 0)"/>
    <use xlink:href="#DejaVuSans-61" transform="translate(8890.957031 0)"/>
    <use xlink:href="#DejaVuSans-69" transform="translate(8952.236328 0)"/>
    <use xlink:href="#DejaVuSans-2d" transform="translate(8980.019531 0)"/>
    <use xlink:href="#DejaVuSans-66" transform="translate(9016.103516 0)"/>
    <use xlink:href="#DejaVuSans-69" transform="translate(9051.308594 0)"/>
    <use xlink:href="#DejaVuSans-72" transform="translate(9079.091797 0)"/>
    <use xlink:href="#DejaVuSans-73" transform="translate(9120.205078 0)"/>
    <use xlink:href="#DejaVuSans-74" transform="translate(9172.304688 0)"/>
    <use xlink:href="#DejaVuSans-2e" transform="translate(9211.513672 0)"/>
   </g>
  </g>
 </g>
 <defs>
  <clipPath id="pc87fefbb7d">
   <rect x="11.448" y="99.36" width="756.144" height="276.48"/>
  </clipPath>
 </defs>
</svg>
