<?xml version="1.0" encoding="utf-8" standalone="no"?>
<!DOCTYPE svg PUBLIC "-//W3C//DTD SVG 1.1//EN"
  "http://www.w3.org/Graphics/SVG/1.1/DTD/svg11.dtd">
<svg xmlns:xlink="http://www.w3.org/1999/xlink" width="778.494679pt" height="531.191937pt" viewBox="0 0 778.494679 531.191937" xmlns="http://www.w3.org/2000/svg" version="1.1">
 <metadata>
  <rdf:RDF xmlns:dc="http://purl.org/dc/elements/1.1/" xmlns:cc="http://creativecommons.org/ns#" xmlns:rdf="http://www.w3.org/1999/02/22-rdf-syntax-ns#">
   <cc:Work>
    <dc:type rdf:resource="http://purl.org/dc/dcmitype/StillImage"/>
    <dc:date>2026-07-19T03:38:41.445752</dc:date>
    <dc:format>image/svg+xml</dc:format>
    <dc:creator>
     <cc:Agent>
      <dc:title>Matplotlib v3.10.8, https://matplotlib.org/</dc:title>
     </cc:Agent>
    </dc:creator>
   </cc:Work>
  </rdf:RDF>
 </metadata>
 <defs>
  <style type="text/css">*{stroke-linejoin: round; stroke-linecap: butt}</style>
 </defs>
 <g id="figure_1">
  <g id="patch_1">
   <path d="M 0 531.191937
L 778.494679 531.191937
L 778.494679 0
L 0 0
z
" style="fill: #ffffff"/>
  </g>
  <g id="axes_1">
   <g id="patch_2">
    <path d="M 143.136 463.318594
L 754.848 463.318594
L 754.848 115.126594
L 143.136 115.126594
z
" style="fill: #ffffff"/>
   </g>
   <g id="matplotlib.axis_1">
    <g id="xtick_1">
     <g id="line2d_1">
      <path d="M 143.136 463.318594
L 143.136 115.126594
" clip-path="url(#p2c5d6a319e)" style="fill: none; stroke: #e5e9ec; stroke-width: 0.8; stroke-linecap: square"/>
     </g>
     <g id="line2d_2"/>
     <g id="text_1">
      <!-- 0 -->
      <g style="fill: #60707c" transform="translate(139.95475 474.417031) scale(0.1 -0.1)">
       <defs>
        <path id="DejaVuSans-30" d="M 2034 4250
Q 1547 4250 1301 3770
Q 1056 3291 1056 2328
Q 1056 1369 1301 889
Q 1547 409 2034 409
Q 2525 409 2770 889
Q 3016 1369 3016 2328
Q 3016 3291 2770 3770
Q 2525 4250 2034 4250
z
M 2034 4750
Q 2819 4750 3233 4129
Q 3647 3509 3647 2328
Q 3647 1150 3233 529
Q 2819 -91 2034 -91
Q 1250 -91 836 529
Q 422 1150 422 2328
Q 422 3509 836 4129
Q 1250 4750 2034 4750
z
" transform="scale(0.015625)"/>
       </defs>
       <use xlink:href="#DejaVuSans-30"/>
      </g>
     </g>
    </g>
    <g id="xtick_2">
     <g id="line2d_3">
      <path d="M 240.463498 463.318594
L 240.463498 115.126594
" clip-path="url(#p2c5d6a319e)" style="fill: none; stroke: #e5e9ec; stroke-width: 0.8; stroke-linecap: square"/>
     </g>
     <g id="line2d_4"/>
     <g id="text_2">
      <!-- 2 -->
      <g style="fill: #60707c" transform="translate(237.282248 474.417031) scale(0.1 -0.1)">
       <defs>
        <path id="DejaVuSans-32" d="M 1228 531
L 3431 531
L 3431 0
L 469 0
L 469 531
Q 828 903 1448 1529
Q 2069 2156 2228 2338
Q 2531 2678 2651 2914
Q 2772 3150 2772 3378
Q 2772 3750 2511 3984
Q 2250 4219 1831 4219
Q 1534 4219 1204 4116
Q 875 4013 500 3803
L 500 4441
Q 881 4594 1212 4672
Q 1544 4750 1819 4750
Q 2544 4750 2975 4387
Q 3406 4025 3406 3419
Q 3406 3131 3298 2873
Q 3191 2616 2906 2266
Q 2828 2175 2409 1742
Q 1991 1309 1228 531
z
" transform="scale(0.015625)"/>
       </defs>
       <use xlink:href="#DejaVuSans-32"/>
      </g>
     </g>
    </g>
    <g id="xtick_3">
     <g id="line2d_5">
      <path d="M 337.790996 463.318594
L 337.790996 115.126594
" clip-path="url(#p2c5d6a319e)" style="fill: none; stroke: #e5e9ec; stroke-width: 0.8; stroke-linecap: square"/>
     </g>
     <g id="line2d_6"/>
     <g id="text_3">
      <!-- 4 -->
      <g style="fill: #60707c" transform="translate(334.609746 474.417031) scale(0.1 -0.1)">
       <defs>
        <path id="DejaVuSans-34" d="M 2419 4116
L 825 1625
L 2419 1625
L 2419 4116
z
M 2253 4666
L 3047 4666
L 3047 1625
L 3713 1625
L 3713 1100
L 3047 1100
L 3047 0
L 2419 0
L 2419 1100
L 313 1100
L 313 1709
L 2253 4666
z
" transform="scale(0.015625)"/>
       </defs>
       <use xlink:href="#DejaVuSans-34"/>
      </g>
     </g>
    </g>
    <g id="xtick_4">
     <g id="line2d_7">
      <path d="M 435.118494 463.318594
L 435.118494 115.126594
" clip-path="url(#p2c5d6a319e)" style="fill: none; stroke: #e5e9ec; stroke-width: 0.8; stroke-linecap: square"/>
     </g>
     <g id="line2d_8"/>
     <g id="text_4">
      <!-- 6 -->
      <g style="fill: #60707c" transform="translate(431.937244 474.417031) scale(0.1 -0.1)">
       <defs>
        <path id="DejaVuSans-36" d="M 2113 2584
Q 1688 2584 1439 2293
Q 1191 2003 1191 1497
Q 1191 994 1439 701
Q 1688 409 2113 409
Q 2538 409 2786 701
Q 3034 994 3034 1497
Q 3034 2003 2786 2293
Q 2538 2584 2113 2584
z
M 3366 4563
L 3366 3988
Q 3128 4100 2886 4159
Q 2644 4219 2406 4219
Q 1781 4219 1451 3797
Q 1122 3375 1075 2522
Q 1259 2794 1537 2939
Q 1816 3084 2150 3084
Q 2853 3084 3261 2657
Q 3669 2231 3669 1497
Q 3669 778 3244 343
Q 2819 -91 2113 -91
Q 1303 -91 875 529
Q 447 1150 447 2328
Q 447 3434 972 4092
Q 1497 4750 2381 4750
Q 2619 4750 2861 4703
Q 3103 4656 3366 4563
z
" transform="scale(0.015625)"/>
       </defs>
       <use xlink:href="#DejaVuSans-36"/>
      </g>
     </g>
    </g>
    <g id="xtick_5">
     <g id="line2d_9">
      <path d="M 532.445992 463.318594
L 532.445992 115.126594
" clip-path="url(#p2c5d6a319e)" style="fill: none; stroke: #e5e9ec; stroke-width: 0.8; stroke-linecap: square"/>
     </g>
     <g id="line2d_10"/>
     <g id="text_5">
      <!-- 8 -->
      <g style="fill: #60707c" transform="translate(529.264742 474.417031) scale(0.1 -0.1)">
       <defs>
        <path id="DejaVuSans-38" d="M 2034 2216
Q 1584 2216 1326 1975
Q 1069 1734 1069 1313
Q 1069 891 1326 650
Q 1584 409 2034 409
Q 2484 409 2743 651
Q 3003 894 3003 1313
Q 3003 1734 2745 1975
Q 2488 2216 2034 2216
z
M 1403 2484
Q 997 2584 770 2862
Q 544 3141 544 3541
Q 544 4100 942 4425
Q 1341 4750 2034 4750
Q 2731 4750 3128 4425
Q 3525 4100 3525 3541
Q 3525 3141 3298 2862
Q 3072 2584 2669 2484
Q 3125 2378 3379 2068
Q 3634 1759 3634 1313
Q 3634 634 3220 271
Q 2806 -91 2034 -91
Q 1263 -91 848 271
Q 434 634 434 1313
Q 434 1759 690 2068
Q 947 2378 1403 2484
z
M 1172 3481
Q 1172 3119 1398 2916
Q 1625 2713 2034 2713
Q 2441 2713 2670 2916
Q 2900 3119 2900 3481
Q 2900 3844 2670 4047
Q 2441 4250 2034 4250
Q 1625 4250 1398 4047
Q 1172 3844 1172 3481
z
" transform="scale(0.015625)"/>
       </defs>
       <use xlink:href="#DejaVuSans-38"/>
      </g>
     </g>
    </g>
    <g id="xtick_6">
     <g id="line2d_11">
      <path d="M 629.77349 463.318594
L 629.77349 115.126594
" clip-path="url(#p2c5d6a319e)" style="fill: none; stroke: #e5e9ec; stroke-width: 0.8; stroke-linecap: square"/>
     </g>
     <g id="line2d_12"/>
     <g id="text_6">
      <!-- 10 -->
      <g style="fill: #60707c" transform="translate(623.41099 474.417031) scale(0.1 -0.1)">
       <defs>
        <path id="DejaVuSans-31" d="M 794 531
L 1825 531
L 1825 4091
L 703 3866
L 703 4441
L 1819 4666
L 2450 4666
L 2450 531
L 3481 531
L 3481 0
L 794 0
L 794 531
z
" transform="scale(0.015625)"/>
       </defs>
       <use xlink:href="#DejaVuSans-31"/>
       <use xlink:href="#DejaVuSans-30" transform="translate(63.623047 0)"/>
      </g>
     </g>
    </g>
    <g id="xtick_7">
     <g id="line2d_13">
      <path d="M 727.100987 463.318594
L 727.100987 115.126594
" clip-path="url(#p2c5d6a319e)" style="fill: none; stroke: #e5e9ec; stroke-width: 0.8; stroke-linecap: square"/>
     </g>
     <g id="line2d_14"/>
     <g id="text_7">
      <!-- 12 -->
      <g style="fill: #60707c" transform="translate(720.738487 474.417031) scale(0.1 -0.1)">
       <use xlink:href="#DejaVuSans-31"/>
       <use xlink:href="#DejaVuSans-32" transform="translate(63.623047 0)"/>
      </g>
     </g>
    </g>
    <g id="text_8">
     <!-- Additional population recorded below 10 m, 2000–2020 (millions) -->
     <g style="fill: #17202a" transform="translate(285.218563 488.095156) scale(0.1 -0.1)">
      <defs>
       <path id="DejaVuSans-41" d="M 2188 4044
L 1331 1722
L 3047 1722
L 2188 4044
z
M 1831 4666
L 2547 4666
L 4325 0
L 3669 0
L 3244 1197
L 1141 1197
L 716 0
L 50 0
L 1831 4666
z
" transform="scale(0.015625)"/>
       <path id="DejaVuSans-64" d="M 2906 2969
L 2906 4863
L 3481 4863
L 3481 0
L 2906 0
L 2906 525
Q 2725 213 2448 61
Q 2172 -91 1784 -91
Q 1150 -91 751 415
Q 353 922 353 1747
Q 353 2572 751 3078
Q 1150 3584 1784 3584
Q 2172 3584 2448 3432
Q 2725 3281 2906 2969
z
M 947 1747
Q 947 1113 1208 752
Q 1469 391 1925 391
Q 2381 391 2643 752
Q 2906 1113 2906 1747
Q 2906 2381 2643 2742
Q 2381 3103 1925 3103
Q 1469 3103 1208 2742
Q 947 2381 947 1747
z
" transform="scale(0.015625)"/>
       <path id="DejaVuSans-69" d="M 603 3500
L 1178 3500
L 1178 0
L 603 0
L 603 3500
z
M 603 4863
L 1178 4863
L 1178 4134
L 603 4134
L 603 4863
z
" transform="scale(0.015625)"/>
       <path id="DejaVuSans-74" d="M 1172 4494
L 1172 3500
L 2356 3500
L 2356 3053
L 1172 3053
L 1172 1153
Q 1172 725 1289 603
Q 1406 481 1766 481
L 2356 481
L 2356 0
L 1766 0
Q 1100 0 847 248
Q 594 497 594 1153
L 594 3053
L 172 3053
L 172 3500
L 594 3500
L 594 4494
L 1172 4494
z
" transform="scale(0.015625)"/>
       <path id="DejaVuSans-6f" d="M 1959 3097
Q 1497 3097 1228 2736
Q 959 2375 959 1747
Q 959 1119 1226 758
Q 1494 397 1959 397
Q 2419 397 2687 759
Q 2956 1122 2956 1747
Q 2956 2369 2687 2733
Q 2419 3097 1959 3097
z
M 1959 3584
Q 2709 3584 3137 3096
Q 3566 2609 3566 1747
Q 3566 888 3137 398
Q 2709 -91 1959 -91
Q 1206 -91 779 398
Q 353 888 353 1747
Q 353 2609 779 3096
Q 1206 3584 1959 3584
z
" transform="scale(0.015625)"/>
       <path id="DejaVuSans-6e" d="M 3513 2113
L 3513 0
L 2938 0
L 2938 2094
Q 2938 2591 2744 2837
Q 2550 3084 2163 3084
Q 1697 3084 1428 2787
Q 1159 2491 1159 1978
L 1159 0
L 581 0
L 581 3500
L 1159 3500
L 1159 2956
Q 1366 3272 1645 3428
Q 1925 3584 2291 3584
Q 2894 3584 3203 3211
Q 3513 2838 3513 2113
z
" transform="scale(0.015625)"/>
       <path id="DejaVuSans-61" d="M 2194 1759
Q 1497 1759 1228 1600
Q 959 1441 959 1056
Q 959 750 1161 570
Q 1363 391 1709 391
Q 2188 391 2477 730
Q 2766 1069 2766 1631
L 2766 1759
L 2194 1759
z
M 3341 1997
L 3341 0
L 2766 0
L 2766 531
Q 2569 213 2275 61
Q 1981 -91 1556 -91
Q 1019 -91 701 211
Q 384 513 384 1019
Q 384 1609 779 1909
Q 1175 2209 1959 2209
L 2766 2209
L 2766 2266
Q 2766 2663 2505 2880
Q 2244 3097 1772 3097
Q 1472 3097 1187 3025
Q 903 2953 641 2809
L 641 3341
Q 956 3463 1253 3523
Q 1550 3584 1831 3584
Q 2591 3584 2966 3190
Q 3341 2797 3341 1997
z
" transform="scale(0.015625)"/>
       <path id="DejaVuSans-6c" d="M 603 4863
L 1178 4863
L 1178 0
L 603 0
L 603 4863
z
" transform="scale(0.015625)"/>
       <path id="DejaVuSans-20" transform="scale(0.015625)"/>
       <path id="DejaVuSans-70" d="M 1159 525
L 1159 -1331
L 581 -1331
L 581 3500
L 1159 3500
L 1159 2969
Q 1341 3281 1617 3432
Q 1894 3584 2278 3584
Q 2916 3584 3314 3078
Q 3713 2572 3713 1747
Q 3713 922 3314 415
Q 2916 -91 2278 -91
Q 1894 -91 1617 61
Q 1341 213 1159 525
z
M 3116 1747
Q 3116 2381 2855 2742
Q 2594 3103 2138 3103
Q 1681 3103 1420 2742
Q 1159 2381 1159 1747
Q 1159 1113 1420 752
Q 1681 391 2138 391
Q 2594 391 2855 752
Q 3116 1113 3116 1747
z
" transform="scale(0.015625)"/>
       <path id="DejaVuSans-75" d="M 544 1381
L 544 3500
L 1119 3500
L 1119 1403
Q 1119 906 1312 657
Q 1506 409 1894 409
Q 2359 409 2629 706
Q 2900 1003 2900 1516
L 2900 3500
L 3475 3500
L 3475 0
L 2900 0
L 2900 538
Q 2691 219 2414 64
Q 2138 -91 1772 -91
Q 1169 -91 856 284
Q 544 659 544 1381
z
M 1991 3584
L 1991 3584
z
" transform="scale(0.015625)"/>
       <path id="DejaVuSans-72" d="M 2631 2963
Q 2534 3019 2420 3045
Q 2306 3072 2169 3072
Q 1681 3072 1420 2755
Q 1159 2438 1159 1844
L 1159 0
L 581 0
L 581 3500
L 1159 3500
L 1159 2956
Q 1341 3275 1631 3429
Q 1922 3584 2338 3584
Q 2397 3584 2469 3576
Q 2541 3569 2628 3553
L 2631 2963
z
" transform="scale(0.015625)"/>
       <path id="DejaVuSans-65" d="M 3597 1894
L 3597 1613
L 953 1613
Q 991 1019 1311 708
Q 1631 397 2203 397
Q 2534 397 2845 478
Q 3156 559 3463 722
L 3463 178
Q 3153 47 2828 -22
Q 2503 -91 2169 -91
Q 1331 -91 842 396
Q 353 884 353 1716
Q 353 2575 817 3079
Q 1281 3584 2069 3584
Q 2775 3584 3186 3129
Q 3597 2675 3597 1894
z
M 3022 2063
Q 3016 2534 2758 2815
Q 2500 3097 2075 3097
Q 1594 3097 1305 2825
Q 1016 2553 972 2059
L 3022 2063
z
" transform="scale(0.015625)"/>
       <path id="DejaVuSans-63" d="M 3122 3366
L 3122 2828
Q 2878 2963 2633 3030
Q 2388 3097 2138 3097
Q 1578 3097 1268 2742
Q 959 2388 959 1747
Q 959 1106 1268 751
Q 1578 397 2138 397
Q 2388 397 2633 464
Q 2878 531 3122 666
L 3122 134
Q 2881 22 2623 -34
Q 2366 -91 2075 -91
Q 1284 -91 818 406
Q 353 903 353 1747
Q 353 2603 823 3093
Q 1294 3584 2113 3584
Q 2378 3584 2631 3529
Q 2884 3475 3122 3366
z
" transform="scale(0.015625)"/>
       <path id="DejaVuSans-62" d="M 3116 1747
Q 3116 2381 2855 2742
Q 2594 3103 2138 3103
Q 1681 3103 1420 2742
Q 1159 2381 1159 1747
Q 1159 1113 1420 752
Q 1681 391 2138 391
Q 2594 391 2855 752
Q 3116 1113 3116 1747
z
M 1159 2969
Q 1341 3281 1617 3432
Q 1894 3584 2278 3584
Q 2916 3584 3314 3078
Q 3713 2572 3713 1747
Q 3713 922 3314 415
Q 2916 -91 2278 -91
Q 1894 -91 1617 61
Q 1341 213 1159 525
L 1159 0
L 581 0
L 581 4863
L 1159 4863
L 1159 2969
z
" transform="scale(0.015625)"/>
       <path id="DejaVuSans-77" d="M 269 3500
L 844 3500
L 1563 769
L 2278 3500
L 2956 3500
L 3675 769
L 4391 3500
L 4966 3500
L 4050 0
L 3372 0
L 2619 2869
L 1863 0
L 1184 0
L 269 3500
z
" transform="scale(0.015625)"/>
       <path id="DejaVuSans-6d" d="M 3328 2828
Q 3544 3216 3844 3400
Q 4144 3584 4550 3584
Q 5097 3584 5394 3201
Q 5691 2819 5691 2113
L 5691 0
L 5113 0
L 5113 2094
Q 5113 2597 4934 2840
Q 4756 3084 4391 3084
Q 3944 3084 3684 2787
Q 3425 2491 3425 1978
L 3425 0
L 2847 0
L 2847 2094
Q 2847 2600 2669 2842
Q 2491 3084 2119 3084
Q 1678 3084 1418 2786
Q 1159 2488 1159 1978
L 1159 0
L 581 0
L 581 3500
L 1159 3500
L 1159 2956
Q 1356 3278 1631 3431
Q 1906 3584 2284 3584
Q 2666 3584 2933 3390
Q 3200 3197 3328 2828
z
" transform="scale(0.015625)"/>
       <path id="DejaVuSans-2c" d="M 750 794
L 1409 794
L 1409 256
L 897 -744
L 494 -744
L 750 256
L 750 794
z
" transform="scale(0.015625)"/>
       <path id="DejaVuSans-2013" d="M 313 1978
L 2888 1978
L 2888 1528
L 313 1528
L 313 1978
z
" transform="scale(0.015625)"/>
       <path id="DejaVuSans-28" d="M 1984 4856
Q 1566 4138 1362 3434
Q 1159 2731 1159 2009
Q 1159 1288 1364 580
Q 1569 -128 1984 -844
L 1484 -844
Q 1016 -109 783 600
Q 550 1309 550 2009
Q 550 2706 781 3412
Q 1013 4119 1484 4856
L 1984 4856
z
" transform="scale(0.015625)"/>
       <path id="DejaVuSans-73" d="M 2834 3397
L 2834 2853
Q 2591 2978 2328 3040
Q 2066 3103 1784 3103
Q 1356 3103 1142 2972
Q 928 2841 928 2578
Q 928 2378 1081 2264
Q 1234 2150 1697 2047
L 1894 2003
Q 2506 1872 2764 1633
Q 3022 1394 3022 966
Q 3022 478 2636 193
Q 2250 -91 1575 -91
Q 1294 -91 989 -36
Q 684 19 347 128
L 347 722
Q 666 556 975 473
Q 1284 391 1588 391
Q 1994 391 2212 530
Q 2431 669 2431 922
Q 2431 1156 2273 1281
Q 2116 1406 1581 1522
L 1381 1569
Q 847 1681 609 1914
Q 372 2147 372 2553
Q 372 3047 722 3315
Q 1072 3584 1716 3584
Q 2034 3584 2315 3537
Q 2597 3491 2834 3397
z
" transform="scale(0.015625)"/>
       <path id="DejaVuSans-29" d="M 513 4856
L 1013 4856
Q 1481 4119 1714 3412
Q 1947 2706 1947 2009
Q 1947 1309 1714 600
Q 1481 -109 1013 -844
L 513 -844
Q 928 -128 1133 580
Q 1338 1288 1338 2009
Q 1338 2731 1133 3434
Q 928 4138 513 4856
z
" transform="scale(0.015625)"/>
      </defs>
      <use xlink:href="#DejaVuSans-41"/>
      <use xlink:href="#DejaVuSans-64" transform="translate(66.658203 0)"/>
      <use xlink:href="#DejaVuSans-64" transform="translate(130.134766 0)"/>
      <use xlink:href="#DejaVuSans-69" transform="translate(193.611328 0)"/>
      <use xlink:href="#DejaVuSans-74" transform="translate(221.394531 0)"/>
      <use xlink:href="#DejaVuSans-69" transform="translate(260.603516 0)"/>
      <use xlink:href="#DejaVuSans-6f" transform="translate(288.386719 0)"/>
      <use xlink:href="#DejaVuSans-6e" transform="translate(349.568359 0)"/>
      <use xlink:href="#DejaVuSans-61" transform="translate(412.947266 0)"/>
      <use xlink:href="#DejaVuSans-6c" transform="translate(474.226562 0)"/>
      <use xlink:href="#DejaVuSans-20" transform="translate(502.009766 0)"/>
      <use xlink:href="#DejaVuSans-70" transform="translate(533.796875 0)"/>
      <use xlink:href="#DejaVuSans-6f" transform="translate(597.273438 0)"/>
      <use xlink:href="#DejaVuSans-70" transform="translate(658.455078 0)"/>
      <use xlink:href="#DejaVuSans-75" transform="translate(721.931641 0)"/>
      <use xlink:href="#DejaVuSans-6c" transform="translate(785.310547 0)"/>
      <use xlink:href="#DejaVuSans-61" transform="translate(813.09375 0)"/>
      <use xlink:href="#DejaVuSans-74" transform="translate(874.373047 0)"/>
      <use xlink:href="#DejaVuSans-69" transform="translate(913.582031 0)"/>
      <use xlink:href="#DejaVuSans-6f" transform="translate(941.365234 0)"/>
      <use xlink:href="#DejaVuSans-6e" transform="translate(1002.546875 0)"/>
      <use xlink:href="#DejaVuSans-20" transform="translate(1065.925781 0)"/>
      <use xlink:href="#DejaVuSans-72" transform="translate(1097.712891 0)"/>
      <use xlink:href="#DejaVuSans-65" transform="translate(1136.576172 0)"/>
      <use xlink:href="#DejaVuSans-63" transform="translate(1198.099609 0)"/>
      <use xlink:href="#DejaVuSans-6f" transform="translate(1253.080078 0)"/>
      <use xlink:href="#DejaVuSans-72" transform="translate(1314.261719 0)"/>
      <use xlink:href="#DejaVuSans-64" transform="translate(1353.625 0)"/>
      <use xlink:href="#DejaVuSans-65" transform="translate(1417.101562 0)"/>
      <use xlink:href="#DejaVuSans-64" transform="translate(1478.625 0)"/>
      <use xlink:href="#DejaVuSans-20" transform="translate(1542.101562 0)"/>
      <use xlink:href="#DejaVuSans-62" transform="translate(1573.888672 0)"/>
      <use xlink:href="#DejaVuSans-65" transform="translate(1637.365234 0)"/>
      <use xlink:href="#DejaVuSans-6c" transform="translate(1698.888672 0)"/>
      <use xlink:href="#DejaVuSans-6f" transform="translate(1726.671875 0)"/>
      <use xlink:href="#DejaVuSans-77" transform="translate(1787.853516 0)"/>
      <use xlink:href="#DejaVuSans-20" transform="translate(1869.640625 0)"/>
      <use xlink:href="#DejaVuSans-31" transform="translate(1901.427734 0)"/>
      <use xlink:href="#DejaVuSans-30" transform="translate(1965.050781 0)"/>
      <use xlink:href="#DejaVuSans-20" transform="translate(2028.673828 0)"/>
      <use xlink:href="#DejaVuSans-6d" transform="translate(2060.460938 0)"/>
      <use xlink:href="#DejaVuSans-2c" transform="translate(2157.873047 0)"/>
      <use xlink:href="#DejaVuSans-20" transform="translate(2189.660156 0)"/>
      <use xlink:href="#DejaVuSans-32" transform="translate(2221.447266 0)"/>
      <use xlink:href="#DejaVuSans-30" transform="translate(2285.070312 0)"/>
      <use xlink:href="#DejaVuSans-30" transform="translate(2348.693359 0)"/>
      <use xlink:href="#DejaVuSans-30" transform="translate(2412.316406 0)"/>
      <use xlink:href="#DejaVuSans-2013" transform="translate(2475.939453 0)"/>
      <use xlink:href="#DejaVuSans-32" transform="translate(2525.939453 0)"/>
      <use xlink:href="#DejaVuSans-30" transform="translate(2589.5625 0)"/>
      <use xlink:href="#DejaVuSans-32" transform="translate(2653.185547 0)"/>
      <use xlink:href="#DejaVuSans-30" transform="translate(2716.808594 0)"/>
      <use xlink:href="#DejaVuSans-20" transform="translate(2780.431641 0)"/>
      <use xlink:href="#DejaVuSans-28" transform="translate(2812.21875 0)"/>
      <use xlink:href="#DejaVuSans-6d" transform="translate(2851.232422 0)"/>
      <use xlink:href="#DejaVuSans-69" transform="translate(2948.644531 0)"/>
      <use xlink:href="#DejaVuSans-6c" transform="translate(2976.427734 0)"/>
      <use xlink:href="#DejaVuSans-6c" transform="translate(3004.210938 0)"/>
      <use xlink:href="#DejaVuSans-69" transform="translate(3031.994141 0)"/>
      <use xlink:href="#DejaVuSans-6f" transform="translate(3059.777344 0)"/>
      <use xlink:href="#DejaVuSans-6e" transform="translate(3120.958984 0)"/>
      <use xlink:href="#DejaVuSans-73" transform="translate(3184.337891 0)"/>
      <use xlink:href="#DejaVuSans-29" transform="translate(3236.4375 0)"/>
     </g>
    </g>
   </g>
   <g id="matplotlib.axis_2">
    <g id="ytick_1">
     <g id="line2d_15"/>
     <g id="text_9">
      <!-- Hangzhou · CHN -->
      <g style="fill: #60707c" transform="translate(57.740688 444.165556) scale(0.1 -0.1)">
       <defs>
        <path id="DejaVuSans-48" d="M 628 4666
L 1259 4666
L 1259 2753
L 3553 2753
L 3553 4666
L 4184 4666
L 4184 0
L 3553 0
L 3553 2222
L 1259 2222
L 1259 0
L 628 0
L 628 4666
z
" transform="scale(0.015625)"/>
        <path id="DejaVuSans-67" d="M 2906 1791
Q 2906 2416 2648 2759
Q 2391 3103 1925 3103
Q 1463 3103 1205 2759
Q 947 2416 947 1791
Q 947 1169 1205 825
Q 1463 481 1925 481
Q 2391 481 2648 825
Q 2906 1169 2906 1791
z
M 3481 434
Q 3481 -459 3084 -895
Q 2688 -1331 1869 -1331
Q 1566 -1331 1297 -1286
Q 1028 -1241 775 -1147
L 775 -588
Q 1028 -725 1275 -790
Q 1522 -856 1778 -856
Q 2344 -856 2625 -561
Q 2906 -266 2906 331
L 2906 616
Q 2728 306 2450 153
Q 2172 0 1784 0
Q 1141 0 747 490
Q 353 981 353 1791
Q 353 2603 747 3093
Q 1141 3584 1784 3584
Q 2172 3584 2450 3431
Q 2728 3278 2906 2969
L 2906 3500
L 3481 3500
L 3481 434
z
" transform="scale(0.015625)"/>
        <path id="DejaVuSans-7a" d="M 353 3500
L 3084 3500
L 3084 2975
L 922 459
L 3084 459
L 3084 0
L 275 0
L 275 525
L 2438 3041
L 353 3041
L 353 3500
z
" transform="scale(0.015625)"/>
        <path id="DejaVuSans-68" d="M 3513 2113
L 3513 0
L 2938 0
L 2938 2094
Q 2938 2591 2744 2837
Q 2550 3084 2163 3084
Q 1697 3084 1428 2787
Q 1159 2491 1159 1978
L 1159 0
L 581 0
L 581 4863
L 1159 4863
L 1159 2956
Q 1366 3272 1645 3428
Q 1925 3584 2291 3584
Q 2894 3584 3203 3211
Q 3513 2838 3513 2113
z
" transform="scale(0.015625)"/>
        <path id="DejaVuSans-b7" d="M 684 2619
L 1344 2619
L 1344 1825
L 684 1825
L 684 2619
z
" transform="scale(0.015625)"/>
        <path id="DejaVuSans-43" d="M 4122 4306
L 4122 3641
Q 3803 3938 3442 4084
Q 3081 4231 2675 4231
Q 1875 4231 1450 3742
Q 1025 3253 1025 2328
Q 1025 1406 1450 917
Q 1875 428 2675 428
Q 3081 428 3442 575
Q 3803 722 4122 1019
L 4122 359
Q 3791 134 3420 21
Q 3050 -91 2638 -91
Q 1578 -91 968 557
Q 359 1206 359 2328
Q 359 3453 968 4101
Q 1578 4750 2638 4750
Q 3056 4750 3426 4639
Q 3797 4528 4122 4306
z
" transform="scale(0.015625)"/>
        <path id="DejaVuSans-4e" d="M 628 4666
L 1478 4666
L 3547 763
L 3547 4666
L 4159 4666
L 4159 0
L 3309 0
L 1241 3903
L 1241 0
L 628 0
L 628 4666
z
" transform="scale(0.015625)"/>
       </defs>
       <use xlink:href="#DejaVuSans-48"/>
       <use xlink:href="#DejaVuSans-61" transform="translate(75.195312 0)"/>
       <use xlink:href="#DejaVuSans-6e" transform="translate(136.474609 0)"/>
       <use xlink:href="#DejaVuSans-67" transform="translate(199.853516 0)"/>
       <use xlink:href="#DejaVuSans-7a" transform="translate(263.330078 0)"/>
       <use xlink:href="#DejaVuSans-68" transform="translate(315.820312 0)"/>
       <use xlink:href="#DejaVuSans-6f" transform="translate(379.199219 0)"/>
       <use xlink:href="#DejaVuSans-75" transform="translate(440.380859 0)"/>
       <use xlink:href="#DejaVuSans-20" transform="translate(503.759766 0)"/>
       <use xlink:href="#DejaVuSans-b7" transform="translate(535.546875 0)"/>
       <use xlink:href="#DejaVuSans-20" transform="translate(567.333984 0)"/>
       <use xlink:href="#DejaVuSans-43" transform="translate(599.121094 0)"/>
       <use xlink:href="#DejaVuSans-48" transform="translate(668.945312 0)"/>
       <use xlink:href="#DejaVuSans-4e" transform="translate(744.140625 0)"/>
      </g>
     </g>
    </g>
    <g id="ytick_2">
     <g id="line2d_16"/>
     <g id="text_10">
      <!-- Yangon · MMR -->
      <g style="fill: #60707c" transform="translate(69.893813 422.573592) scale(0.1 -0.1)">
       <defs>
        <path id="DejaVuSans-59" d="M -13 4666
L 666 4666
L 1959 2747
L 3244 4666
L 3922 4666
L 2272 2222
L 2272 0
L 1638 0
L 1638 2222
L -13 4666
z
" transform="scale(0.015625)"/>
        <path id="DejaVuSans-4d" d="M 628 4666
L 1569 4666
L 2759 1491
L 3956 4666
L 4897 4666
L 4897 0
L 4281 0
L 4281 4097
L 3078 897
L 2444 897
L 1241 4097
L 1241 0
L 628 0
L 628 4666
z
" transform="scale(0.015625)"/>
        <path id="DejaVuSans-52" d="M 2841 2188
Q 3044 2119 3236 1894
Q 3428 1669 3622 1275
L 4263 0
L 3584 0
L 2988 1197
Q 2756 1666 2539 1819
Q 2322 1972 1947 1972
L 1259 1972
L 1259 0
L 628 0
L 628 4666
L 2053 4666
Q 2853 4666 3247 4331
Q 3641 3997 3641 3322
Q 3641 2881 3436 2590
Q 3231 2300 2841 2188
z
M 1259 4147
L 1259 2491
L 2053 2491
Q 2509 2491 2742 2702
Q 2975 2913 2975 3322
Q 2975 3731 2742 3939
Q 2509 4147 2053 4147
L 1259 4147
z
" transform="scale(0.015625)"/>
       </defs>
       <use xlink:href="#DejaVuSans-59"/>
       <use xlink:href="#DejaVuSans-61" transform="translate(47.333984 0)"/>
       <use xlink:href="#DejaVuSans-6e" transform="translate(108.613281 0)"/>
       <use xlink:href="#DejaVuSans-67" transform="translate(171.992188 0)"/>
       <use xlink:href="#DejaVuSans-6f" transform="translate(235.46875 0)"/>
       <use xlink:href="#DejaVuSans-6e" transform="translate(296.650391 0)"/>
       <use xlink:href="#DejaVuSans-20" transform="translate(360.029297 0)"/>
       <use xlink:href="#DejaVuSans-b7" transform="translate(391.816406 0)"/>
       <use xlink:href="#DejaVuSans-20" transform="translate(423.603516 0)"/>
       <use xlink:href="#DejaVuSans-4d" transform="translate(455.390625 0)"/>
       <use xlink:href="#DejaVuSans-4d" transform="translate(541.669922 0)"/>
       <use xlink:href="#DejaVuSans-52" transform="translate(627.949219 0)"/>
      </g>
     </g>
    </g>
    <g id="ytick_3">
     <g id="line2d_17"/>
     <g id="text_11">
      <!-- Karachi · PAK -->
      <g style="fill: #60707c" transform="translate(73.946938 400.981629) scale(0.1 -0.1)">
       <defs>
        <path id="DejaVuSans-4b" d="M 628 4666
L 1259 4666
L 1259 2694
L 3353 4666
L 4166 4666
L 1850 2491
L 4331 0
L 3500 0
L 1259 2247
L 1259 0
L 628 0
L 628 4666
z
" transform="scale(0.015625)"/>
        <path id="DejaVuSans-50" d="M 1259 4147
L 1259 2394
L 2053 2394
Q 2494 2394 2734 2622
Q 2975 2850 2975 3272
Q 2975 3691 2734 3919
Q 2494 4147 2053 4147
L 1259 4147
z
M 628 4666
L 2053 4666
Q 2838 4666 3239 4311
Q 3641 3956 3641 3272
Q 3641 2581 3239 2228
Q 2838 1875 2053 1875
L 1259 1875
L 1259 0
L 628 0
L 628 4666
z
" transform="scale(0.015625)"/>
       </defs>
       <use xlink:href="#DejaVuSans-4b"/>
       <use xlink:href="#DejaVuSans-61" transform="translate(63.826172 0)"/>
       <use xlink:href="#DejaVuSans-72" transform="translate(125.105469 0)"/>
       <use xlink:href="#DejaVuSans-61" transform="translate(166.21875 0)"/>
       <use xlink:href="#DejaVuSans-63" transform="translate(227.498047 0)"/>
       <use xlink:href="#DejaVuSans-68" transform="translate(282.478516 0)"/>
       <use xlink:href="#DejaVuSans-69" transform="translate(345.857422 0)"/>
       <use xlink:href="#DejaVuSans-20" transform="translate(373.640625 0)"/>
       <use xlink:href="#DejaVuSans-b7" transform="translate(405.427734 0)"/>
       <use xlink:href="#DejaVuSans-20" transform="translate(437.214844 0)"/>
       <use xlink:href="#DejaVuSans-50" transform="translate(469.001953 0)"/>
       <use xlink:href="#DejaVuSans-41" transform="translate(522.929688 0)"/>
       <use xlink:href="#DejaVuSans-4b" transform="translate(591.337891 0)"/>
      </g>
     </g>
    </g>
    <g id="ytick_4">
     <g id="line2d_18"/>
     <g id="text_12">
      <!-- Mumbai · IND -->
      <g style="fill: #60707c" transform="translate(72.009438 379.389666) scale(0.1 -0.1)">
       <defs>
        <path id="DejaVuSans-49" d="M 628 4666
L 1259 4666
L 1259 0
L 628 0
L 628 4666
z
" transform="scale(0.015625)"/>
        <path id="DejaVuSans-44" d="M 1259 4147
L 1259 519
L 2022 519
Q 2988 519 3436 956
Q 3884 1394 3884 2338
Q 3884 3275 3436 3711
Q 2988 4147 2022 4147
L 1259 4147
z
M 628 4666
L 1925 4666
Q 3281 4666 3915 4102
Q 4550 3538 4550 2338
Q 4550 1131 3912 565
Q 3275 0 1925 0
L 628 0
L 628 4666
z
" transform="scale(0.015625)"/>
       </defs>
       <use xlink:href="#DejaVuSans-4d"/>
       <use xlink:href="#DejaVuSans-75" transform="translate(86.279297 0)"/>
       <use xlink:href="#DejaVuSans-6d" transform="translate(149.658203 0)"/>
       <use xlink:href="#DejaVuSans-62" transform="translate(247.070312 0)"/>
       <use xlink:href="#DejaVuSans-61" transform="translate(310.546875 0)"/>
       <use xlink:href="#DejaVuSans-69" transform="translate(371.826172 0)"/>
       <use xlink:href="#DejaVuSans-20" transform="translate(399.609375 0)"/>
       <use xlink:href="#DejaVuSans-b7" transform="translate(431.396484 0)"/>
       <use xlink:href="#DejaVuSans-20" transform="translate(463.183594 0)"/>
       <use xlink:href="#DejaVuSans-49" transform="translate(494.970703 0)"/>
       <use xlink:href="#DejaVuSans-4e" transform="translate(524.462891 0)"/>
       <use xlink:href="#DejaVuSans-44" transform="translate(599.267578 0)"/>
      </g>
     </g>
    </g>
    <g id="ytick_5">
     <g id="line2d_19"/>
     <g id="text_13">
      <!-- Jakarta · IDN -->
      <g style="fill: #60707c" transform="translate(76.989125 357.797702) scale(0.1 -0.1)">
       <defs>
        <path id="DejaVuSans-4a" d="M 628 4666
L 1259 4666
L 1259 325
Q 1259 -519 939 -900
Q 619 -1281 -91 -1281
L -331 -1281
L -331 -750
L -134 -750
Q 284 -750 456 -515
Q 628 -281 628 325
L 628 4666
z
" transform="scale(0.015625)"/>
        <path id="DejaVuSans-6b" d="M 581 4863
L 1159 4863
L 1159 1991
L 2875 3500
L 3609 3500
L 1753 1863
L 3688 0
L 2938 0
L 1159 1709
L 1159 0
L 581 0
L 581 4863
z
" transform="scale(0.015625)"/>
       </defs>
       <use xlink:href="#DejaVuSans-4a"/>
       <use xlink:href="#DejaVuSans-61" transform="translate(29.492188 0)"/>
       <use xlink:href="#DejaVuSans-6b" transform="translate(90.771484 0)"/>
       <use xlink:href="#DejaVuSans-61" transform="translate(146.931641 0)"/>
       <use xlink:href="#DejaVuSans-72" transform="translate(208.210938 0)"/>
       <use xlink:href="#DejaVuSans-74" transform="translate(249.324219 0)"/>
       <use xlink:href="#DejaVuSans-61" transform="translate(288.533203 0)"/>
       <use xlink:href="#DejaVuSans-20" transform="translate(349.8125 0)"/>
       <use xlink:href="#DejaVuSans-b7" transform="translate(381.599609 0)"/>
       <use xlink:href="#DejaVuSans-20" transform="translate(413.386719 0)"/>
       <use xlink:href="#DejaVuSans-49" transform="translate(445.173828 0)"/>
       <use xlink:href="#DejaVuSans-44" transform="translate(474.666016 0)"/>
       <use xlink:href="#DejaVuSans-4e" transform="translate(551.667969 0)"/>
      </g>
     </g>
    </g>
    <g id="ytick_6">
     <g id="line2d_20"/>
     <g id="text_14">
      <!-- Surat · IND -->
      <g style="fill: #60707c" transform="translate(85.125063 336.205739) scale(0.1 -0.1)">
       <defs>
        <path id="DejaVuSans-53" d="M 3425 4513
L 3425 3897
Q 3066 4069 2747 4153
Q 2428 4238 2131 4238
Q 1616 4238 1336 4038
Q 1056 3838 1056 3469
Q 1056 3159 1242 3001
Q 1428 2844 1947 2747
L 2328 2669
Q 3034 2534 3370 2195
Q 3706 1856 3706 1288
Q 3706 609 3251 259
Q 2797 -91 1919 -91
Q 1588 -91 1214 -16
Q 841 59 441 206
L 441 856
Q 825 641 1194 531
Q 1563 422 1919 422
Q 2459 422 2753 634
Q 3047 847 3047 1241
Q 3047 1584 2836 1778
Q 2625 1972 2144 2069
L 1759 2144
Q 1053 2284 737 2584
Q 422 2884 422 3419
Q 422 4038 858 4394
Q 1294 4750 2059 4750
Q 2388 4750 2728 4690
Q 3069 4631 3425 4513
z
" transform="scale(0.015625)"/>
       </defs>
       <use xlink:href="#DejaVuSans-53"/>
       <use xlink:href="#DejaVuSans-75" transform="translate(63.476562 0)"/>
       <use xlink:href="#DejaVuSans-72" transform="translate(126.855469 0)"/>
       <use xlink:href="#DejaVuSans-61" transform="translate(167.96875 0)"/>
       <use xlink:href="#DejaVuSans-74" transform="translate(229.248047 0)"/>
       <use xlink:href="#DejaVuSans-20" transform="translate(268.457031 0)"/>
       <use xlink:href="#DejaVuSans-b7" transform="translate(300.244141 0)"/>
       <use xlink:href="#DejaVuSans-20" transform="translate(332.03125 0)"/>
       <use xlink:href="#DejaVuSans-49" transform="translate(363.818359 0)"/>
       <use xlink:href="#DejaVuSans-4e" transform="translate(393.310547 0)"/>
       <use xlink:href="#DejaVuSans-44" transform="translate(468.115234 0)"/>
      </g>
     </g>
    </g>
    <g id="ytick_7">
     <g id="line2d_21"/>
     <g id="text_15">
      <!-- Shantou · CHN -->
      <g style="fill: #60707c" transform="translate(66.589125 314.613776) scale(0.1 -0.1)">
       <use xlink:href="#DejaVuSans-53"/>
       <use xlink:href="#DejaVuSans-68" transform="translate(63.476562 0)"/>
       <use xlink:href="#DejaVuSans-61" transform="translate(126.855469 0)"/>
       <use xlink:href="#DejaVuSans-6e" transform="translate(188.134766 0)"/>
       <use xlink:href="#DejaVuSans-74" transform="translate(251.513672 0)"/>
       <use xlink:href="#DejaVuSans-6f" transform="translate(290.722656 0)"/>
       <use xlink:href="#DejaVuSans-75" transform="translate(351.904297 0)"/>
       <use xlink:href="#DejaVuSans-20" transform="translate(415.283203 0)"/>
       <use xlink:href="#DejaVuSans-b7" transform="translate(447.070312 0)"/>
       <use xlink:href="#DejaVuSans-20" transform="translate(478.857422 0)"/>
       <use xlink:href="#DejaVuSans-43" transform="translate(510.644531 0)"/>
       <use xlink:href="#DejaVuSans-48" transform="translate(580.46875 0)"/>
       <use xlink:href="#DejaVuSans-4e" transform="translate(655.664062 0)"/>
      </g>
     </g>
    </g>
    <g id="ytick_8">
     <g id="line2d_22"/>
     <g id="text_16">
      <!-- Kolkata · IND -->
      <g style="fill: #60707c" transform="translate(75.2235 293.021812) scale(0.1 -0.1)">
       <use xlink:href="#DejaVuSans-4b"/>
       <use xlink:href="#DejaVuSans-6f" transform="translate(60.576172 0)"/>
       <use xlink:href="#DejaVuSans-6c" transform="translate(121.757812 0)"/>
       <use xlink:href="#DejaVuSans-6b" transform="translate(149.541016 0)"/>
       <use xlink:href="#DejaVuSans-61" transform="translate(205.701172 0)"/>
       <use xlink:href="#DejaVuSans-74" transform="translate(266.980469 0)"/>
       <use xlink:href="#DejaVuSans-61" transform="translate(306.189453 0)"/>
       <use xlink:href="#DejaVuSans-20" transform="translate(367.46875 0)"/>
       <use xlink:href="#DejaVuSans-b7" transform="translate(399.255859 0)"/>
       <use xlink:href="#DejaVuSans-20" transform="translate(431.042969 0)"/>
       <use xlink:href="#DejaVuSans-49" transform="translate(462.830078 0)"/>
       <use xlink:href="#DejaVuSans-4e" transform="translate(492.322266 0)"/>
       <use xlink:href="#DejaVuSans-44" transform="translate(567.126953 0)"/>
      </g>
     </g>
    </g>
    <g id="ytick_9">
     <g id="line2d_23"/>
     <g id="text_17">
      <!-- Tianjin · CHN -->
      <g style="fill: #60707c" transform="translate(75.184438 271.429849) scale(0.1 -0.1)">
       <defs>
        <path id="DejaVuSans-54" d="M -19 4666
L 3928 4666
L 3928 4134
L 2272 4134
L 2272 0
L 1638 0
L 1638 4134
L -19 4134
L -19 4666
z
" transform="scale(0.015625)"/>
        <path id="DejaVuSans-6a" d="M 603 3500
L 1178 3500
L 1178 -63
Q 1178 -731 923 -1031
Q 669 -1331 103 -1331
L -116 -1331
L -116 -844
L 38 -844
Q 366 -844 484 -692
Q 603 -541 603 -63
L 603 3500
z
M 603 4863
L 1178 4863
L 1178 4134
L 603 4134
L 603 4863
z
" transform="scale(0.015625)"/>
       </defs>
       <use xlink:href="#DejaVuSans-54"/>
       <use xlink:href="#DejaVuSans-69" transform="translate(57.958984 0)"/>
       <use xlink:href="#DejaVuSans-61" transform="translate(85.742188 0)"/>
       <use xlink:href="#DejaVuSans-6e" transform="translate(147.021484 0)"/>
       <use xlink:href="#DejaVuSans-6a" transform="translate(210.400391 0)"/>
       <use xlink:href="#DejaVuSans-69" transform="translate(238.183594 0)"/>
       <use xlink:href="#DejaVuSans-6e" transform="translate(265.966797 0)"/>
       <use xlink:href="#DejaVuSans-20" transform="translate(329.345703 0)"/>
       <use xlink:href="#DejaVuSans-b7" transform="translate(361.132812 0)"/>
       <use xlink:href="#DejaVuSans-20" transform="translate(392.919922 0)"/>
       <use xlink:href="#DejaVuSans-43" transform="translate(424.707031 0)"/>
       <use xlink:href="#DejaVuSans-48" transform="translate(494.53125 0)"/>
       <use xlink:href="#DejaVuSans-4e" transform="translate(569.726562 0)"/>
      </g>
     </g>
    </g>
    <g id="ytick_10">
     <g id="line2d_24"/>
     <g id="text_18">
      <!-- Ho Chi Minh City · VNM -->
      <g style="fill: #60707c" transform="translate(24.1985 249.837886) scale(0.1 -0.1)">
       <defs>
        <path id="DejaVuSans-79" d="M 2059 -325
Q 1816 -950 1584 -1140
Q 1353 -1331 966 -1331
L 506 -1331
L 506 -850
L 844 -850
Q 1081 -850 1212 -737
Q 1344 -625 1503 -206
L 1606 56
L 191 3500
L 800 3500
L 1894 763
L 2988 3500
L 3597 3500
L 2059 -325
z
" transform="scale(0.015625)"/>
        <path id="DejaVuSans-56" d="M 1831 0
L 50 4666
L 709 4666
L 2188 738
L 3669 4666
L 4325 4666
L 2547 0
L 1831 0
z
" transform="scale(0.015625)"/>
       </defs>
       <use xlink:href="#DejaVuSans-48"/>
       <use xlink:href="#DejaVuSans-6f" transform="translate(75.195312 0)"/>
       <use xlink:href="#DejaVuSans-20" transform="translate(136.376953 0)"/>
       <use xlink:href="#DejaVuSans-43" transform="translate(168.164062 0)"/>
       <use xlink:href="#DejaVuSans-68" transform="translate(237.988281 0)"/>
       <use xlink:href="#DejaVuSans-69" transform="translate(301.367188 0)"/>
       <use xlink:href="#DejaVuSans-20" transform="translate(329.150391 0)"/>
       <use xlink:href="#DejaVuSans-4d" transform="translate(360.9375 0)"/>
       <use xlink:href="#DejaVuSans-69" transform="translate(447.216797 0)"/>
       <use xlink:href="#DejaVuSans-6e" transform="translate(475 0)"/>
       <use xlink:href="#DejaVuSans-68" transform="translate(538.378906 0)"/>
       <use xlink:href="#DejaVuSans-20" transform="translate(601.757812 0)"/>
       <use xlink:href="#DejaVuSans-43" transform="translate(633.544922 0)"/>
       <use xlink:href="#DejaVuSans-69" transform="translate(703.369141 0)"/>
       <use xlink:href="#DejaVuSans-74" transform="translate(731.152344 0)"/>
       <use xlink:href="#DejaVuSans-79" transform="translate(770.361328 0)"/>
       <use xlink:href="#DejaVuSans-20" transform="translate(829.541016 0)"/>
       <use xlink:href="#DejaVuSans-b7" transform="translate(861.328125 0)"/>
       <use xlink:href="#DejaVuSans-20" transform="translate(893.115234 0)"/>
       <use xlink:href="#DejaVuSans-56" transform="translate(924.902344 0)"/>
       <use xlink:href="#DejaVuSans-4e" transform="translate(993.310547 0)"/>
       <use xlink:href="#DejaVuSans-4d" transform="translate(1068.115234 0)"/>
      </g>
     </g>
    </g>
    <g id="ytick_11">
     <g id="line2d_25"/>
     <g id="text_19">
      <!-- Suzhou · CHN -->
      <g style="fill: #60707c" transform="translate(71.389125 228.245923) scale(0.1 -0.1)">
       <use xlink:href="#DejaVuSans-53"/>
       <use xlink:href="#DejaVuSans-75" transform="translate(63.476562 0)"/>
       <use xlink:href="#DejaVuSans-7a" transform="translate(126.855469 0)"/>
       <use xlink:href="#DejaVuSans-68" transform="translate(179.345703 0)"/>
       <use xlink:href="#DejaVuSans-6f" transform="translate(242.724609 0)"/>
       <use xlink:href="#DejaVuSans-75" transform="translate(303.90625 0)"/>
       <use xlink:href="#DejaVuSans-20" transform="translate(367.285156 0)"/>
       <use xlink:href="#DejaVuSans-b7" transform="translate(399.072266 0)"/>
       <use xlink:href="#DejaVuSans-20" transform="translate(430.859375 0)"/>
       <use xlink:href="#DejaVuSans-43" transform="translate(462.646484 0)"/>
       <use xlink:href="#DejaVuSans-48" transform="translate(532.470703 0)"/>
       <use xlink:href="#DejaVuSans-4e" transform="translate(607.666016 0)"/>
      </g>
     </g>
    </g>
    <g id="ytick_12">
     <g id="line2d_26"/>
     <g id="text_20">
      <!-- Guangzhou · CHN -->
      <g style="fill: #60707c" transform="translate(51.175063 206.653959) scale(0.1 -0.1)">
       <defs>
        <path id="DejaVuSans-47" d="M 3809 666
L 3809 1919
L 2778 1919
L 2778 2438
L 4434 2438
L 4434 434
Q 4069 175 3628 42
Q 3188 -91 2688 -91
Q 1594 -91 976 548
Q 359 1188 359 2328
Q 359 3472 976 4111
Q 1594 4750 2688 4750
Q 3144 4750 3555 4637
Q 3966 4525 4313 4306
L 4313 3634
Q 3963 3931 3569 4081
Q 3175 4231 2741 4231
Q 1884 4231 1454 3753
Q 1025 3275 1025 2328
Q 1025 1384 1454 906
Q 1884 428 2741 428
Q 3075 428 3337 486
Q 3600 544 3809 666
z
" transform="scale(0.015625)"/>
       </defs>
       <use xlink:href="#DejaVuSans-47"/>
       <use xlink:href="#DejaVuSans-75" transform="translate(77.490234 0)"/>
       <use xlink:href="#DejaVuSans-61" transform="translate(140.869141 0)"/>
       <use xlink:href="#DejaVuSans-6e" transform="translate(202.148438 0)"/>
       <use xlink:href="#DejaVuSans-67" transform="translate(265.527344 0)"/>
       <use xlink:href="#DejaVuSans-7a" transform="translate(329.003906 0)"/>
       <use xlink:href="#DejaVuSans-68" transform="translate(381.494141 0)"/>
       <use xlink:href="#DejaVuSans-6f" transform="translate(444.873047 0)"/>
       <use xlink:href="#DejaVuSans-75" transform="translate(506.054688 0)"/>
       <use xlink:href="#DejaVuSans-20" transform="translate(569.433594 0)"/>
       <use xlink:href="#DejaVuSans-b7" transform="translate(601.220703 0)"/>
       <use xlink:href="#DejaVuSans-20" transform="translate(633.007812 0)"/>
       <use xlink:href="#DejaVuSans-43" transform="translate(664.794922 0)"/>
       <use xlink:href="#DejaVuSans-48" transform="translate(734.619141 0)"/>
       <use xlink:href="#DejaVuSans-4e" transform="translate(809.814453 0)"/>
      </g>
     </g>
    </g>
    <g id="ytick_13">
     <g id="line2d_27"/>
     <g id="text_21">
      <!-- Dhaka · BGD -->
      <g style="fill: #60707c" transform="translate(76.057875 185.061996) scale(0.1 -0.1)">
       <defs>
        <path id="DejaVuSans-42" d="M 1259 2228
L 1259 519
L 2272 519
Q 2781 519 3026 730
Q 3272 941 3272 1375
Q 3272 1813 3026 2020
Q 2781 2228 2272 2228
L 1259 2228
z
M 1259 4147
L 1259 2741
L 2194 2741
Q 2656 2741 2882 2914
Q 3109 3088 3109 3444
Q 3109 3797 2882 3972
Q 2656 4147 2194 4147
L 1259 4147
z
M 628 4666
L 2241 4666
Q 2963 4666 3353 4366
Q 3744 4066 3744 3513
Q 3744 3084 3544 2831
Q 3344 2578 2956 2516
Q 3422 2416 3680 2098
Q 3938 1781 3938 1306
Q 3938 681 3513 340
Q 3088 0 2303 0
L 628 0
L 628 4666
z
" transform="scale(0.015625)"/>
       </defs>
       <use xlink:href="#DejaVuSans-44"/>
       <use xlink:href="#DejaVuSans-68" transform="translate(77.001953 0)"/>
       <use xlink:href="#DejaVuSans-61" transform="translate(140.380859 0)"/>
       <use xlink:href="#DejaVuSans-6b" transform="translate(201.660156 0)"/>
       <use xlink:href="#DejaVuSans-61" transform="translate(257.820312 0)"/>
       <use xlink:href="#DejaVuSans-20" transform="translate(319.099609 0)"/>
       <use xlink:href="#DejaVuSans-b7" transform="translate(350.886719 0)"/>
       <use xlink:href="#DejaVuSans-20" transform="translate(382.673828 0)"/>
       <use xlink:href="#DejaVuSans-42" transform="translate(414.460938 0)"/>
       <use xlink:href="#DejaVuSans-47" transform="translate(481.314453 0)"/>
       <use xlink:href="#DejaVuSans-44" transform="translate(558.804688 0)"/>
      </g>
     </g>
    </g>
    <g id="ytick_14">
     <g id="line2d_28"/>
     <g id="text_22">
      <!-- Bangkok · THA -->
      <g style="fill: #60707c" transform="translate(66.620375 163.470033) scale(0.1 -0.1)">
       <use xlink:href="#DejaVuSans-42"/>
       <use xlink:href="#DejaVuSans-61" transform="translate(68.603516 0)"/>
       <use xlink:href="#DejaVuSans-6e" transform="translate(129.882812 0)"/>
       <use xlink:href="#DejaVuSans-67" transform="translate(193.261719 0)"/>
       <use xlink:href="#DejaVuSans-6b" transform="translate(256.738281 0)"/>
       <use xlink:href="#DejaVuSans-6f" transform="translate(311.023438 0)"/>
       <use xlink:href="#DejaVuSans-6b" transform="translate(372.205078 0)"/>
       <use xlink:href="#DejaVuSans-20" transform="translate(430.115234 0)"/>
       <use xlink:href="#DejaVuSans-b7" transform="translate(461.902344 0)"/>
       <use xlink:href="#DejaVuSans-20" transform="translate(493.689453 0)"/>
       <use xlink:href="#DejaVuSans-54" transform="translate(525.476562 0)"/>
       <use xlink:href="#DejaVuSans-48" transform="translate(586.560547 0)"/>
       <use xlink:href="#DejaVuSans-41" transform="translate(661.755859 0)"/>
      </g>
     </g>
    </g>
    <g id="ytick_15">
     <g id="line2d_29"/>
     <g id="text_23">
      <!-- Shanghai · CHN -->
      <g style="fill: #60707c" transform="translate(61.3735 141.878069) scale(0.1 -0.1)">
       <use xlink:href="#DejaVuSans-53"/>
       <use xlink:href="#DejaVuSans-68" transform="translate(63.476562 0)"/>
       <use xlink:href="#DejaVuSans-61" transform="translate(126.855469 0)"/>
       <use xlink:href="#DejaVuSans-6e" transform="translate(188.134766 0)"/>
       <use xlink:href="#DejaVuSans-67" transform="translate(251.513672 0)"/>
       <use xlink:href="#DejaVuSans-68" transform="translate(314.990234 0)"/>
       <use xlink:href="#DejaVuSans-61" transform="translate(378.369141 0)"/>
       <use xlink:href="#DejaVuSans-69" transform="translate(439.648438 0)"/>
       <use xlink:href="#DejaVuSans-20" transform="translate(467.431641 0)"/>
       <use xlink:href="#DejaVuSans-b7" transform="translate(499.21875 0)"/>
       <use xlink:href="#DejaVuSans-20" transform="translate(531.005859 0)"/>
       <use xlink:href="#DejaVuSans-43" transform="translate(562.792969 0)"/>
       <use xlink:href="#DejaVuSans-48" transform="translate(632.617188 0)"/>
       <use xlink:href="#DejaVuSans-4e" transform="translate(707.8125 0)"/>
      </g>
     </g>
    </g>
   </g>
   <g id="patch_3">
    <path d="M 143.136 447.491685
L 193.810226 447.491685
L 193.810226 433.240989
L 143.136 433.240989
z
" clip-path="url(#p2c5d6a319e)" style="fill: #d95f02"/>
   </g>
   <g id="patch_4">
    <path d="M 143.136 425.899721
L 205.721411 425.899721
L 205.721411 411.649026
L 143.136 411.649026
z
" clip-path="url(#p2c5d6a319e)" style="fill: #d95f02"/>
   </g>
   <g id="patch_5">
    <path d="M 143.136 404.307758
L 209.01794 404.307758
L 209.01794 390.057062
L 143.136 390.057062
z
" clip-path="url(#p2c5d6a319e)" style="fill: #d95f02"/>
   </g>
   <g id="patch_6">
    <path d="M 143.136 382.715795
L 212.897048 382.715795
L 212.897048 368.465099
L 143.136 368.465099
z
" clip-path="url(#p2c5d6a319e)" style="fill: #d95f02"/>
   </g>
   <g id="patch_7">
    <path d="M 143.136 361.123832
L 217.543337 361.123832
L 217.543337 346.873136
L 143.136 346.873136
z
" clip-path="url(#p2c5d6a319e)" style="fill: #d95f02"/>
   </g>
   <g id="patch_8">
    <path d="M 143.136 339.531868
L 219.229972 339.531868
L 219.229972 325.281172
L 143.136 325.281172
z
" clip-path="url(#p2c5d6a319e)" style="fill: #d95f02"/>
   </g>
   <g id="patch_9">
    <path d="M 143.136 317.939905
L 227.083684 317.939905
L 227.083684 303.689209
L 143.136 303.689209
z
" clip-path="url(#p2c5d6a319e)" style="fill: #d95f02"/>
   </g>
   <g id="patch_10">
    <path d="M 143.136 296.347942
L 273.999013 296.347942
L 273.999013 282.097246
L 143.136 282.097246
z
" clip-path="url(#p2c5d6a319e)" style="fill: #d95f02"/>
   </g>
   <g id="patch_11">
    <path d="M 143.136 274.755978
L 274.599159 274.755978
L 274.599159 260.505283
L 143.136 260.505283
z
" clip-path="url(#p2c5d6a319e)" style="fill: #d95f02"/>
   </g>
   <g id="patch_12">
    <path d="M 143.136 253.164015
L 337.052551 253.164015
L 337.052551 238.913319
L 143.136 238.913319
z
" clip-path="url(#p2c5d6a319e)" style="fill: #d95f02"/>
   </g>
   <g id="patch_13">
    <path d="M 143.136 231.572052
L 341.445788 231.572052
L 341.445788 217.321356
L 143.136 217.321356
z
" clip-path="url(#p2c5d6a319e)" style="fill: #d95f02"/>
   </g>
   <g id="patch_14">
    <path d="M 143.136 209.980088
L 358.513756 209.980088
L 358.513756 195.729393
L 143.136 195.729393
z
" clip-path="url(#p2c5d6a319e)" style="fill: #d95f02"/>
   </g>
   <g id="patch_15">
    <path d="M 143.136 188.388125
L 497.700287 188.388125
L 497.700287 174.137429
L 143.136 174.137429
z
" clip-path="url(#p2c5d6a319e)" style="fill: #d95f02"/>
   </g>
   <g id="patch_16">
    <path d="M 143.136 166.796162
L 535.271364 166.796162
L 535.271364 152.545466
L 143.136 152.545466
z
" clip-path="url(#p2c5d6a319e)" style="fill: #d95f02"/>
   </g>
   <g id="patch_17">
    <path d="M 143.136 145.204199
L 725.718857 145.204199
L 725.718857 130.953503
L 143.136 130.953503
z
" clip-path="url(#p2c5d6a319e)" style="fill: #d95f02"/>
   </g>
   <g id="text_24">
    <!-- +1.04m -->
    <g transform="translate(199.649875 442.711806) scale(0.085 -0.085)">
     <defs>
      <path id="DejaVuSans-2b" d="M 2944 4013
L 2944 2272
L 4684 2272
L 4684 1741
L 2944 1741
L 2944 0
L 2419 0
L 2419 1741
L 678 1741
L 678 2272
L 2419 2272
L 2419 4013
L 2944 4013
z
" transform="scale(0.015625)"/>
      <path id="DejaVuSans-2e" d="M 684 794
L 1344 794
L 1344 0
L 684 0
L 684 794
z
" transform="scale(0.015625)"/>
     </defs>
     <use xlink:href="#DejaVuSans-2b"/>
     <use xlink:href="#DejaVuSans-31" transform="translate(83.789062 0)"/>
     <use xlink:href="#DejaVuSans-2e" transform="translate(147.412109 0)"/>
     <use xlink:href="#DejaVuSans-30" transform="translate(179.199219 0)"/>
     <use xlink:href="#DejaVuSans-34" transform="translate(242.822266 0)"/>
     <use xlink:href="#DejaVuSans-6d" transform="translate(306.445312 0)"/>
    </g>
   </g>
   <g id="text_25">
    <!-- +1.29m -->
    <g transform="translate(211.561061 421.119842) scale(0.085 -0.085)">
     <defs>
      <path id="DejaVuSans-39" d="M 703 97
L 703 672
Q 941 559 1184 500
Q 1428 441 1663 441
Q 2288 441 2617 861
Q 2947 1281 2994 2138
Q 2813 1869 2534 1725
Q 2256 1581 1919 1581
Q 1219 1581 811 2004
Q 403 2428 403 3163
Q 403 3881 828 4315
Q 1253 4750 1959 4750
Q 2769 4750 3195 4129
Q 3622 3509 3622 2328
Q 3622 1225 3098 567
Q 2575 -91 1691 -91
Q 1453 -91 1209 -44
Q 966 3 703 97
z
M 1959 2075
Q 2384 2075 2632 2365
Q 2881 2656 2881 3163
Q 2881 3666 2632 3958
Q 2384 4250 1959 4250
Q 1534 4250 1286 3958
Q 1038 3666 1038 3163
Q 1038 2656 1286 2365
Q 1534 2075 1959 2075
z
" transform="scale(0.015625)"/>
     </defs>
     <use xlink:href="#DejaVuSans-2b"/>
     <use xlink:href="#DejaVuSans-31" transform="translate(83.789062 0)"/>
     <use xlink:href="#DejaVuSans-2e" transform="translate(147.412109 0)"/>
     <use xlink:href="#DejaVuSans-32" transform="translate(179.199219 0)"/>
     <use xlink:href="#DejaVuSans-39" transform="translate(242.822266 0)"/>
     <use xlink:href="#DejaVuSans-6d" transform="translate(306.445312 0)"/>
    </g>
   </g>
   <g id="text_26">
    <!-- +1.35m -->
    <g transform="translate(214.857589 399.527879) scale(0.085 -0.085)">
     <defs>
      <path id="DejaVuSans-33" d="M 2597 2516
Q 3050 2419 3304 2112
Q 3559 1806 3559 1356
Q 3559 666 3084 287
Q 2609 -91 1734 -91
Q 1441 -91 1130 -33
Q 819 25 488 141
L 488 750
Q 750 597 1062 519
Q 1375 441 1716 441
Q 2309 441 2620 675
Q 2931 909 2931 1356
Q 2931 1769 2642 2001
Q 2353 2234 1838 2234
L 1294 2234
L 1294 2753
L 1863 2753
Q 2328 2753 2575 2939
Q 2822 3125 2822 3475
Q 2822 3834 2567 4026
Q 2313 4219 1838 4219
Q 1578 4219 1281 4162
Q 984 4106 628 3988
L 628 4550
Q 988 4650 1302 4700
Q 1616 4750 1894 4750
Q 2613 4750 3031 4423
Q 3450 4097 3450 3541
Q 3450 3153 3228 2886
Q 3006 2619 2597 2516
z
" transform="scale(0.015625)"/>
      <path id="DejaVuSans-35" d="M 691 4666
L 3169 4666
L 3169 4134
L 1269 4134
L 1269 2991
Q 1406 3038 1543 3061
Q 1681 3084 1819 3084
Q 2600 3084 3056 2656
Q 3513 2228 3513 1497
Q 3513 744 3044 326
Q 2575 -91 1722 -91
Q 1428 -91 1123 -41
Q 819 9 494 109
L 494 744
Q 775 591 1075 516
Q 1375 441 1709 441
Q 2250 441 2565 725
Q 2881 1009 2881 1497
Q 2881 1984 2565 2268
Q 2250 2553 1709 2553
Q 1456 2553 1204 2497
Q 953 2441 691 2322
L 691 4666
z
" transform="scale(0.015625)"/>
     </defs>
     <use xlink:href="#DejaVuSans-2b"/>
     <use xlink:href="#DejaVuSans-31" transform="translate(83.789062 0)"/>
     <use xlink:href="#DejaVuSans-2e" transform="translate(147.412109 0)"/>
     <use xlink:href="#DejaVuSans-33" transform="translate(179.199219 0)"/>
     <use xlink:href="#DejaVuSans-35" transform="translate(242.822266 0)"/>
     <use xlink:href="#DejaVuSans-6d" transform="translate(306.445312 0)"/>
    </g>
   </g>
   <g id="text_27">
    <!-- +1.43m -->
    <g transform="translate(218.736698 377.935916) scale(0.085 -0.085)">
     <use xlink:href="#DejaVuSans-2b"/>
     <use xlink:href="#DejaVuSans-31" transform="translate(83.789062 0)"/>
     <use xlink:href="#DejaVuSans-2e" transform="translate(147.412109 0)"/>
     <use xlink:href="#DejaVuSans-34" transform="translate(179.199219 0)"/>
     <use xlink:href="#DejaVuSans-33" transform="translate(242.822266 0)"/>
     <use xlink:href="#DejaVuSans-6d" transform="translate(306.445312 0)"/>
    </g>
   </g>
   <g id="text_28">
    <!-- +1.53m -->
    <g transform="translate(223.382987 356.343952) scale(0.085 -0.085)">
     <use xlink:href="#DejaVuSans-2b"/>
     <use xlink:href="#DejaVuSans-31" transform="translate(83.789062 0)"/>
     <use xlink:href="#DejaVuSans-2e" transform="translate(147.412109 0)"/>
     <use xlink:href="#DejaVuSans-35" transform="translate(179.199219 0)"/>
     <use xlink:href="#DejaVuSans-33" transform="translate(242.822266 0)"/>
     <use xlink:href="#DejaVuSans-6d" transform="translate(306.445312 0)"/>
    </g>
   </g>
   <g id="text_29">
    <!-- +1.56m -->
    <g transform="translate(225.069622 334.751989) scale(0.085 -0.085)">
     <use xlink:href="#DejaVuSans-2b"/>
     <use xlink:href="#DejaVuSans-31" transform="translate(83.789062 0)"/>
     <use xlink:href="#DejaVuSans-2e" transform="translate(147.412109 0)"/>
     <use xlink:href="#DejaVuSans-35" transform="translate(179.199219 0)"/>
     <use xlink:href="#DejaVuSans-36" transform="translate(242.822266 0)"/>
     <use xlink:href="#DejaVuSans-6d" transform="translate(306.445312 0)"/>
    </g>
   </g>
   <g id="text_30">
    <!-- +1.73m -->
    <g transform="translate(232.923334 313.160026) scale(0.085 -0.085)">
     <defs>
      <path id="DejaVuSans-37" d="M 525 4666
L 3525 4666
L 3525 4397
L 1831 0
L 1172 0
L 2766 4134
L 525 4134
L 525 4666
z
" transform="scale(0.015625)"/>
     </defs>
     <use xlink:href="#DejaVuSans-2b"/>
     <use xlink:href="#DejaVuSans-31" transform="translate(83.789062 0)"/>
     <use xlink:href="#DejaVuSans-2e" transform="translate(147.412109 0)"/>
     <use xlink:href="#DejaVuSans-37" transform="translate(179.199219 0)"/>
     <use xlink:href="#DejaVuSans-33" transform="translate(242.822266 0)"/>
     <use xlink:href="#DejaVuSans-6d" transform="translate(306.445312 0)"/>
    </g>
   </g>
   <g id="text_31">
    <!-- +2.69m -->
    <g transform="translate(279.838663 291.568062) scale(0.085 -0.085)">
     <use xlink:href="#DejaVuSans-2b"/>
     <use xlink:href="#DejaVuSans-32" transform="translate(83.789062 0)"/>
     <use xlink:href="#DejaVuSans-2e" transform="translate(147.412109 0)"/>
     <use xlink:href="#DejaVuSans-36" transform="translate(179.199219 0)"/>
     <use xlink:href="#DejaVuSans-39" transform="translate(242.822266 0)"/>
     <use xlink:href="#DejaVuSans-6d" transform="translate(306.445312 0)"/>
    </g>
   </g>
   <g id="text_32">
    <!-- +2.70m -->
    <g transform="translate(280.438808 269.976099) scale(0.085 -0.085)">
     <use xlink:href="#DejaVuSans-2b"/>
     <use xlink:href="#DejaVuSans-32" transform="translate(83.789062 0)"/>
     <use xlink:href="#DejaVuSans-2e" transform="translate(147.412109 0)"/>
     <use xlink:href="#DejaVuSans-37" transform="translate(179.199219 0)"/>
     <use xlink:href="#DejaVuSans-30" transform="translate(242.822266 0)"/>
     <use xlink:href="#DejaVuSans-6d" transform="translate(306.445312 0)"/>
    </g>
   </g>
   <g id="text_33">
    <!-- +3.98m -->
    <g transform="translate(342.892201 248.384136) scale(0.085 -0.085)">
     <use xlink:href="#DejaVuSans-2b"/>
     <use xlink:href="#DejaVuSans-33" transform="translate(83.789062 0)"/>
     <use xlink:href="#DejaVuSans-2e" transform="translate(147.412109 0)"/>
     <use xlink:href="#DejaVuSans-39" transform="translate(179.199219 0)"/>
     <use xlink:href="#DejaVuSans-38" transform="translate(242.822266 0)"/>
     <use xlink:href="#DejaVuSans-6d" transform="translate(306.445312 0)"/>
    </g>
   </g>
   <g id="text_34">
    <!-- +4.08m -->
    <g transform="translate(347.285438 226.792173) scale(0.085 -0.085)">
     <use xlink:href="#DejaVuSans-2b"/>
     <use xlink:href="#DejaVuSans-34" transform="translate(83.789062 0)"/>
     <use xlink:href="#DejaVuSans-2e" transform="translate(147.412109 0)"/>
     <use xlink:href="#DejaVuSans-30" transform="translate(179.199219 0)"/>
     <use xlink:href="#DejaVuSans-38" transform="translate(242.822266 0)"/>
     <use xlink:href="#DejaVuSans-6d" transform="translate(306.445312 0)"/>
    </g>
   </g>
   <g id="text_35">
    <!-- +4.43m -->
    <g transform="translate(364.353406 205.200209) scale(0.085 -0.085)">
     <use xlink:href="#DejaVuSans-2b"/>
     <use xlink:href="#DejaVuSans-34" transform="translate(83.789062 0)"/>
     <use xlink:href="#DejaVuSans-2e" transform="translate(147.412109 0)"/>
     <use xlink:href="#DejaVuSans-34" transform="translate(179.199219 0)"/>
     <use xlink:href="#DejaVuSans-33" transform="translate(242.822266 0)"/>
     <use xlink:href="#DejaVuSans-6d" transform="translate(306.445312 0)"/>
    </g>
   </g>
   <g id="text_36">
    <!-- +7.29m -->
    <g transform="translate(503.539936 183.608246) scale(0.085 -0.085)">
     <use xlink:href="#DejaVuSans-2b"/>
     <use xlink:href="#DejaVuSans-37" transform="translate(83.789062 0)"/>
     <use xlink:href="#DejaVuSans-2e" transform="translate(147.412109 0)"/>
     <use xlink:href="#DejaVuSans-32" transform="translate(179.199219 0)"/>
     <use xlink:href="#DejaVuSans-39" transform="translate(242.822266 0)"/>
     <use xlink:href="#DejaVuSans-6d" transform="translate(306.445312 0)"/>
    </g>
   </g>
   <g id="text_37">
    <!-- +8.06m -->
    <g transform="translate(541.111014 162.016283) scale(0.085 -0.085)">
     <use xlink:href="#DejaVuSans-2b"/>
     <use xlink:href="#DejaVuSans-38" transform="translate(83.789062 0)"/>
     <use xlink:href="#DejaVuSans-2e" transform="translate(147.412109 0)"/>
     <use xlink:href="#DejaVuSans-30" transform="translate(179.199219 0)"/>
     <use xlink:href="#DejaVuSans-36" transform="translate(242.822266 0)"/>
     <use xlink:href="#DejaVuSans-6d" transform="translate(306.445312 0)"/>
    </g>
   </g>
   <g id="text_38">
    <!-- +11.97m -->
    <g transform="translate(731.558507 140.424319) scale(0.085 -0.085)">
     <use xlink:href="#DejaVuSans-2b"/>
     <use xlink:href="#DejaVuSans-31" transform="translate(83.789062 0)"/>
     <use xlink:href="#DejaVuSans-31" transform="translate(147.412109 0)"/>
     <use xlink:href="#DejaVuSans-2e" transform="translate(211.035156 0)"/>
     <use xlink:href="#DejaVuSans-39" transform="translate(242.822266 0)"/>
     <use xlink:href="#DejaVuSans-37" transform="translate(306.445312 0)"/>
     <use xlink:href="#DejaVuSans-6d" transform="translate(370.068359 0)"/>
    </g>
   </g>
  </g>
  <g id="text_39">
   <!-- FINDING · REPORTED LECZ CENTRES -->
   <g style="fill: #d95f02" transform="translate(7.2 14.038594) scale(0.09 -0.09)">
    <defs>
     <path id="DejaVuSans-Bold-46" d="M 588 4666
L 3834 4666
L 3834 3756
L 1791 3756
L 1791 2888
L 3713 2888
L 3713 1978
L 1791 1978
L 1791 0
L 588 0
L 588 4666
z
" transform="scale(0.015625)"/>
     <path id="DejaVuSans-Bold-49" d="M 588 4666
L 1791 4666
L 1791 0
L 588 0
L 588 4666
z
" transform="scale(0.015625)"/>
     <path id="DejaVuSans-Bold-4e" d="M 588 4666
L 1931 4666
L 3628 1466
L 3628 4666
L 4769 4666
L 4769 0
L 3425 0
L 1728 3200
L 1728 0
L 588 0
L 588 4666
z
" transform="scale(0.015625)"/>
     <path id="DejaVuSans-Bold-44" d="M 1791 3756
L 1791 909
L 2222 909
Q 2959 909 3348 1275
Q 3738 1641 3738 2338
Q 3738 3031 3350 3393
Q 2963 3756 2222 3756
L 1791 3756
z
M 588 4666
L 1856 4666
Q 2919 4666 3439 4514
Q 3959 4363 4331 4000
Q 4659 3684 4818 3271
Q 4978 2859 4978 2338
Q 4978 1809 4818 1395
Q 4659 981 4331 666
Q 3956 303 3431 151
Q 2906 0 1856 0
L 588 0
L 588 4666
z
" transform="scale(0.015625)"/>
     <path id="DejaVuSans-Bold-47" d="M 4781 347
Q 4331 128 3847 18
Q 3363 -91 2847 -91
Q 1681 -91 1000 561
Q 319 1213 319 2328
Q 319 3456 1012 4103
Q 1706 4750 2913 4750
Q 3378 4750 3804 4662
Q 4231 4575 4609 4403
L 4609 3438
Q 4219 3659 3833 3768
Q 3447 3878 3059 3878
Q 2341 3878 1952 3476
Q 1563 3075 1563 2328
Q 1563 1588 1938 1184
Q 2313 781 3003 781
Q 3191 781 3352 804
Q 3513 828 3641 878
L 3641 1784
L 2906 1784
L 2906 2591
L 4781 2591
L 4781 347
z
" transform="scale(0.015625)"/>
     <path id="DejaVuSans-Bold-20" transform="scale(0.015625)"/>
     <path id="DejaVuSans-Bold-b7" d="M 653 2828
L 1778 2828
L 1778 1619
L 653 1619
L 653 2828
z
" transform="scale(0.015625)"/>
     <path id="DejaVuSans-Bold-52" d="M 2297 2597
Q 2675 2597 2839 2737
Q 3003 2878 3003 3200
Q 3003 3519 2839 3656
Q 2675 3794 2297 3794
L 1791 3794
L 1791 2597
L 2297 2597
z
M 1791 1766
L 1791 0
L 588 0
L 588 4666
L 2425 4666
Q 3347 4666 3776 4356
Q 4206 4047 4206 3378
Q 4206 2916 3982 2619
Q 3759 2322 3309 2181
Q 3556 2125 3751 1926
Q 3947 1728 4147 1325
L 4800 0
L 3519 0
L 2950 1159
Q 2778 1509 2601 1637
Q 2425 1766 2131 1766
L 1791 1766
z
" transform="scale(0.015625)"/>
     <path id="DejaVuSans-Bold-45" d="M 588 4666
L 3834 4666
L 3834 3756
L 1791 3756
L 1791 2888
L 3713 2888
L 3713 1978
L 1791 1978
L 1791 909
L 3903 909
L 3903 0
L 588 0
L 588 4666
z
" transform="scale(0.015625)"/>
     <path id="DejaVuSans-Bold-50" d="M 588 4666
L 2584 4666
Q 3475 4666 3951 4270
Q 4428 3875 4428 3144
Q 4428 2409 3951 2014
Q 3475 1619 2584 1619
L 1791 1619
L 1791 0
L 588 0
L 588 4666
z
M 1791 3794
L 1791 2491
L 2456 2491
Q 2806 2491 2997 2661
Q 3188 2831 3188 3144
Q 3188 3456 2997 3625
Q 2806 3794 2456 3794
L 1791 3794
z
" transform="scale(0.015625)"/>
     <path id="DejaVuSans-Bold-4f" d="M 2719 3878
Q 2169 3878 1866 3472
Q 1563 3066 1563 2328
Q 1563 1594 1866 1187
Q 2169 781 2719 781
Q 3272 781 3575 1187
Q 3878 1594 3878 2328
Q 3878 3066 3575 3472
Q 3272 3878 2719 3878
z
M 2719 4750
Q 3844 4750 4481 4106
Q 5119 3463 5119 2328
Q 5119 1197 4481 553
Q 3844 -91 2719 -91
Q 1597 -91 958 553
Q 319 1197 319 2328
Q 319 3463 958 4106
Q 1597 4750 2719 4750
z
" transform="scale(0.015625)"/>
     <path id="DejaVuSans-Bold-54" d="M 31 4666
L 4331 4666
L 4331 3756
L 2784 3756
L 2784 0
L 1581 0
L 1581 3756
L 31 3756
L 31 4666
z
" transform="scale(0.015625)"/>
     <path id="DejaVuSans-Bold-4c" d="M 588 4666
L 1791 4666
L 1791 909
L 3903 909
L 3903 0
L 588 0
L 588 4666
z
" transform="scale(0.015625)"/>
     <path id="DejaVuSans-Bold-43" d="M 4288 256
Q 3956 84 3597 -3
Q 3238 -91 2847 -91
Q 1681 -91 1000 561
Q 319 1213 319 2328
Q 319 3447 1000 4098
Q 1681 4750 2847 4750
Q 3238 4750 3597 4662
Q 3956 4575 4288 4403
L 4288 3438
Q 3953 3666 3628 3772
Q 3303 3878 2944 3878
Q 2300 3878 1931 3465
Q 1563 3053 1563 2328
Q 1563 1606 1931 1193
Q 2300 781 2944 781
Q 3303 781 3628 887
Q 3953 994 4288 1222
L 4288 256
z
" transform="scale(0.015625)"/>
     <path id="DejaVuSans-Bold-5a" d="M 359 4666
L 4281 4666
L 4281 3938
L 1778 909
L 4353 909
L 4353 0
L 288 0
L 288 728
L 2791 3756
L 359 3756
L 359 4666
z
" transform="scale(0.015625)"/>
     <path id="DejaVuSans-Bold-53" d="M 3834 4519
L 3834 3531
Q 3450 3703 3084 3790
Q 2719 3878 2394 3878
Q 1963 3878 1756 3759
Q 1550 3641 1550 3391
Q 1550 3203 1689 3098
Q 1828 2994 2194 2919
L 2706 2816
Q 3484 2659 3812 2340
Q 4141 2022 4141 1434
Q 4141 663 3683 286
Q 3225 -91 2284 -91
Q 1841 -91 1394 -6
Q 947 78 500 244
L 500 1259
Q 947 1022 1364 901
Q 1781 781 2169 781
Q 2563 781 2772 912
Q 2981 1044 2981 1288
Q 2981 1506 2839 1625
Q 2697 1744 2272 1838
L 1806 1941
Q 1106 2091 782 2419
Q 459 2747 459 3303
Q 459 4000 909 4375
Q 1359 4750 2203 4750
Q 2588 4750 2994 4692
Q 3400 4634 3834 4519
z
" transform="scale(0.015625)"/>
    </defs>
    <use xlink:href="#DejaVuSans-Bold-46"/>
    <use xlink:href="#DejaVuSans-Bold-49" transform="translate(68.310547 0)"/>
    <use xlink:href="#DejaVuSans-Bold-4e" transform="translate(105.517578 0)"/>
    <use xlink:href="#DejaVuSans-Bold-44" transform="translate(189.208984 0)"/>
    <use xlink:href="#DejaVuSans-Bold-49" transform="translate(272.216797 0)"/>
    <use xlink:href="#DejaVuSans-Bold-4e" transform="translate(309.423828 0)"/>
    <use xlink:href="#DejaVuSans-Bold-47" transform="translate(393.115234 0)"/>
    <use xlink:href="#DejaVuSans-Bold-20" transform="translate(475.195312 0)"/>
    <use xlink:href="#DejaVuSans-Bold-b7" transform="translate(510.009766 0)"/>
    <use xlink:href="#DejaVuSans-Bold-20" transform="translate(547.998047 0)"/>
    <use xlink:href="#DejaVuSans-Bold-52" transform="translate(582.8125 0)"/>
    <use xlink:href="#DejaVuSans-Bold-45" transform="translate(659.814453 0)"/>
    <use xlink:href="#DejaVuSans-Bold-50" transform="translate(728.125 0)"/>
    <use xlink:href="#DejaVuSans-Bold-4f" transform="translate(801.416016 0)"/>
    <use xlink:href="#DejaVuSans-Bold-52" transform="translate(886.425781 0)"/>
    <use xlink:href="#DejaVuSans-Bold-54" transform="translate(958.927734 0)"/>
    <use xlink:href="#DejaVuSans-Bold-45" transform="translate(1027.140625 0)"/>
    <use xlink:href="#DejaVuSans-Bold-44" transform="translate(1095.451172 0)"/>
    <use xlink:href="#DejaVuSans-Bold-20" transform="translate(1178.458984 0)"/>
    <use xlink:href="#DejaVuSans-Bold-4c" transform="translate(1213.273438 0)"/>
    <use xlink:href="#DejaVuSans-Bold-45" transform="translate(1276.994141 0)"/>
    <use xlink:href="#DejaVuSans-Bold-43" transform="translate(1345.304688 0)"/>
    <use xlink:href="#DejaVuSans-Bold-5a" transform="translate(1418.693359 0)"/>
    <use xlink:href="#DejaVuSans-Bold-20" transform="translate(1491.203125 0)"/>
    <use xlink:href="#DejaVuSans-Bold-43" transform="translate(1526.017578 0)"/>
    <use xlink:href="#DejaVuSans-Bold-45" transform="translate(1599.40625 0)"/>
    <use xlink:href="#DejaVuSans-Bold-4e" transform="translate(1667.716797 0)"/>
    <use xlink:href="#DejaVuSans-Bold-54" transform="translate(1751.408203 0)"/>
    <use xlink:href="#DejaVuSans-Bold-52" transform="translate(1819.621094 0)"/>
    <use xlink:href="#DejaVuSans-Bold-45" transform="translate(1896.623047 0)"/>
    <use xlink:href="#DejaVuSans-Bold-53" transform="translate(1964.933594 0)"/>
   </g>
  </g>
  <g id="text_40">
   <!-- The recorded low-elevation population grew by 90.9 million -->
   <g style="fill: #17202a" transform="translate(7.2 44.926594) scale(0.2 -0.2)">
    <defs>
     <path id="DejaVuSans-Bold-68" d="M 4056 2131
L 4056 0
L 2931 0
L 2931 347
L 2931 1625
Q 2931 2084 2911 2256
Q 2891 2428 2841 2509
Q 2775 2619 2662 2680
Q 2550 2741 2406 2741
Q 2056 2741 1856 2470
Q 1656 2200 1656 1722
L 1656 0
L 538 0
L 538 4863
L 1656 4863
L 1656 2988
Q 1909 3294 2193 3439
Q 2478 3584 2822 3584
Q 3428 3584 3742 3212
Q 4056 2841 4056 2131
z
" transform="scale(0.015625)"/>
     <path id="DejaVuSans-Bold-65" d="M 4031 1759
L 4031 1441
L 1416 1441
Q 1456 1047 1700 850
Q 1944 653 2381 653
Q 2734 653 3104 758
Q 3475 863 3866 1075
L 3866 213
Q 3469 63 3072 -14
Q 2675 -91 2278 -91
Q 1328 -91 801 392
Q 275 875 275 1747
Q 275 2603 792 3093
Q 1309 3584 2216 3584
Q 3041 3584 3536 3087
Q 4031 2591 4031 1759
z
M 2881 2131
Q 2881 2450 2695 2645
Q 2509 2841 2209 2841
Q 1884 2841 1681 2658
Q 1478 2475 1428 2131
L 2881 2131
z
" transform="scale(0.015625)"/>
     <path id="DejaVuSans-Bold-72" d="M 3138 2547
Q 2991 2616 2845 2648
Q 2700 2681 2553 2681
Q 2122 2681 1889 2404
Q 1656 2128 1656 1613
L 1656 0
L 538 0
L 538 3500
L 1656 3500
L 1656 2925
Q 1872 3269 2151 3426
Q 2431 3584 2822 3584
Q 2878 3584 2943 3579
Q 3009 3575 3134 3559
L 3138 2547
z
" transform="scale(0.015625)"/>
     <path id="DejaVuSans-Bold-63" d="M 3366 3391
L 3366 2478
Q 3138 2634 2908 2709
Q 2678 2784 2431 2784
Q 1963 2784 1702 2511
Q 1441 2238 1441 1747
Q 1441 1256 1702 982
Q 1963 709 2431 709
Q 2694 709 2930 787
Q 3166 866 3366 1019
L 3366 103
Q 3103 6 2833 -42
Q 2563 -91 2291 -91
Q 1344 -91 809 395
Q 275 881 275 1747
Q 275 2613 809 3098
Q 1344 3584 2291 3584
Q 2566 3584 2833 3536
Q 3100 3488 3366 3391
z
" transform="scale(0.015625)"/>
     <path id="DejaVuSans-Bold-6f" d="M 2203 2784
Q 1831 2784 1636 2517
Q 1441 2250 1441 1747
Q 1441 1244 1636 976
Q 1831 709 2203 709
Q 2569 709 2762 976
Q 2956 1244 2956 1747
Q 2956 2250 2762 2517
Q 2569 2784 2203 2784
z
M 2203 3584
Q 3106 3584 3614 3096
Q 4122 2609 4122 1747
Q 4122 884 3614 396
Q 3106 -91 2203 -91
Q 1297 -91 786 396
Q 275 884 275 1747
Q 275 2609 786 3096
Q 1297 3584 2203 3584
z
" transform="scale(0.015625)"/>
     <path id="DejaVuSans-Bold-64" d="M 2919 2988
L 2919 4863
L 4044 4863
L 4044 0
L 2919 0
L 2919 506
Q 2688 197 2409 53
Q 2131 -91 1766 -91
Q 1119 -91 703 423
Q 288 938 288 1747
Q 288 2556 703 3070
Q 1119 3584 1766 3584
Q 2128 3584 2408 3439
Q 2688 3294 2919 2988
z
M 2181 722
Q 2541 722 2730 984
Q 2919 1247 2919 1747
Q 2919 2247 2730 2509
Q 2541 2772 2181 2772
Q 1825 2772 1636 2509
Q 1447 2247 1447 1747
Q 1447 1247 1636 984
Q 1825 722 2181 722
z
" transform="scale(0.015625)"/>
     <path id="DejaVuSans-Bold-6c" d="M 538 4863
L 1656 4863
L 1656 0
L 538 0
L 538 4863
z
" transform="scale(0.015625)"/>
     <path id="DejaVuSans-Bold-77" d="M 225 3500
L 1313 3500
L 1900 1088
L 2491 3500
L 3425 3500
L 4013 1113
L 4603 3500
L 5691 3500
L 4769 0
L 3547 0
L 2956 2406
L 2369 0
L 1147 0
L 225 3500
z
" transform="scale(0.015625)"/>
     <path id="DejaVuSans-Bold-2d" d="M 347 2297
L 2309 2297
L 2309 1388
L 347 1388
L 347 2297
z
" transform="scale(0.015625)"/>
     <path id="DejaVuSans-Bold-76" d="M 97 3500
L 1216 3500
L 2088 1081
L 2956 3500
L 4078 3500
L 2700 0
L 1472 0
L 97 3500
z
" transform="scale(0.015625)"/>
     <path id="DejaVuSans-Bold-61" d="M 2106 1575
Q 1756 1575 1579 1456
Q 1403 1338 1403 1106
Q 1403 894 1545 773
Q 1688 653 1941 653
Q 2256 653 2472 879
Q 2688 1106 2688 1447
L 2688 1575
L 2106 1575
z
M 3816 1997
L 3816 0
L 2688 0
L 2688 519
Q 2463 200 2181 54
Q 1900 -91 1497 -91
Q 953 -91 614 226
Q 275 544 275 1050
Q 275 1666 698 1953
Q 1122 2241 2028 2241
L 2688 2241
L 2688 2328
Q 2688 2594 2478 2717
Q 2269 2841 1825 2841
Q 1466 2841 1156 2769
Q 847 2697 581 2553
L 581 3406
Q 941 3494 1303 3539
Q 1666 3584 2028 3584
Q 2975 3584 3395 3211
Q 3816 2838 3816 1997
z
" transform="scale(0.015625)"/>
     <path id="DejaVuSans-Bold-74" d="M 1759 4494
L 1759 3500
L 2913 3500
L 2913 2700
L 1759 2700
L 1759 1216
Q 1759 972 1856 886
Q 1953 800 2241 800
L 2816 800
L 2816 0
L 1856 0
Q 1194 0 917 276
Q 641 553 641 1216
L 641 2700
L 84 2700
L 84 3500
L 641 3500
L 641 4494
L 1759 4494
z
" transform="scale(0.015625)"/>
     <path id="DejaVuSans-Bold-69" d="M 538 3500
L 1656 3500
L 1656 0
L 538 0
L 538 3500
z
M 538 4863
L 1656 4863
L 1656 3950
L 538 3950
L 538 4863
z
" transform="scale(0.015625)"/>
     <path id="DejaVuSans-Bold-6e" d="M 4056 2131
L 4056 0
L 2931 0
L 2931 347
L 2931 1631
Q 2931 2084 2911 2256
Q 2891 2428 2841 2509
Q 2775 2619 2662 2680
Q 2550 2741 2406 2741
Q 2056 2741 1856 2470
Q 1656 2200 1656 1722
L 1656 0
L 538 0
L 538 3500
L 1656 3500
L 1656 2988
Q 1909 3294 2193 3439
Q 2478 3584 2822 3584
Q 3428 3584 3742 3212
Q 4056 2841 4056 2131
z
" transform="scale(0.015625)"/>
     <path id="DejaVuSans-Bold-70" d="M 1656 506
L 1656 -1331
L 538 -1331
L 538 3500
L 1656 3500
L 1656 2988
Q 1888 3294 2169 3439
Q 2450 3584 2816 3584
Q 3463 3584 3878 3070
Q 4294 2556 4294 1747
Q 4294 938 3878 423
Q 3463 -91 2816 -91
Q 2450 -91 2169 54
Q 1888 200 1656 506
z
M 2400 2772
Q 2041 2772 1848 2508
Q 1656 2244 1656 1747
Q 1656 1250 1848 986
Q 2041 722 2400 722
Q 2759 722 2948 984
Q 3138 1247 3138 1747
Q 3138 2247 2948 2509
Q 2759 2772 2400 2772
z
" transform="scale(0.015625)"/>
     <path id="DejaVuSans-Bold-75" d="M 500 1363
L 500 3500
L 1625 3500
L 1625 3150
Q 1625 2866 1622 2436
Q 1619 2006 1619 1863
Q 1619 1441 1641 1255
Q 1663 1069 1716 984
Q 1784 875 1895 815
Q 2006 756 2150 756
Q 2500 756 2700 1025
Q 2900 1294 2900 1772
L 2900 3500
L 4019 3500
L 4019 0
L 2900 0
L 2900 506
Q 2647 200 2364 54
Q 2081 -91 1741 -91
Q 1134 -91 817 281
Q 500 653 500 1363
z
" transform="scale(0.015625)"/>
     <path id="DejaVuSans-Bold-67" d="M 2919 594
Q 2688 288 2409 144
Q 2131 0 1766 0
Q 1125 0 706 504
Q 288 1009 288 1791
Q 288 2575 706 3076
Q 1125 3578 1766 3578
Q 2131 3578 2409 3434
Q 2688 3291 2919 2981
L 2919 3500
L 4044 3500
L 4044 353
Q 4044 -491 3511 -936
Q 2978 -1381 1966 -1381
Q 1638 -1381 1331 -1331
Q 1025 -1281 716 -1178
L 716 -306
Q 1009 -475 1290 -558
Q 1572 -641 1856 -641
Q 2406 -641 2662 -400
Q 2919 -159 2919 353
L 2919 594
z
M 2181 2772
Q 1834 2772 1640 2515
Q 1447 2259 1447 1791
Q 1447 1309 1634 1061
Q 1822 813 2181 813
Q 2531 813 2725 1069
Q 2919 1325 2919 1791
Q 2919 2259 2725 2515
Q 2531 2772 2181 2772
z
" transform="scale(0.015625)"/>
     <path id="DejaVuSans-Bold-62" d="M 2400 722
Q 2759 722 2948 984
Q 3138 1247 3138 1747
Q 3138 2247 2948 2509
Q 2759 2772 2400 2772
Q 2041 2772 1848 2508
Q 1656 2244 1656 1747
Q 1656 1250 1848 986
Q 2041 722 2400 722
z
M 1656 2988
Q 1888 3294 2169 3439
Q 2450 3584 2816 3584
Q 3463 3584 3878 3070
Q 4294 2556 4294 1747
Q 4294 938 3878 423
Q 3463 -91 2816 -91
Q 2450 -91 2169 54
Q 1888 200 1656 506
L 1656 0
L 538 0
L 538 4863
L 1656 4863
L 1656 2988
z
" transform="scale(0.015625)"/>
     <path id="DejaVuSans-Bold-79" d="M 78 3500
L 1197 3500
L 2138 1125
L 2938 3500
L 4056 3500
L 2584 -331
Q 2363 -916 2067 -1148
Q 1772 -1381 1288 -1381
L 641 -1381
L 641 -647
L 991 -647
Q 1275 -647 1404 -556
Q 1534 -466 1606 -231
L 1638 -134
L 78 3500
z
" transform="scale(0.015625)"/>
     <path id="DejaVuSans-Bold-39" d="M 641 103
L 641 966
Q 928 831 1190 764
Q 1453 697 1709 697
Q 2247 697 2547 995
Q 2847 1294 2900 1881
Q 2688 1725 2447 1647
Q 2206 1569 1925 1569
Q 1209 1569 770 1986
Q 331 2403 331 3084
Q 331 3838 820 4291
Q 1309 4744 2131 4744
Q 3044 4744 3544 4128
Q 4044 3513 4044 2388
Q 4044 1231 3459 570
Q 2875 -91 1856 -91
Q 1528 -91 1228 -42
Q 928 6 641 103
z
M 2125 2350
Q 2441 2350 2600 2554
Q 2759 2759 2759 3169
Q 2759 3575 2600 3781
Q 2441 3988 2125 3988
Q 1809 3988 1650 3781
Q 1491 3575 1491 3169
Q 1491 2759 1650 2554
Q 1809 2350 2125 2350
z
" transform="scale(0.015625)"/>
     <path id="DejaVuSans-Bold-30" d="M 2944 2338
Q 2944 3213 2780 3570
Q 2616 3928 2228 3928
Q 1841 3928 1675 3570
Q 1509 3213 1509 2338
Q 1509 1453 1675 1090
Q 1841 728 2228 728
Q 2613 728 2778 1090
Q 2944 1453 2944 2338
z
M 4147 2328
Q 4147 1169 3647 539
Q 3147 -91 2228 -91
Q 1306 -91 806 539
Q 306 1169 306 2328
Q 306 3491 806 4120
Q 1306 4750 2228 4750
Q 3147 4750 3647 4120
Q 4147 3491 4147 2328
z
" transform="scale(0.015625)"/>
     <path id="DejaVuSans-Bold-2e" d="M 653 1209
L 1778 1209
L 1778 0
L 653 0
L 653 1209
z
" transform="scale(0.015625)"/>
     <path id="DejaVuSans-Bold-6d" d="M 3781 2919
Q 3994 3244 4286 3414
Q 4578 3584 4928 3584
Q 5531 3584 5847 3212
Q 6163 2841 6163 2131
L 6163 0
L 5038 0
L 5038 1825
Q 5041 1866 5042 1909
Q 5044 1953 5044 2034
Q 5044 2406 4934 2573
Q 4825 2741 4581 2741
Q 4263 2741 4089 2478
Q 3916 2216 3909 1719
L 3909 0
L 2784 0
L 2784 1825
Q 2784 2406 2684 2573
Q 2584 2741 2328 2741
Q 2006 2741 1831 2477
Q 1656 2213 1656 1722
L 1656 0
L 531 0
L 531 3500
L 1656 3500
L 1656 2988
Q 1863 3284 2130 3434
Q 2397 3584 2719 3584
Q 3081 3584 3359 3409
Q 3638 3234 3781 2919
z
" transform="scale(0.015625)"/>
    </defs>
    <use xlink:href="#DejaVuSans-Bold-54"/>
    <use xlink:href="#DejaVuSans-Bold-68" transform="translate(68.212891 0)"/>
    <use xlink:href="#DejaVuSans-Bold-65" transform="translate(139.404297 0)"/>
    <use xlink:href="#DejaVuSans-Bold-20" transform="translate(207.226562 0)"/>
    <use xlink:href="#DejaVuSans-Bold-72" transform="translate(242.041016 0)"/>
    <use xlink:href="#DejaVuSans-Bold-65" transform="translate(291.357422 0)"/>
    <use xlink:href="#DejaVuSans-Bold-63" transform="translate(359.179688 0)"/>
    <use xlink:href="#DejaVuSans-Bold-6f" transform="translate(418.457031 0)"/>
    <use xlink:href="#DejaVuSans-Bold-72" transform="translate(487.158203 0)"/>
    <use xlink:href="#DejaVuSans-Bold-64" transform="translate(536.474609 0)"/>
    <use xlink:href="#DejaVuSans-Bold-65" transform="translate(608.056641 0)"/>
    <use xlink:href="#DejaVuSans-Bold-64" transform="translate(675.878906 0)"/>
    <use xlink:href="#DejaVuSans-Bold-20" transform="translate(747.460938 0)"/>
    <use xlink:href="#DejaVuSans-Bold-6c" transform="translate(782.275391 0)"/>
    <use xlink:href="#DejaVuSans-Bold-6f" transform="translate(816.552734 0)"/>
    <use xlink:href="#DejaVuSans-Bold-77" transform="translate(885.253906 0)"/>
    <use xlink:href="#DejaVuSans-Bold-2d" transform="translate(977.636719 0)"/>
    <use xlink:href="#DejaVuSans-Bold-65" transform="translate(1019.140625 0)"/>
    <use xlink:href="#DejaVuSans-Bold-6c" transform="translate(1086.962891 0)"/>
    <use xlink:href="#DejaVuSans-Bold-65" transform="translate(1121.240234 0)"/>
    <use xlink:href="#DejaVuSans-Bold-76" transform="translate(1189.0625 0)"/>
    <use xlink:href="#DejaVuSans-Bold-61" transform="translate(1254.248047 0)"/>
    <use xlink:href="#DejaVuSans-Bold-74" transform="translate(1321.728516 0)"/>
    <use xlink:href="#DejaVuSans-Bold-69" transform="translate(1369.53125 0)"/>
    <use xlink:href="#DejaVuSans-Bold-6f" transform="translate(1403.808594 0)"/>
    <use xlink:href="#DejaVuSans-Bold-6e" transform="translate(1472.509766 0)"/>
    <use xlink:href="#DejaVuSans-Bold-20" transform="translate(1543.701172 0)"/>
    <use xlink:href="#DejaVuSans-Bold-70" transform="translate(1578.515625 0)"/>
    <use xlink:href="#DejaVuSans-Bold-6f" transform="translate(1650.097656 0)"/>
    <use xlink:href="#DejaVuSans-Bold-70" transform="translate(1718.798828 0)"/>
    <use xlink:href="#DejaVuSans-Bold-75" transform="translate(1790.380859 0)"/>
    <use xlink:href="#DejaVuSans-Bold-6c" transform="translate(1861.572266 0)"/>
    <use xlink:href="#DejaVuSans-Bold-61" transform="translate(1895.849609 0)"/>
    <use xlink:href="#DejaVuSans-Bold-74" transform="translate(1963.330078 0)"/>
    <use xlink:href="#DejaVuSans-Bold-69" transform="translate(2011.132812 0)"/>
    <use xlink:href="#DejaVuSans-Bold-6f" transform="translate(2045.410156 0)"/>
    <use xlink:href="#DejaVuSans-Bold-6e" transform="translate(2114.111328 0)"/>
    <use xlink:href="#DejaVuSans-Bold-20" transform="translate(2185.302734 0)"/>
    <use xlink:href="#DejaVuSans-Bold-67" transform="translate(2220.117188 0)"/>
    <use xlink:href="#DejaVuSans-Bold-72" transform="translate(2291.699219 0)"/>
    <use xlink:href="#DejaVuSans-Bold-65" transform="translate(2341.015625 0)"/>
    <use xlink:href="#DejaVuSans-Bold-77" transform="translate(2408.837891 0)"/>
    <use xlink:href="#DejaVuSans-Bold-20" transform="translate(2501.220703 0)"/>
    <use xlink:href="#DejaVuSans-Bold-62" transform="translate(2536.035156 0)"/>
    <use xlink:href="#DejaVuSans-Bold-79" transform="translate(2607.617188 0)"/>
    <use xlink:href="#DejaVuSans-Bold-20" transform="translate(2672.802734 0)"/>
    <use xlink:href="#DejaVuSans-Bold-39" transform="translate(2707.617188 0)"/>
    <use xlink:href="#DejaVuSans-Bold-30" transform="translate(2777.197266 0)"/>
    <use xlink:href="#DejaVuSans-Bold-2e" transform="translate(2846.777344 0)"/>
    <use xlink:href="#DejaVuSans-Bold-39" transform="translate(2884.765625 0)"/>
    <use xlink:href="#DejaVuSans-Bold-20" transform="translate(2954.345703 0)"/>
    <use xlink:href="#DejaVuSans-Bold-6d" transform="translate(2989.160156 0)"/>
    <use xlink:href="#DejaVuSans-Bold-69" transform="translate(3093.359375 0)"/>
    <use xlink:href="#DejaVuSans-Bold-6c" transform="translate(3127.636719 0)"/>
    <use xlink:href="#DejaVuSans-Bold-6c" transform="translate(3161.914062 0)"/>
    <use xlink:href="#DejaVuSans-Bold-69" transform="translate(3196.191406 0)"/>
    <use xlink:href="#DejaVuSans-Bold-6f" transform="translate(3230.46875 0)"/>
    <use xlink:href="#DejaVuSans-Bold-6e" transform="translate(3299.169922 0)"/>
   </g>
  </g>
  <g id="text_41">
   <!-- Shanghai, Bangkok and Dhaka lead the centre-level change; fixed 2025 footprints -->
   <g style="fill: #60707c" transform="translate(7.2 73.006594) scale(0.105 -0.105)">
    <defs>
     <path id="DejaVuSans-2d" d="M 313 2009
L 1997 2009
L 1997 1497
L 313 1497
L 313 2009
z
" transform="scale(0.015625)"/>
     <path id="DejaVuSans-76" d="M 191 3500
L 800 3500
L 1894 563
L 2988 3500
L 3597 3500
L 2284 0
L 1503 0
L 191 3500
z
" transform="scale(0.015625)"/>
     <path id="DejaVuSans-3b" d="M 750 3309
L 1409 3309
L 1409 2516
L 750 2516
L 750 3309
z
M 750 794
L 1409 794
L 1409 256
L 897 -744
L 494 -744
L 750 256
L 750 794
z
" transform="scale(0.015625)"/>
     <path id="DejaVuSans-66" d="M 2375 4863
L 2375 4384
L 1825 4384
Q 1516 4384 1395 4259
Q 1275 4134 1275 3809
L 1275 3500
L 2222 3500
L 2222 3053
L 1275 3053
L 1275 0
L 697 0
L 697 3053
L 147 3053
L 147 3500
L 697 3500
L 697 3744
Q 697 4328 969 4595
Q 1241 4863 1831 4863
L 2375 4863
z
" transform="scale(0.015625)"/>
     <path id="DejaVuSans-78" d="M 3513 3500
L 2247 1797
L 3578 0
L 2900 0
L 1881 1375
L 863 0
L 184 0
L 1544 1831
L 300 3500
L 978 3500
L 1906 2253
L 2834 3500
L 3513 3500
z
" transform="scale(0.015625)"/>
    </defs>
    <use xlink:href="#DejaVuSans-53"/>
    <use xlink:href="#DejaVuSans-68" transform="translate(63.476562 0)"/>
    <use xlink:href="#DejaVuSans-61" transform="translate(126.855469 0)"/>
    <use xlink:href="#DejaVuSans-6e" transform="translate(188.134766 0)"/>
    <use xlink:href="#DejaVuSans-67" transform="translate(251.513672 0)"/>
    <use xlink:href="#DejaVuSans-68" transform="translate(314.990234 0)"/>
    <use xlink:href="#DejaVuSans-61" transform="translate(378.369141 0)"/>
    <use xlink:href="#DejaVuSans-69" transform="translate(439.648438 0)"/>
    <use xlink:href="#DejaVuSans-2c" transform="translate(467.431641 0)"/>
    <use xlink:href="#DejaVuSans-20" transform="translate(499.21875 0)"/>
    <use xlink:href="#DejaVuSans-42" transform="translate(531.005859 0)"/>
    <use xlink:href="#DejaVuSans-61" transform="translate(599.609375 0)"/>
    <use xlink:href="#DejaVuSans-6e" transform="translate(660.888672 0)"/>
    <use xlink:href="#DejaVuSans-67" transform="translate(724.267578 0)"/>
    <use xlink:href="#DejaVuSans-6b" transform="translate(787.744141 0)"/>
    <use xlink:href="#DejaVuSans-6f" transform="translate(842.029297 0)"/>
    <use xlink:href="#DejaVuSans-6b" transform="translate(903.210938 0)"/>
    <use xlink:href="#DejaVuSans-20" transform="translate(961.121094 0)"/>
    <use xlink:href="#DejaVuSans-61" transform="translate(992.908203 0)"/>
    <use xlink:href="#DejaVuSans-6e" transform="translate(1054.1875 0)"/>
    <use xlink:href="#DejaVuSans-64" transform="translate(1117.566406 0)"/>
    <use xlink:href="#DejaVuSans-20" transform="translate(1181.042969 0)"/>
    <use xlink:href="#DejaVuSans-44" transform="translate(1212.830078 0)"/>
    <use xlink:href="#DejaVuSans-68" transform="translate(1289.832031 0)"/>
    <use xlink:href="#DejaVuSans-61" transform="translate(1353.210938 0)"/>
    <use xlink:href="#DejaVuSans-6b" transform="translate(1414.490234 0)"/>
    <use xlink:href="#DejaVuSans-61" transform="translate(1470.650391 0)"/>
    <use xlink:href="#DejaVuSans-20" transform="translate(1531.929688 0)"/>
    <use xlink:href="#DejaVuSans-6c" transform="translate(1563.716797 0)"/>
    <use xlink:href="#DejaVuSans-65" transform="translate(1591.5 0)"/>
    <use xlink:href="#DejaVuSans-61" transform="translate(1653.023438 0)"/>
    <use xlink:href="#DejaVuSans-64" transform="translate(1714.302734 0)"/>
    <use xlink:href="#DejaVuSans-20" transform="translate(1777.779297 0)"/>
    <use xlink:href="#DejaVuSans-74" transform="translate(1809.566406 0)"/>
    <use xlink:href="#DejaVuSans-68" transform="translate(1848.775391 0)"/>
    <use xlink:href="#DejaVuSans-65" transform="translate(1912.154297 0)"/>
    <use xlink:href="#DejaVuSans-20" transform="translate(1973.677734 0)"/>
    <use xlink:href="#DejaVuSans-63" transform="translate(2005.464844 0)"/>
    <use xlink:href="#DejaVuSans-65" transform="translate(2060.445312 0)"/>
    <use xlink:href="#DejaVuSans-6e" transform="translate(2121.96875 0)"/>
    <use xlink:href="#DejaVuSans-74" transform="translate(2185.347656 0)"/>
    <use xlink:href="#DejaVuSans-72" transform="translate(2224.556641 0)"/>
    <use xlink:href="#DejaVuSans-65" transform="translate(2263.419922 0)"/>
    <use xlink:href="#DejaVuSans-2d" transform="translate(2324.943359 0)"/>
    <use xlink:href="#DejaVuSans-6c" transform="translate(2361.027344 0)"/>
    <use xlink:href="#DejaVuSans-65" transform="translate(2388.810547 0)"/>
    <use xlink:href="#DejaVuSans-76" transform="translate(2450.333984 0)"/>
    <use xlink:href="#DejaVuSans-65" transform="translate(2509.513672 0)"/>
    <use xlink:href="#DejaVuSans-6c" transform="translate(2571.037109 0)"/>
    <use xlink:href="#DejaVuSans-20" transform="translate(2598.820312 0)"/>
    <use xlink:href="#DejaVuSans-63" transform="translate(2630.607422 0)"/>
    <use xlink:href="#DejaVuSans-68" transform="translate(2685.587891 0)"/>
    <use xlink:href="#DejaVuSans-61" transform="translate(2748.966797 0)"/>
    <use xlink:href="#DejaVuSans-6e" transform="translate(2810.246094 0)"/>
    <use xlink:href="#DejaVuSans-67" transform="translate(2873.625 0)"/>
    <use xlink:href="#DejaVuSans-65" transform="translate(2937.101562 0)"/>
    <use xlink:href="#DejaVuSans-3b" transform="translate(2998.625 0)"/>
    <use xlink:href="#DejaVuSans-20" transform="translate(3032.316406 0)"/>
    <use xlink:href="#DejaVuSans-66" transform="translate(3064.103516 0)"/>
    <use xlink:href="#DejaVuSans-69" transform="translate(3099.308594 0)"/>
    <use xlink:href="#DejaVuSans-78" transform="translate(3127.091797 0)"/>
    <use xlink:href="#DejaVuSans-65" transform="translate(3183.146484 0)"/>
    <use xlink:href="#DejaVuSans-64" transform="translate(3244.669922 0)"/>
    <use xlink:href="#DejaVuSans-20" transform="translate(3308.146484 0)"/>
    <use xlink:href="#DejaVuSans-32" transform="translate(3339.933594 0)"/>
    <use xlink:href="#DejaVuSans-30" transform="translate(3403.556641 0)"/>
    <use xlink:href="#DejaVuSans-32" transform="translate(3467.179688 0)"/>
    <use xlink:href="#DejaVuSans-35" transform="translate(3530.802734 0)"/>
    <use xlink:href="#DejaVuSans-20" transform="translate(3594.425781 0)"/>
    <use xlink:href="#DejaVuSans-66" transform="translate(3626.212891 0)"/>
    <use xlink:href="#DejaVuSans-6f" transform="translate(3661.417969 0)"/>
    <use xlink:href="#DejaVuSans-6f" transform="translate(3722.599609 0)"/>
    <use xlink:href="#DejaVuSans-74" transform="translate(3783.78125 0)"/>
    <use xlink:href="#DejaVuSans-70" transform="translate(3822.990234 0)"/>
    <use xlink:href="#DejaVuSans-72" transform="translate(3886.466797 0)"/>
    <use xlink:href="#DejaVuSans-69" transform="translate(3927.580078 0)"/>
    <use xlink:href="#DejaVuSans-6e" transform="translate(3955.363281 0)"/>
    <use xlink:href="#DejaVuSans-74" transform="translate(4018.742188 0)"/>
    <use xlink:href="#DejaVuSans-73" transform="translate(4057.951172 0)"/>
   </g>
  </g>
  <g id="text_42">
   <!-- 1,334 reporting centres in 24 ADB developing economies. This is exposure growth, not flood loss or informality. Source: GHS-UCDB R2024A V1.2. -->
   <g style="fill: #60707c" transform="translate(7.2 522.286594) scale(0.082 -0.082)">
    <defs>
     <path id="DejaVuSans-3a" d="M 750 794
L 1409 794
L 1409 0
L 750 0
L 750 794
z
M 750 3309
L 1409 3309
L 1409 2516
L 750 2516
L 750 3309
z
" transform="scale(0.015625)"/>
     <path id="DejaVuSans-55" d="M 556 4666
L 1191 4666
L 1191 1831
Q 1191 1081 1462 751
Q 1734 422 2344 422
Q 2950 422 3222 751
Q 3494 1081 3494 1831
L 3494 4666
L 4128 4666
L 4128 1753
Q 4128 841 3676 375
Q 3225 -91 2344 -91
Q 1459 -91 1007 375
Q 556 841 556 1753
L 556 4666
z
" transform="scale(0.015625)"/>
    </defs>
    <use xlink:href="#DejaVuSans-31"/>
    <use xlink:href="#DejaVuSans-2c" transform="translate(63.623047 0)"/>
    <use xlink:href="#DejaVuSans-33" transform="translate(95.410156 0)"/>
    <use xlink:href="#DejaVuSans-33" transform="translate(159.033203 0)"/>
    <use xlink:href="#DejaVuSans-34" transform="translate(222.65625 0)"/>
    <use xlink:href="#DejaVuSans-20" transform="translate(286.279297 0)"/>
    <use xlink:href="#DejaVuSans-72" transform="translate(318.066406 0)"/>
    <use xlink:href="#DejaVuSans-65" transform="translate(356.929688 0)"/>
    <use xlink:href="#DejaVuSans-70" transform="translate(418.453125 0)"/>
    <use xlink:href="#DejaVuSans-6f" transform="translate(481.929688 0)"/>
    <use xlink:href="#DejaVuSans-72" transform="translate(543.111328 0)"/>
    <use xlink:href="#DejaVuSans-74" transform="translate(584.224609 0)"/>
    <use xlink:href="#DejaVuSans-69" transform="translate(623.433594 0)"/>
    <use xlink:href="#DejaVuSans-6e" transform="translate(651.216797 0)"/>
    <use xlink:href="#DejaVuSans-67" transform="translate(714.595703 0)"/>
    <use xlink:href="#DejaVuSans-20" transform="translate(778.072266 0)"/>
    <use xlink:href="#DejaVuSans-63" transform="translate(809.859375 0)"/>
    <use xlink:href="#DejaVuSans-65" transform="translate(864.839844 0)"/>
    <use xlink:href="#DejaVuSans-6e" transform="translate(926.363281 0)"/>
    <use xlink:href="#DejaVuSans-74" transform="translate(989.742188 0)"/>
    <use xlink:href="#DejaVuSans-72" transform="translate(1028.951172 0)"/>
    <use xlink:href="#DejaVuSans-65" transform="translate(1067.814453 0)"/>
    <use xlink:href="#DejaVuSans-73" transform="translate(1129.337891 0)"/>
    <use xlink:href="#DejaVuSans-20" transform="translate(1181.4375 0)"/>
    <use xlink:href="#DejaVuSans-69" transform="translate(1213.224609 0)"/>
    <use xlink:href="#DejaVuSans-6e" transform="translate(1241.007812 0)"/>
    <use xlink:href="#DejaVuSans-20" transform="translate(1304.386719 0)"/>
    <use xlink:href="#DejaVuSans-32" transform="translate(1336.173828 0)"/>
    <use xlink:href="#DejaVuSans-34" transform="translate(1399.796875 0)"/>
    <use xlink:href="#DejaVuSans-20" transform="translate(1463.419922 0)"/>
    <use xlink:href="#DejaVuSans-41" transform="translate(1495.207031 0)"/>
    <use xlink:href="#DejaVuSans-44" transform="translate(1563.615234 0)"/>
    <use xlink:href="#DejaVuSans-42" transform="translate(1640.617188 0)"/>
    <use xlink:href="#DejaVuSans-20" transform="translate(1709.220703 0)"/>
    <use xlink:href="#DejaVuSans-64" transform="translate(1741.007812 0)"/>
    <use xlink:href="#DejaVuSans-65" transform="translate(1804.484375 0)"/>
    <use xlink:href="#DejaVuSans-76" transform="translate(1866.007812 0)"/>
    <use xlink:href="#DejaVuSans-65" transform="translate(1925.1875 0)"/>
    <use xlink:href="#DejaVuSans-6c" transform="translate(1986.710938 0)"/>
    <use xlink:href="#DejaVuSans-6f" transform="translate(2014.494141 0)"/>
    <use xlink:href="#DejaVuSans-70" transform="translate(2075.675781 0)"/>
    <use xlink:href="#DejaVuSans-69" transform="translate(2139.152344 0)"/>
    <use xlink:href="#DejaVuSans-6e" transform="translate(2166.935547 0)"/>
    <use xlink:href="#DejaVuSans-67" transform="translate(2230.314453 0)"/>
    <use xlink:href="#DejaVuSans-20" transform="translate(2293.791016 0)"/>
    <use xlink:href="#DejaVuSans-65" transform="translate(2325.578125 0)"/>
    <use xlink:href="#DejaVuSans-63" transform="translate(2387.101562 0)"/>
    <use xlink:href="#DejaVuSans-6f" transform="translate(2442.082031 0)"/>
    <use xlink:href="#DejaVuSans-6e" transform="translate(2503.263672 0)"/>
    <use xlink:href="#DejaVuSans-6f" transform="translate(2566.642578 0)"/>
    <use xlink:href="#DejaVuSans-6d" transform="translate(2627.824219 0)"/>
    <use xlink:href="#DejaVuSans-69" transform="translate(2725.236328 0)"/>
    <use xlink:href="#DejaVuSans-65" transform="translate(2753.019531 0)"/>
    <use xlink:href="#DejaVuSans-73" transform="translate(2814.542969 0)"/>
    <use xlink:href="#DejaVuSans-2e" transform="translate(2866.642578 0)"/>
    <use xlink:href="#DejaVuSans-20" transform="translate(2898.429688 0)"/>
    <use xlink:href="#DejaVuSans-54" transform="translate(2930.216797 0)"/>
    <use xlink:href="#DejaVuSans-68" transform="translate(2991.300781 0)"/>
    <use xlink:href="#DejaVuSans-69" transform="translate(3054.679688 0)"/>
    <use xlink:href="#DejaVuSans-73" transform="translate(3082.462891 0)"/>
    <use xlink:href="#DejaVuSans-20" transform="translate(3134.5625 0)"/>
    <use xlink:href="#DejaVuSans-69" transform="translate(3166.349609 0)"/>
    <use xlink:href="#DejaVuSans-73" transform="translate(3194.132812 0)"/>
    <use xlink:href="#DejaVuSans-20" transform="translate(3246.232422 0)"/>
    <use xlink:href="#DejaVuSans-65" transform="translate(3278.019531 0)"/>
    <use xlink:href="#DejaVuSans-78" transform="translate(3337.792969 0)"/>
    <use xlink:href="#DejaVuSans-70" transform="translate(3396.972656 0)"/>
    <use xlink:href="#DejaVuSans-6f" transform="translate(3460.449219 0)"/>
    <use xlink:href="#DejaVuSans-73" transform="translate(3521.630859 0)"/>
    <use xlink:href="#DejaVuSans-75" transform="translate(3573.730469 0)"/>
    <use xlink:href="#DejaVuSans-72" transform="translate(3637.109375 0)"/>
    <use xlink:href="#DejaVuSans-65" transform="translate(3675.972656 0)"/>
    <use xlink:href="#DejaVuSans-20" transform="translate(3737.496094 0)"/>
    <use xlink:href="#DejaVuSans-67" transform="translate(3769.283203 0)"/>
    <use xlink:href="#DejaVuSans-72" transform="translate(3832.759766 0)"/>
    <use xlink:href="#DejaVuSans-6f" transform="translate(3871.623047 0)"/>
    <use xlink:href="#DejaVuSans-77" transform="translate(3932.804688 0)"/>
    <use xlink:href="#DejaVuSans-74" transform="translate(4014.591797 0)"/>
    <use xlink:href="#DejaVuSans-68" transform="translate(4053.800781 0)"/>
    <use xlink:href="#DejaVuSans-2c" transform="translate(4117.179688 0)"/>
    <use xlink:href="#DejaVuSans-20" transform="translate(4148.966797 0)"/>
    <use xlink:href="#DejaVuSans-6e" transform="translate(4180.753906 0)"/>
    <use xlink:href="#DejaVuSans-6f" transform="translate(4244.132812 0)"/>
    <use xlink:href="#DejaVuSans-74" transform="translate(4305.314453 0)"/>
    <use xlink:href="#DejaVuSans-20" transform="translate(4344.523438 0)"/>
    <use xlink:href="#DejaVuSans-66" transform="translate(4376.310547 0)"/>
    <use xlink:href="#DejaVuSans-6c" transform="translate(4411.515625 0)"/>
    <use xlink:href="#DejaVuSans-6f" transform="translate(4439.298828 0)"/>
    <use xlink:href="#DejaVuSans-6f" transform="translate(4500.480469 0)"/>
    <use xlink:href="#DejaVuSans-64" transform="translate(4561.662109 0)"/>
    <use xlink:href="#DejaVuSans-20" transform="translate(4625.138672 0)"/>
    <use xlink:href="#DejaVuSans-6c" transform="translate(4656.925781 0)"/>
    <use xlink:href="#DejaVuSans-6f" transform="translate(4684.708984 0)"/>
    <use xlink:href="#DejaVuSans-73" transform="translate(4745.890625 0)"/>
    <use xlink:href="#DejaVuSans-73" transform="translate(4797.990234 0)"/>
    <use xlink:href="#DejaVuSans-20" transform="translate(4850.089844 0)"/>
    <use xlink:href="#DejaVuSans-6f" transform="translate(4881.876953 0)"/>
    <use xlink:href="#DejaVuSans-72" transform="translate(4943.058594 0)"/>
    <use xlink:href="#DejaVuSans-20" transform="translate(4984.171875 0)"/>
    <use xlink:href="#DejaVuSans-69" transform="translate(5015.958984 0)"/>
    <use xlink:href="#DejaVuSans-6e" transform="translate(5043.742188 0)"/>
    <use xlink:href="#DejaVuSans-66" transform="translate(5107.121094 0)"/>
    <use xlink:href="#DejaVuSans-6f" transform="translate(5142.326172 0)"/>
    <use xlink:href="#DejaVuSans-72" transform="translate(5203.507812 0)"/>
    <use xlink:href="#DejaVuSans-6d" transform="translate(5242.871094 0)"/>
    <use xlink:href="#DejaVuSans-61" transform="translate(5340.283203 0)"/>
    <use xlink:href="#DejaVuSans-6c" transform="translate(5401.5625 0)"/>
    <use xlink:href="#DejaVuSans-69" transform="translate(5429.345703 0)"/>
    <use xlink:href="#DejaVuSans-74" transform="translate(5457.128906 0)"/>
    <use xlink:href="#DejaVuSans-79" transform="translate(5496.337891 0)"/>
    <use xlink:href="#DejaVuSans-2e" transform="translate(5541.267578 0)"/>
    <use xlink:href="#DejaVuSans-20" transform="translate(5573.054688 0)"/>
    <use xlink:href="#DejaVuSans-53" transform="translate(5604.841797 0)"/>
    <use xlink:href="#DejaVuSans-6f" transform="translate(5668.318359 0)"/>
    <use xlink:href="#DejaVuSans-75" transform="translate(5729.5 0)"/>
    <use xlink:href="#DejaVuSans-72" transform="translate(5792.878906 0)"/>
    <use xlink:href="#DejaVuSans-63" transform="translate(5831.742188 0)"/>
    <use xlink:href="#DejaVuSans-65" transform="translate(5886.722656 0)"/>
    <use xlink:href="#DejaVuSans-3a" transform="translate(5948.246094 0)"/>
    <use xlink:href="#DejaVuSans-20" transform="translate(5981.9375 0)"/>
    <use xlink:href="#DejaVuSans-47" transform="translate(6013.724609 0)"/>
    <use xlink:href="#DejaVuSans-48" transform="translate(6091.214844 0)"/>
    <use xlink:href="#DejaVuSans-53" transform="translate(6166.410156 0)"/>
    <use xlink:href="#DejaVuSans-2d" transform="translate(6229.886719 0)"/>
    <use xlink:href="#DejaVuSans-55" transform="translate(6265.970703 0)"/>
    <use xlink:href="#DejaVuSans-43" transform="translate(6339.164062 0)"/>
    <use xlink:href="#DejaVuSans-44" transform="translate(6408.988281 0)"/>
    <use xlink:href="#DejaVuSans-42" transform="translate(6485.990234 0)"/>
    <use xlink:href="#DejaVuSans-20" transform="translate(6554.59375 0)"/>
    <use xlink:href="#DejaVuSans-52" transform="translate(6586.380859 0)"/>
    <use xlink:href="#DejaVuSans-32" transform="translate(6655.863281 0)"/>
    <use xlink:href="#DejaVuSans-30" transform="translate(6719.486328 0)"/>
    <use xlink:href="#DejaVuSans-32" transform="translate(6783.109375 0)"/>
    <use xlink:href="#DejaVuSans-34" transform="translate(6846.732422 0)"/>
    <use xlink:href="#DejaVuSans-41" transform="translate(6910.355469 0)"/>
    <use xlink:href="#DejaVuSans-20" transform="translate(6978.763672 0)"/>
    <use xlink:href="#DejaVuSans-56" transform="translate(7010.550781 0)"/>
    <use xlink:href="#DejaVuSans-31" transform="translate(7078.958984 0)"/>
    <use xlink:href="#DejaVuSans-2e" transform="translate(7142.582031 0)"/>
    <use xlink:href="#DejaVuSans-32" transform="translate(7174.369141 0)"/>
    <use xlink:href="#DejaVuSans-2e" transform="translate(7237.992188 0)"/>
   </g>
  </g>
 </g>
 <defs>
  <clipPath id="p2c5d6a319e">
   <rect x="143.136" y="115.126594" width="611.712" height="348.192"/>
  </clipPath>
 </defs>
</svg>
